<svg width="49" height="58" viewBox="0 0 49 58" fill="none" xmlns="http://www.w3.org/2000/svg">
<path d="M0.170849 22.0563C1.79766 5.06479 15.8614 0 24.1663 0C42.297 0 48.5691 13.4789 48.9758 22.4648C49.3825 31.4507 44.5925 38.5271 39.6217 43.2958C35.7898 46.9718 28.0624 54.3239 24.5737 58C23.7601 57.1012 22.6414 55.9113 21.351 54.5873C13.4624 46.4932 2.71518 39.817 0.429784 28.696C-0.0060305 26.5753 -0.142836 24.3403 0.170849 22.0563Z" fill="white"/>
<path d="M1.69206 22.4267C3.22331 6.34133 16.4609 1.54667 24.278 1.54667C41.3438 1.54667 47.2474 14.3067 47.6302 22.8133C48.0131 31.32 43.5044 38.019 38.8256 42.5333C35.2188 46.0133 27.9453 52.9733 24.6615 56.4533C24.0434 55.7666 23.2381 54.9002 22.3118 53.9325C14.484 45.7548 3.52375 39.0034 1.76536 27.768C1.49578 26.0454 1.44272 24.2526 1.69206 22.4267Z" fill="#009F4D"/>
<path d="M28.4428 29.8182C28.4428 32.0396 29.1114 33.3147 30.4485 33.3147C31.2116 33.4328 33.0821 33.3336 34.4599 31.9921L35.2188 33.6776C34.1679 35.026 31.4604 35.5032 30.2379 35.5733C28.249 35.5733 26.4171 34.4915 26.0561 31.2595H25.9491C23.9935 34.2846 21.3828 35.5733 19.0963 35.5733C16.1647 35.5733 13.7812 33.664 13.7812 29.8081C13.7812 24.8601 17.1007 19.6341 22.4124 19.6341C23.6343 19.643 24.841 19.9098 25.9558 20.4175C26.1162 20.4819 26.1162 20.5463 26.0862 20.6447L25.568 22.5743C25.5379 22.6727 25.4744 22.6727 25.1836 22.5404C24.3052 22.1673 23.3646 21.9682 22.4124 21.9537C18.518 21.9537 16.295 26.1725 16.295 29.5639C16.295 32.2159 17.6155 33.2943 19.3537 33.2943C21.8976 33.2943 25.2638 30.6457 26.601 24.833L29.6095 11.7628C29.6396 11.6305 29.673 11.6 29.8034 11.6H31.9929C32.0564 11.6 32.1199 11.6305 32.0899 11.7628L29.0044 25.3281C28.6784 26.8036 28.4904 28.3069 28.4428 29.8182Z" fill="white"/>
</svg>
