<svg width="49" height="58" viewBox="0 0 49 58" fill="none" xmlns="http://www.w3.org/2000/svg">
<path d="M0.170849 22.0563C1.79766 5.06479 15.8614 0 24.1663 0C42.297 0 48.5691 13.4789 48.9758 22.4648C49.3825 31.4507 44.5925 38.5271 39.6217 43.2958C35.7898 46.9718 28.0624 54.3239 24.5737 58C23.7601 57.1012 22.6414 55.9113 21.351 54.5873C13.4624 46.4932 2.71518 39.817 0.429784 28.696C-0.0060305 26.5753 -0.142836 24.3403 0.170849 22.0563Z" fill="white"/>
<path d="M1.69206 22.4267C3.22331 6.34133 16.4609 1.54667 24.278 1.54667C41.3438 1.54667 47.2474 14.3067 47.6302 22.8133C48.0131 31.32 43.5044 38.019 38.8256 42.5333C35.2188 46.0133 27.9453 52.9733 24.6615 56.4533C24.0434 55.7666 23.2381 54.9002 22.3118 53.9325C14.484 45.7548 3.52375 39.0034 1.76536 27.768C1.49578 26.0454 1.44272 24.2526 1.69206 22.4267Z" fill="#FF8200"/>
<path d="M27.6243 28.9634L27.4649 29.6235C26.7767 31.7956 25.48 32.6985 23.663 32.6985C21.5187 32.6985 20.1843 31.6338 20.7508 29.0869L21.3844 26.1737H31.401L31.9255 23.465C32.8152 19.206 31.1576 15.4667 26.5081 15.4667C22.102 15.4667 20.1213 18.022 19.2736 21.9488L17.8175 28.6354C16.8482 33.15 19.3534 35.5733 23.4784 35.5733C27.318 35.5733 29.7435 33.2309 30.6121 29.6108L30.8135 28.9506L27.6243 28.9634ZM26.1682 18.3159C28.7951 18.3159 29.605 20.0791 29.0385 22.7069L28.8245 23.6695L21.8334 24.0954L22.3705 21.6379C22.8531 19.4616 23.9861 18.3117 26.1472 18.3117" fill="white"/>
</svg>
