<svg width="49" height="58" viewBox="0 0 49 58" fill="none" xmlns="http://www.w3.org/2000/svg">
<path d="M0.170849 22.0563C1.79766 5.06479 15.8614 0 24.1663 0C42.297 0 48.5691 13.4789 48.9758 22.4648C49.3825 31.4507 44.5925 38.5271 39.6217 43.2958C35.7898 46.9718 28.0624 54.3239 24.5737 58C23.7601 57.1012 22.6414 55.9113 21.351 54.5873C13.4624 46.4932 2.71518 39.817 0.429784 28.696C-0.0060305 26.5753 -0.142836 24.3403 0.170849 22.0563Z" fill="white"/>
<path d="M1.69206 22.4267C3.22331 6.34133 16.4609 1.54667 24.278 1.54667C41.3438 1.54667 47.2474 14.3067 47.6302 22.8133C48.0131 31.32 43.5044 38.019 38.8256 42.5333C35.2188 46.0133 27.9453 52.9733 24.6615 56.4533C24.0434 55.7666 23.2381 54.9002 22.3118 53.9325C14.484 45.7548 3.52375 39.0034 1.76536 27.768C1.49578 26.0454 1.44272 24.2526 1.69206 22.4267Z" fill="#F50F64"/>
<path d="M19.5597 18.1084L19.7201 20.3326H19.7852C20.7174 18.5933 22.0334 17.7867 23.705 17.7867C25.8253 17.7867 26.957 18.6563 27.6898 20.3326H27.7527C29.0708 18.3019 30.6123 17.7867 31.963 17.7867C35.9695 17.7867 36.75 20.5587 36.75 23.4242V33.2533H31.6096V24.6177C31.6096 23.2328 31.6725 21.8784 30.196 21.8784C28.6524 21.8784 28.3966 23.1024 28.3966 24.5199V33.2533H23.254V24.6177C23.254 23.2328 23.319 21.8784 21.8404 21.8784C20.299 21.8784 20.041 23.1024 20.041 24.5199V33.2533H14.9656V24.1655C13.68 24.1981 12.2989 23.4568 12.364 21.524C10.9179 21.4283 9.95312 20.4282 9.95312 18.5607V18.1084H19.5597Z" fill="white"/>
</svg>
