<?xml version="1.0" encoding="UTF-8" standalone="no"?>
<!-- Created with Inkscape (http://www.inkscape.org/) -->

<svg
   width="512mm"
   height="256mm"
   viewBox="0 0 512 256"
   version="1.1"
   id="svg552"
   inkscape:export-filename="nornal_card.png"
   inkscape:export-xdpi="96"
   inkscape:export-ydpi="96"
   inkscape:version="1.2 (dc2aeda, 2022-05-15)"
   sodipodi:docname="normalCard.svg"
   xml:space="preserve"
   xmlns:inkscape="http://www.inkscape.org/namespaces/inkscape"
   xmlns:sodipodi="http://sodipodi.sourceforge.net/DTD/sodipodi-0.dtd"
   xmlns="http://www.w3.org/2000/svg"
   xmlns:svg="http://www.w3.org/2000/svg"><sodipodi:namedview
     id="namedview554"
     pagecolor="#ffffff"
     bordercolor="#000000"
     borderopacity="0.25"
     inkscape:showpageshadow="2"
     inkscape:pageopacity="0.0"
     inkscape:pagecheckerboard="0"
     inkscape:deskcolor="#d1d1d1"
     inkscape:document-units="mm"
     showgrid="false"
     inkscape:zoom="0.2102413"
     inkscape:cx="473.26572"
     inkscape:cy="699.19659"
     inkscape:window-width="1427"
     inkscape:window-height="822"
     inkscape:window-x="0"
     inkscape:window-y="25"
     inkscape:window-maximized="0"
     inkscape:current-layer="layer1" /><defs
     id="defs549"><filter
       style="color-interpolation-filters:sRGB;"
       inkscape:label="Blur"
       id="filter6089"
       x="-0.093784224"
       y="-0.14999795"
       width="1.1875684"
       height="1.2999959"><feGaussianBlur
         stdDeviation="2 8"
         result="fbSourceGraphic"
         id="feGaussianBlur6087" /><feColorMatrix
         result="fbSourceGraphicAlpha"
         in="fbSourceGraphic"
         values="0 0 0 -1 0 0 0 0 -1 0 0 0 0 -1 0 0 0 0 1 0"
         id="feColorMatrix6091" /><feGaussianBlur
         id="feGaussianBlur6093"
         stdDeviation="8 8"
         result="blur"
         in="fbSourceGraphic" /></filter><clipPath
       id="clip0_8225_48460"><rect
         width="206"
         height="84"
         fill="#ffffff"
         id="rect204"
         x="0"
         y="0" /></clipPath></defs><g
     inkscape:label="Layer 1"
     inkscape:groupmode="layer"
     id="layer1"><rect
       style="fill:#f50f64;fill-rule:evenodd;stroke-width:0.264583;stroke-linecap:round;paint-order:fill markers stroke;fill-opacity:1"
       id="rect673"
       width="512"
       height="256"
       x="0"
       y="0" /><path
       id="rect673-9-3"
       style="fill:#43325f;fill-opacity:1;fill-rule:evenodd;stroke-width:0.264583;stroke-linecap:round;paint-order:fill markers stroke;filter:url(#filter6089)"
       d="m 375.58747,4.0621575 96.09342,-1.4163301 c 17.72607,-0.26127 32,14.2720016 32,32.0000116 V 226.64585 c 0,17.728 -14.272,32.0074 -32,32 l -223.90658,-0.0934 z"
       sodipodi:nodetypes="csssscc" /><path
       id="rect673-0"
       style="fill:#6e2dc3;fill-opacity:1;fill-rule:evenodd;stroke-width:0.264583;stroke-linecap:round;paint-order:fill markers stroke"
       d="M 383.81315,1.5097 512,0 v 256 l -256,-3e-5 z"
       sodipodi:nodetypes="ccccc" /><g
       style="fill:none"
       id="g276"
       transform="matrix(0.69998972,0,0,0.69999085,15.001631,-33.064215)"><path
         id="path2017"
         style="fill:#ffffff;fill-opacity:1"
         d="M 36.798828,0 C 30.080272,0.01930141 24.037964,0.12104832 22.447266,0.4453125 8.0572,3.0641299 2.2133889,14.384549 1.09375,19.714844 -0.2094227,23.60604 -1.4206806,33.816 4.1835938,43.525391 9.7878681,53.234781 20.917255,55.928653 25.78125,56.064453 H 55.210938 V 29.505859 H 39.658203 c -0.691399,0 -1.278156,0.486607 -1.535156,1.128907 -0.850399,2.118498 -2.997879,5.047369 -7.109375,5.417968 -8.595992,-0.308799 -8.872406,-6.887624 -8.566406,-9.419922 0.305899,-2.532397 2.693012,-6.886574 8.566406,-6.546874 3.897296,0.222399 6.098816,3.15598 7.041016,5.330078 0.299799,0.697899 0.948572,1.216796 1.701171,1.216796 H 55.210938 V 0.04296875 C 50.912892,0.04296875 43.517384,-0.01930141 36.798828,0 Z M 58.238281,0.04296875 V 56.064453 H 93.847656 V 37.101562 H 80.96875 V 0.04296875 Z m 38.728516,0 V 56.064453 H 150.04297 V 0.04296875 H 128.04883 V 34.113281 c 0,1.476099 -0.0252,3.013439 -0.78321,4.273438 -0.65499,1.093199 -1.75645,2.099378 -3.43945,2.142578 -3.51799,0.0927 -4.55723,-2.377121 -4.74023,-4.199219 -0.147,-1.457598 -0.061,-24.798878 0,-36.28710925 z m 56.074223,0 V 56.064453 h 36.03515 c 5.598,-0.3212 16.81997,-4.71329 16.91797,-19.734375 0,-9.73419 -6.65066,-15.069986 -9.97266,-16.521484 1.273,-1.216799 3.6528,-4.885668 2.9668,-9.8515628 -0.685,-4.965885 -4.89506,-7.7324882 -6.91406,-8.4921874 -0.814,-0.3891197 -3.1258,-1.21768362 -5.8418,-1.39062505 -2.766,0 -23.28041,-0.01889701 -33.1914,-0.03125 z m 24.3496,14.22460925 a 5.2920046,5.3302994 0 0 1 5.29297,5.330078 5.2920046,5.3302994 0 0 1 -5.29297,5.330078 5.2920046,5.3302994 0 0 1 -5.29101,-5.330078 5.2920046,5.3302994 0 0 1 5.29101,-5.330078 z m 0,17.583984 c 2.912,0 5.29297,2.383882 5.29297,5.330079 0,2.946197 -2.38097,5.332031 -5.29297,5.332031 -2.91199,0 -5.29101,-2.392034 -5.29101,-5.332031 0,-2.939997 2.37902,-5.323879 5.29101,-5.330079 z M 66.431641,66.439453 c -1.364399,0 -2.442232,0.674183 -3.207032,2.113281 h -0.05469 l -0.126953,-1.839843 v -0.0078 h -7.857422 v 0.376953 c 0,1.550299 0.789904,2.378685 1.970703,2.458985 -0.049,1.599698 1.076607,2.210246 2.128906,2.185546 v 7.529297 h 4.142578 v -7.238281 c 0,-1.173499 0.214311,-2.185547 1.47461,-2.185547 1.211399,0 1.15625,1.122586 1.15625,2.271485 v 7.152343 h 4.208984 v -7.238281 c 0,-1.173499 0.214211,-2.185547 1.47461,-2.185547 1.205298,0 1.15625,1.122586 1.15625,2.271485 v 7.152343 h 4.203124 v -8.146484 c 0,-2.371698 -0.636718,-4.669922 -3.916015,-4.669922 -1.107399,0 -2.366561,0.427083 -3.443359,2.113281 h -0.04883 c -0.599599,-1.389698 -1.53032,-2.113281 -3.261718,-2.113281 z m 30.253906,0 c -3.205997,0 -4.943359,2.724566 -4.943359,6.226563 0,3.551496 1.529368,6.169922 4.759765,6.169922 1.364399,0 2.60027,-0.66553 3.230469,-1.548829 h 0.04883 v 1.4375 c 0,1.599699 -0.685492,2.16211 -2.025391,2.16211 v 0.01367 c -1.052299,0 -1.627041,-0.401858 -1.99414,-1.285157 l -3.548828,0.900391 c 1.052399,2.668197 3.230443,3.472656 5.49414,3.472656 4.129397,0 6.283197,-1.897361 6.283197,-6.597656 V 66.705078 h -3.994134 l -0.08008,1.390625 h -0.04883 c -0.6057,-0.771999 -1.762243,-1.65625 -3.181641,-1.65625 z m 43.746093,0 c -1.371,0 -2.49686,0.674183 -3.25586,2.113281 h -0.0547 l -0.1289,-1.839843 v -0.0078 h -3.78711 v 12.550781 h 4.20312 v -7.238281 c 0,-1.173499 0.21405,-2.185547 1.49805,-2.185547 1.23,0 1.18164,1.122586 1.18164,2.271485 v 7.152343 h 4.20313 v -7.238281 c 0,-1.173499 0.21404,-2.185547 1.49804,-2.185547 1.23,0 1.18164,1.122586 1.18164,2.271485 v 7.152343 h 4.20313 v -8.146484 c 0,-2.371698 -0.62946,-4.669922 -3.93945,-4.669922 -1.101,0 -2.39176,0.427083 -3.46876,2.113281 h -0.0488 c -0.605,-1.389698 -1.52316,-2.113281 -3.28516,-2.113281 z M 114,66.447266 c -1.554,0 -2.73372,0.635451 -3.76172,2.03125 h -0.0488 l -0.10351,-1.759766 h -3.9961 v 12.550781 h 4.20899 v -7.103515 c 0,-1.173499 0.28695,-2.322266 1.62695,-2.322266 1.42,0 1.47461,1.148076 1.47461,2.296875 v 7.128906 h 4.20899 V 71.3125 C 117.60937,68.687503 116.919,66.447266 114,66.447266 Z m -29.25,0.0059 c -2.808297,0 -5.048666,1.260153 -5.697266,4.21875 l 3.757813,0.611328 c 0.208,-1.173499 0.84491,-1.736328 1.787109,-1.736328 0.948299,0 1.314453,0.376782 1.314453,0.988281 0,2.668198 -7.359375,0.265265 -7.359375,5.25586 0,2.779397 1.944855,3.68164 3.939454,3.68164 1.572298,0 2.923688,-0.48161 3.804687,-1.599609 h 0.05664 l 0.158203,1.388672 h 3.769531 c -0.0795,-0.988199 -0.160156,-4.162954 -0.160156,-4.564453 v -3.59961 c 0,-3.576096 -2.128497,-4.644531 -5.371093,-4.644531 z m 34.94727,0.257813 v 7.949218 c 0,2.624998 0.68387,4.867188 3.54687,4.867188 1.524,0 2.70513,-0.641892 3.70313,-2.025391 h 0.0547 l 0.10352,1.759766 h 3.99609 V 66.710938 h -4.20312 v 7.103515 c 0,1.173499 -0.28908,2.322266 -1.58008,2.322266 -1.364,0 -1.41797,-1.148076 -1.41797,-2.296875 v -7.128906 z m -21.708989,3.021484 c 1.284799,0 1.916016,0.982146 1.916016,2.964844 0,2.056798 -0.631217,3.044922 -1.916016,3.044922 -1.309298,0 -1.96875,-0.988124 -1.96875,-3.044922 0,-1.976498 0.653352,-2.964844 1.96875,-2.964844 z m -12.033203,3.785156 v 1.007813 c 0,1.210598 -0.655139,1.982421 -1.835937,1.982421 -0.7281,0 -1.259766,-0.401038 -1.259766,-1.148437 0,-1.463799 1.994404,-0.958498 3.095703,-1.841797 z"
         transform="matrix(1.2427538,0,0,1.2427538,-1.3136599e-7,75.811624)"
         clip-path="url(#clipPath271)" /></g></g></svg>
