<svg width="49" height="58" viewBox="0 0 49 58" fill="none" xmlns="http://www.w3.org/2000/svg">
<path d="M0.170849 22.0563C1.79766 5.06479 15.8614 0 24.1663 0C42.297 0 48.5691 13.4789 48.9758 22.4648C49.3825 31.4507 44.5925 38.5271 39.6217 43.2958C35.7898 46.9718 28.0624 54.3239 24.5737 58C23.7601 57.1012 22.6414 55.9113 21.351 54.5873C13.4624 46.4932 2.71518 39.817 0.429784 28.696C-0.0060305 26.5753 -0.142836 24.3403 0.170849 22.0563Z" fill="white"/>
<path d="M1.69206 22.4267C3.22331 6.34133 16.4609 1.54667 24.278 1.54667C41.3438 1.54667 47.2474 14.3067 47.6302 22.8133C48.0131 31.32 43.5044 38.019 38.8256 42.5333C35.2188 46.0133 27.9453 52.9733 24.6615 56.4533C24.0434 55.7666 23.2381 54.9002 22.3118 53.9325C14.484 45.7548 3.52375 39.0034 1.76536 27.768C1.49578 26.0454 1.44272 24.2526 1.69206 22.4267Z" fill="#59CBE8"/>
<path d="M15.4618 28.843L15.3125 28.1908H18.5211L18.6704 28.5904C19.3329 30.3698 22.1165 31.3877 25.015 31.3877C27.6684 31.3877 30.6588 30.5508 30.6588 28.5527C30.6588 27.6102 30.5095 27.1013 28.2964 26.811L21.2512 25.9363C16.8632 25.3935 15.9749 23.9043 15.9749 21.7592C15.9749 18.0571 19.9953 16.24 24.3143 16.24C28.5261 16.24 32.4661 17.9101 33.4616 21.5443L33.6071 22.0872H30.3984L30.2874 21.616C29.8471 19.7988 27.1553 18.8903 24.276 18.8903C21.2894 18.8903 18.9653 19.8365 18.9653 21.6537C18.9653 22.2682 19.038 22.9241 21.2894 23.2144L28.2275 24.0853C33.2051 24.7036 33.6875 26.4113 33.6875 28.3717C33.6875 32.5187 29.0392 34.0267 24.835 34.0267C20.4433 34.0267 16.2735 32.3566 15.4656 28.8317L15.4618 28.843Z" fill="white"/>
</svg>
