<?xml version="1.0" encoding="UTF-8" standalone="no"?>
<!-- Created with Inkscape (http://www.inkscape.org/) -->

<svg
   width="50"
   height="50"
   viewBox="0 0 13.229166 13.229167"
   version="1.1"
   id="svg8385"
   xmlns="http://www.w3.org/2000/svg"
   xmlns:svg="http://www.w3.org/2000/svg">
  <defs
     id="defs8382" />
  <g
     id="layer1">
    <rect
       style="fill:#ffffff;fill-opacity:1;fill-rule:evenodd;stroke:none;stroke-width:0.0233142;stroke-linecap:round;stroke-dasharray:none;stroke-opacity:1;paint-order:fill markers stroke"
       id="rect7673-0-7"
       width="13.229166"
       height="13.20586"
       x="2.9042847e-05"
       y="0.0058372691"
       rx="3.1717439"
       ry="2.9148738" />
    <path
       id="path8348"
       style="display:inline;fill:#ffb919;fill-opacity:1;fill-rule:evenodd;stroke:none;stroke-width:0.0264349;stroke-linecap:round;stroke-dasharray:none;stroke-opacity:1;paint-order:fill markers stroke"
       d="m 10.63957,0.0552825 c -0.03255,-0.00551 -0.06496,-0.011376 -0.09785,-0.015969 -0.05261,-0.00735 -0.105617,-0.013513 -0.159058,-0.018471 -0.05344,-0.00496 -0.107312,-0.00873 -0.161521,-0.011237 -0.05421,-0.00251 -0.108797,-0.00378 -0.163708,-0.00378 H 3.171757 c -0.05491,0 -0.109454,0.00127 -0.163663,0.00378 -0.05421,0.00251 -0.108078,0.00628 -0.16152,0.011237 -0.05344,0.00496 -0.106496,0.011124 -0.159105,0.018471 -0.05261,0.00735 -0.10475,0.015848 -0.156461,0.025523 -0.05171,0.00968 -0.10298,0.020494 -0.153727,0.032438 -0.05075,0.011944 -0.101001,0.025019 -0.150719,0.039172 -0.04972,0.014152 -0.0989,0.029422 -0.147529,0.045723 -0.04862,0.016301 -0.09669,0.033658 -0.144156,0.052047 -0.04746,0.018389 -0.09432,0.037772 -0.140556,0.058189 -0.04624,0.020417 -0.09187,0.041855 -0.136818,0.06424 -0.04495,0.022385 -0.08921,0.045725 -0.132808,0.070018 -0.04359,0.024292 -0.08649,0.049519 -0.12866,0.075659 -0.04217,0.02614 -0.0836,0.053191 -0.124285,0.081118 -0.04068,0.027927 -0.08064,0.056741 -0.119773,0.086396 -0.03913,0.029655 -0.07747,0.060169 -0.114988,0.091491 -0.03751,0.031322 -0.07419,0.063476 -0.11002,0.096405 C 0.891139,0.8906615 0.856179,0.9243475 0.8221,0.9588235 0.78802,0.9932995 0.75483,1.0285465 0.72256,1.0645094 0.69029,1.1004724 0.65893,1.1371734 0.62854,1.1745629 0.59815,1.2119519 0.5687,1.2500459 0.54026,1.2888019 0.51182,1.3275579 0.48438,1.3669819 0.45795,1.4070446 0.43152,1.4471066 0.4061,1.4878006 0.38175,1.5291089 0.35739,1.5704169 0.3341,1.6123179 0.31188,1.6548128 0.28966,1.6973078 0.26854,1.7403998 0.24853,1.7840199 0.22852,1.8276409 0.20962,1.8717709 0.19188,1.9164572 c -0.01774,0.044686 -0.03432,0.08993 -0.04972,0.1356219 -0.007,0.020701 -0.01284,0.041839 -0.01932,0.062738 l 4.480505,0.624016 C 6.583397,1.6315074 8.148079,2.2219344 9.5415221,3.5124362 L 13.229193,4.0693006 V 2.9207225 c 0,-0.050464 -0.0014,-0.1006347 -0.0041,-0.1504535 -0.0027,-0.049819 -0.0068,-0.099292 -0.01221,-0.1484061 -0.0027,-0.024374 -0.0067,-0.048376 -0.01,-0.072565 -0.03976,-0.234667 -0.09715,-0.4474859 -0.169086,-0.6411219 -0.01676,-0.04183 -0.03434,-0.083265 -0.0531,-0.1241571 -0.02001,-0.043621 -0.04114,-0.086712 -0.06335,-0.1292071 -0.02221,-0.042495 -0.04551,-0.084395 -0.06987,-0.1257039 -0.02436,-0.041308 -0.04977,-0.082002 -0.0762,-0.1220643 -0.02643,-0.040062 -0.05391,-0.079487 -0.08236,-0.1182427 -0.02844,-0.038756 -0.05785,-0.07685 -0.08823,-0.114239 -0.03039,-0.037389 -0.06175,-0.074091 -0.09402,-0.1100535 -0.03227,-0.035963 -0.06546,-0.07121 -0.09954,-0.1056859 -0.03408,-0.034476 -0.06904,-0.068162 -0.10487,-0.101091 -0.03583,-0.032929 -0.07255,-0.065083 -0.110065,-0.096405 -0.03752,-0.031322 -0.07581,-0.061837 -0.114942,-0.091491 -0.03913,-0.029655 -0.07909,-0.058469 -0.119774,-0.086396 -0.04068,-0.027927 -0.08211,-0.054979 -0.124285,-0.081118 -0.04217,-0.02614 -0.08507,-0.051367 -0.12866,-0.075659 -0.04359,-0.024292 -0.0879,-0.047633 -0.132853,-0.070018 -0.01636,-0.00815 -0.03324,-0.015497 -0.04977,-0.023385 C 11.233381,0.205762 10.932869,0.118121 10.639562,0.0552823 Z" />
    <path
       style="fill:#82d714;fill-opacity:1;fill-rule:evenodd;stroke:none;stroke-width:0.0264349;stroke-linecap:round;stroke-dasharray:none;stroke-opacity:1;paint-order:fill markers stroke"
       d="m 13.211255,9.9823208 c 0.09489,1.9652652 -1.267673,3.0756752 -3.00184,3.2293802 l -7.293312,0.01164 C 1.60791,13.032944 1.01931,12.539785 0.595234,12.001237 Z"
       id="path7009" />
    <path
       style="fill:#0075ff;fill-opacity:1;fill-rule:evenodd;stroke:none;stroke-width:0.0264349;stroke-linecap:round;stroke-dasharray:none;stroke-opacity:1;paint-order:fill markers stroke"
       d="m 6.365353,10.49238 0.48047,-0.09773 C 7.098959,7.1323887 8.537794,8.0347064 9.2428347,7.5250958 10.450905,5.0138077 9.1861347,2.716561 6.614531,2.7251552 4.433787,2.7291552 2.651915,4.8611471 3.98322,7.5247066 5.898613,7.739249 6.339023,8.6558203 6.365353,10.49236 Z"
       id="path7062" />
    <path
       style="fill:#19aa1e;fill-opacity:1;fill-rule:evenodd;stroke:none;stroke-width:0.0264349;stroke-linecap:round;stroke-dasharray:none;stroke-opacity:1;paint-order:fill markers stroke"
       d="M 13.229195,9.3721167 7.403319,10.313765 C 7.458719,8.1442728 8.526464,8.0656011 9.6110933,8.0812641 10.635594,5.7791472 10.209725,5.1058948 9.8874453,4.069284 l 3.3417497,0.5230182 z"
       id="path7278" />
    <path
       id="path8308"
       style="fill:#19aa1e;fill-opacity:1;fill-rule:evenodd;stroke:none;stroke-width:0.0264349;stroke-linecap:round;stroke-dasharray:none;stroke-opacity:1;paint-order:fill markers stroke"
       d="m 0.005063,2.7590316 c -2.2e-4,0.00377 -7.05e-4,0.00747 -9.12e-4,0.011237 -0.0051,2.4772831 -0.0041,5.014109 -0.0041,7.5265404 0,0.05046 0.0014,0.100635 0.0041,0.150453 0.0027,0.04982 0.0068,0.09929 0.01221,0.148407 0.0054,0.04911 0.0121,0.09787 0.0201,0.146222 0.008,0.04835 0.01727,0.09629 0.0278,0.143811 0.01053,0.04752 0.02228,0.09462 0.03528,0.141263 8.56e-4,0.0031 -8.6e-4,-0.0031 0,0 0.06805,0.194187 0.08069,0.29169 0.240367,0.575882 C 2.276032,11.286056 3.913969,11.015355 5.824036,10.650809 5.936856,8.5255903 4.86093,8.0990462 3.575522,8.2208518 2.723562,6.4610485 2.628763,4.7019117 3.982924,3.3181252 Z" />
  </g>
</svg>
