<?xml version="1.0" encoding="UTF-8" standalone="no"?>
<svg
   width="24"
   height="24"
   viewBox="0 0 24 24"
   fill="none"
   version="1.1"
   id="svg4"
   xmlns="http://www.w3.org/2000/svg"
   xmlns:svg="http://www.w3.org/2000/svg">
  <defs
     id="defs8" />
  <path
     id="path2"
     style="color:#000000;fill:#000000;stroke-width:0.908975;stroke-linecap:round;stroke-linejoin:round;-inkscape-stroke:none"
     d="M 8.0569689,2.0011174 C 7.1211997,2.0086602 6.4559841,2.0648449 5.8040613,2.3970184 5.1200233,2.7455507 4.5636635,3.3019104 4.2151312,3.9859486 3.7722331,4.8551789 3.8192302,5.7466602 3.8192302,7.2738798 v 9.4519152 c 0,1.527255 -0.046945,2.418707 0.395901,3.287931 0.3485396,0.684064 0.9049028,1.240428 1.5889301,1.58893 0.8692372,0.442928 1.7607116,0.395901 3.2879312,0.395901 h 5.8160165 c 1.527256,0 2.418701,0.04698 3.287931,-0.395901 0.684054,-0.348509 1.240421,-0.904876 1.58893,-1.58893 0.442878,-0.869231 0.395901,-1.760676 0.395901,-3.287931 v -6.554559 c 0,-0.6669768 0.0083,-1.0708148 -0.101194,-1.5267929 C 20.044854,8.4998361 19.962902,8.3732307 19.91092,8.2343393 A 0.90897454,0.90897454 0 0 0 19.742262,7.8313369 C 19.702612,7.7549352 19.689698,7.6669956 19.644618,7.5934412 19.399639,7.1936145 19.107911,6.9146705 18.636225,6.4430203 L 15.738868,3.545664 C 15.267223,3.074055 14.988228,2.7822893 14.588447,2.5372704 14.514909,2.4922183 14.42694,2.479263 14.350552,2.4396266 A 0.90897454,0.90897454 0 0 0 13.947549,2.2709692 C 13.808664,2.2189877 13.682074,2.137035 13.537446,2.1023118 13.08147,1.9928537 12.677566,2.0011174 12.010653,2.0011174 H 9.0919925 c -0.3818048,0 -0.7231006,-0.00251 -1.0350236,0 z m 1.0350236,1.8179491 h 2.9186605 c 0.543419,0 0.72199,0.016313 0.898322,0.040833 v 3.0500356 c 0,0.5090703 -0.04594,0.8901994 0.198838,1.3705632 0.174156,0.3417013 0.451482,0.619294 0.793578,0.7935774 0.480332,0.2447473 0.861448,0.1988382 1.370562,0.1988382 h 3.050036 c 0.02452,0.1762951 0.04083,0.3548507 0.04083,0.8983221 v 6.554559 c 0,1.527255 -0.04725,2.16487 -0.198838,2.462397 -0.174331,0.342177 -0.4514,0.619246 -0.793577,0.793578 -0.297528,0.151591 -0.935142,0.198838 -2.462398,0.198838 H 9.0919925 c -1.5272196,0 -2.1650048,-0.0473 -2.4623977,-0.198838 C 6.2874102,19.807431 6.0103552,19.530358 5.8360174,19.188192 5.684432,18.890658 5.6371792,18.25305 5.6371792,16.725795 V 7.2738798 c 0,-1.5272196 0.047305,-2.1649982 0.1988382,-2.4623978 C 6.0103625,4.469308 6.2874208,4.1922498 6.6295948,4.0179046 6.9269944,3.866371 7.5647729,3.8190665 9.0919925,3.8190665 Z m 5.6349315,1.2853468 2.350552,2.3505513 h -1.805523 c -0.307299,0 -0.462309,-0.01454 -0.527276,-0.017753 -0.0032,-0.064977 -0.01775,-0.2200031 -0.01775,-0.5272763 z M 8.3641028,11.999837 a 0.90897454,0.90897454 0 0 0 -0.9089745,0.908975 0.90897454,0.90897454 0 0 0 0.9089745,0.908974 h 7.2717962 a 0.90897454,0.90897454 0 0 0 0.908974,-0.908974 0.90897454,0.90897454 0 0 0 -0.908974,-0.908975 z m 0,3.635898 A 0.90897454,0.90897454 0 0 0 7.4551283,16.54471 0.90897454,0.90897454 0 0 0 8.3641028,17.453684 H 13.81795 A 0.90897454,0.90897454 0 0 0 14.726924,16.54471 0.90897454,0.90897454 0 0 0 13.81795,15.635735 Z" />
</svg>
