<?xml version="1.0" encoding="UTF-8" standalone="no"?>
<svg
   width="24"
   height="24"
   viewBox="0 0 24 24"
   fill="none"
   version="1.1"
   id="svg194"
   xmlns="http://www.w3.org/2000/svg">
  <defs
     id="defs198" />
  <path
     id="path1301"
     style="fill:#000000;fill-opacity:1;stroke-width:1.42857"
     d="m 7.3632812,2 c -0.431241,0 -0.78125,0.3500088 -0.78125,0.78125 V 6.796875 L 5.515625,11.205078 c -0.00365,0.01505 -0.00586,0.02943 -0.00586,0.04492 v 8.621094 c 0,0.215571 -0.1750044,0.390625 -0.390625,0.390625 h -0.390625 c -0.3234316,0 -0.5859375,0.262511 -0.5859375,0.585937 v 0.566406 C 4.1425781,21.73749 4.4050854,22 4.7285156,22 H 19.271484 c 0.323428,0 0.585966,-0.26251 0.585938,-0.585938 v -0.566406 c 0,-0.323426 -0.26251,-0.585937 -0.585938,-0.585937 h -0.292968 c -0.215571,0 -0.390625,-0.175054 -0.390625,-0.390625 V 11.25 c 0,-0.01548 -0.0023,-0.02986 -0.0059,-0.04492 L 17.513672,6.796875 V 2.78125 C 17.513672,2.3500088 17.165603,2 16.734375,2 Z m 0.5859376,0.9550781 h 8.1992192 c 0.02421,5.887e-4 0.04738,0.00314 0.07031,0.00781 0.158608,0.029187 0.283312,0.1538885 0.3125,0.3125 0.0053,0.026086 0.0078,0.052378 0.0078,0.080078 v 2.2597656 c 0,0.0277 -0.0025,0.053992 -0.0078,0.080078 -0.02925,0.158528 -0.153953,0.2813723 -0.3125,0.3105469 -0.02294,0.00467 -0.04611,0.00722 -0.07031,0.00781 H 7.9589844 c -0.00335,0 -0.00644,8.09e-5 -0.00977,0 -0.024285,0 -0.047255,-0.00357 -0.070313,-0.00781 -0.1585559,-0.029175 -0.28325,-0.1520189 -0.3125,-0.3105469 -0.0048,-0.023565 -0.00733,-0.047363 -0.00781,-0.072266 v -0.00781 -2.2597656 c 0,-0.00335 -8.09e-5,-0.00644 0,-0.00977 0,-0.024284 0.00357,-0.047256 0.00781,-0.070312 0.029188,-0.1586115 0.1538835,-0.2833128 0.3125,-0.3125 0.023058,-0.00424 0.046028,-0.00781 0.070313,-0.00781 z m -0.2597657,4.796875 h 8.7304689 c 0.183656,0 0.341845,0.1271841 0.380859,0.3066407 l 0.416016,1.9140624 c 0.05291,0.2433428 -0.131819,0.4726568 -0.380859,0.4726558 H 7.34375 C 7.1002652,10.445313 6.9155702,10.22396 6.9589844,9.984375 L 7.3066406,8.0722656 C 7.3402977,7.8865235 7.5006824,7.7519531 7.6894531,7.7519531 Z m 1.6464844,0.9550781 c -0.1826423,0 -0.3408166,0.1264881 -0.3808594,0.3046876 l -0.019531,0.087891 c -0.054843,0.2440707 0.130703,0.4765625 0.3808593,0.4765625 h 0.1386719 c 0.1987423,0 0.3664862,-0.1481894 0.3886719,-0.3457031 l 0.00977,-0.087891 C 9.8795169,8.91115 9.6977288,8.7070312 9.4648438,8.7070312 Z m 1.6953125,0 c -0.198757,0 -0.366472,0.1501426 -0.388672,0.3476563 l -0.0098,0.087891 c -0.026,0.2314137 0.155788,0.4335938 0.388672,0.4335938 h 0.246094 c 0.215614,0 0.390625,-0.1750114 0.390625,-0.390625 v -0.087891 c 0,-0.2156136 -0.175011,-0.3906249 -0.390625,-0.390625 z m 1.798828,0 c -0.215628,1e-7 -0.390625,0.1750114 -0.390625,0.390625 v 0.087891 c 0,0.2156136 0.174997,0.390625 0.390625,0.390625 h 0.246094 c 0.232886,0 0.414672,-0.2021801 0.388672,-0.4335938 l -0.0098,-0.087891 C 13.432892,8.8571738 13.265149,8.7070312 13.066406,8.7070312 Z m 1.802734,0 c -0.232884,0 -0.414671,0.2041191 -0.388671,0.4355469 l 0.0098,0.087891 c 0.0222,0.1975137 0.189915,0.3457031 0.388672,0.3457031 h 0.138672 c 0.250142,0 0.435699,-0.2324918 0.380859,-0.4765625 l -0.01953,-0.087891 C 15.102535,8.8335193 14.944361,8.7070312 14.761719,8.7070312 Z m -1.509765,4.5175778 h 3.708984 c 0.215614,0 0.390625,0.175013 0.390625,0.390625 v 1.044922 c 0,0.215614 -0.175011,0.388672 -0.390625,0.388672 h -3.708984 c -0.215614,0 -0.390625,-0.173058 -0.390625,-0.388672 v -1.044922 c 0,-0.215612 0.175011,-0.390625 0.390625,-0.390625 z m -6.0527345,0.435547 h 3.0273435 c 0.107814,0 0.19336,0.0875 0.19336,0.195313 v 0.478515 c 0,0.1078 -0.08555,0.195313 -0.19336,0.195313 H 7.0703125 C 6.9624986,14.529297 6.875,14.441784 6.875,14.333984 v -0.478515 c 0,-0.107814 0.087499,-0.195313 0.1953125,-0.195313 z m 6.5410155,0 c -0.215628,0 -0.390625,0.174997 -0.390625,0.390625 v 0.08789 c 0,0.215628 0.174997,0.390625 0.390625,0.390625 h 2.732422 c 0.215629,0 0.390625,-0.174997 0.390625,-0.390625 v -0.08789 c 0,-0.215628 -0.174996,-0.390625 -0.390625,-0.390625 z" />
</svg>
