<?xml version="1.0" encoding="UTF-8" standalone="no"?>
<svg
   width="24"
   height="24"
   viewBox="0 0 24 24"
   fill="none"
   version="1.1"
   id="svg184"
   xmlns="http://www.w3.org/2000/svg">
  <defs
     id="defs188" />
  <path
     id="path1702"
     style="fill:#000000;fill-opacity:1;stroke-width:1.11111"
     d="m 10.160156,6.4453125 c -0.5892534,0 -1.0563373,0.6189244 -0.9785154,1.3085937 l 0.8222654,8.0429688 h 4.003906 L 14.806641,7.7539062 C 14.873307,7.0642369 14.417456,6.4453125 13.828125,6.4453125 Z M 7.3027344,8.2050781 C 7.1505537,8.2003301 6.9949725,8.2384999 6.8476562,8.3261719 L 5.078125,9.3789062 C 4.566693,9.6828276 4.3775463,10.442878 4.6777344,11.027344 l 2.3242187,4.769531 H 9.0039062 L 8.2578125,9.2148438 C 8.182771,8.618687 7.7592764,8.2193223 7.3027344,8.2050781 Z m 9.3906246,0.00586 c -0.458129,0.00931 -0.878041,0.4077495 -0.953125,1.0039063 l -0.732422,6.5820312 h 2 l 2.314454,-4.757813 C 19.622487,10.454597 19.433317,9.6945575 18.921875,9.390625 L 17.152344,8.3378906 C 17.002233,8.2472964 16.846069,8.2078332 16.693359,8.2109375 Z m 3.339844,4.9863285 c -0.177778,0 -0.352257,0.04811 -0.507812,0.138672 -0.155555,0.09054 -0.288373,0.220462 -0.382813,0.378906 -0.711554,1.39104 -1.066406,2.082031 -1.066406,2.082031 l 2.023437,1.566406 c 0.126222,0.09118 0.270876,0.151415 0.421875,0.177735 0.15111,0.02634 0.305682,0.01813 0.453125,-0.02539 0.147444,-0.04349 0.282439,-0.121463 0.398438,-0.226563 0.116,-0.105099 0.208814,-0.235924 0.271484,-0.382812 l 0.244141,-0.548828 c 0.166775,-0.374066 0.144926,-0.819234 -0.06641,-1.169922 l -0.900391,-1.472656 c -0.09433,-0.158444 -0.225304,-0.288367 -0.380859,-0.378906 -0.155555,-0.09056 -0.329925,-0.138672 -0.507813,-0.138672 z m -16.0664061,0.01172 c -0.1778217,0 -0.3522351,0.04811 -0.5078125,0.138672 C 3.303407,13.4382 3.1725329,13.568118 3.078125,13.726562 l -0.9003906,1.472657 c -0.2112448,0.350687 -0.2331787,0.795867 -0.066406,1.169922 l 0.2539063,0.548828 c 0.06464,0.145077 0.1588287,0.273776 0.2753906,0.376953 0.116563,0.103178 0.2534121,0.178456 0.4003906,0.220703 0.1469741,0.04226 0.3008946,0.0499 0.4511719,0.02344 0.1502773,-0.02648 0.2940778,-0.08546 0.4199219,-0.175781 l 2.0234375,-1.566406 c 0,0 -0.355438,-0.690961 -1.078125,-2.070313 -0.0944,-0.158444 -0.2272352,-0.288366 -0.3828125,-0.378906 -0.1555885,-0.09056 -0.3299797,-0.138672 -0.5078125,-0.138672 z" />
</svg>
