<?xml version="1.0" encoding="UTF-8" standalone="no"?>
<!-- Created with Inkscape (http://www.inkscape.org/) -->

<svg
   width="24mm"
   height="24mm"
   viewBox="0 0 24 24"
   version="1.1"
   id="svg637"
   xmlns="http://www.w3.org/2000/svg"
   xmlns:svg="http://www.w3.org/2000/svg">
  <defs
     id="defs634" />
  <g
     id="layer1">
    <g
       id="Black-L"
       transform="matrix(0.17401897,0,0,0.17401897,0.57147816,0.54815962)">
      <path
         id="path825"
         d="m 10.946258,14.228019 c -1.5109989,0 -2.7379588,1.22399 -2.7379588,2.734989 v 20.255547 c 0,1.510998 1.2259599,2.737958 2.7379588,2.737958 1.510998,0 2.734988,-1.22696 2.734988,-2.737958 V 19.700966 h 17.50868 c 1.510999,0 2.737959,-1.22696 2.737959,-2.737958 0,-1.511999 -1.22696,-2.734989 -2.737959,-2.734989 z m 89.212302,0 c -1.511994,0 -2.737954,1.22299 -2.737954,2.734989 0,1.510998 1.22596,2.737958 2.737954,2.737958 h 17.50868 v 17.517589 c 0,1.510998 1.22399,2.737958 2.73499,2.737958 1.511,0 2.73796,-1.22696 2.73796,-2.737958 V 16.963008 c 0,-1.510999 -1.22696,-2.734989 -2.73796,-2.734989 z M 28.457907,38.311363 c -0.546999,0 -0.909808,0.272606 -1.092808,0.819605 h -0.273201 c -0.365,0.547 -0.549374,1.095182 -0.549374,1.642182 v 49.529727 c 0,0.547999 0.184374,1.095182 0.549374,1.642181 0,0.183 0.0912,0.364404 0.273201,0.546404 0.365,0.365 0.727808,0.546404 1.092808,0.546404 h 1.915383 c 0.365,-0.183 0.730778,-0.545809 1.095777,-1.092808 0.365,-0.546999 0.546404,-1.186384 0.546404,-1.915383 V 41.046351 c 0,-0.728999 -0.181404,-1.368383 -0.546404,-1.915383 -0.364999,-0.364999 -0.821979,-0.637606 -1.368979,-0.819605 z m 12.314874,0 c -1.823998,0 -2.737959,0.819788 -2.737959,2.461787 v 49.802929 c 0,1.641998 0.913961,2.461787 2.737959,2.461787 h 5.199745 c 2.006998,0 3.008191,-0.819789 3.008191,-2.461787 V 40.77315 c 0,-1.641999 -1.001193,-2.461787 -3.008191,-2.461787 z m 15.599236,0 c -0.548,0 -0.913778,0.272606 -1.095777,0.819605 h -0.273202 c -0.318,0.477 -0.503374,1.025182 -0.549374,1.642182 v 49.256525 c 0.023,0.763999 0.207374,1.402384 0.549374,1.915383 0,0.183 0.0912,0.364404 0.273202,0.546404 0.364999,0.365 0.730777,0.546404 1.095777,0.546404 H 58.2874 c 0.365,-0.183 0.727808,-0.545809 1.092808,-1.092808 0.363999,-0.546999 0.546404,-1.186384 0.546404,-1.915383 V 41.046351 c 0,-0.728999 -0.182405,-1.368383 -0.546404,-1.915383 -0.365,-0.364999 -0.82098,-0.637606 -1.36898,-0.819605 z m 12.311904,0 c -1.823998,0 -2.734989,0.819788 -2.734989,2.461787 v 49.802929 c 0,1.641998 0.910991,2.461787 2.734989,2.461787 h 5.199745 c 2.005998,0 3.011161,-0.819789 3.011161,-2.461787 V 40.77315 c 0,-1.641999 -1.005163,-2.461787 -3.011161,-2.461787 z m 15.599236,0 c -0.546999,0 -0.913777,0.272606 -1.095777,0.819605 h -0.273202 c -0.365,0.547 -0.546404,1.095182 -0.546404,1.642182 v 49.529727 c 0,0.547999 0.181404,1.095182 0.546404,1.642181 0,0.183 0.0902,0.364404 0.273202,0.546404 0.363999,0.365 0.730778,0.546404 1.095777,0.546404 h 1.915383 c 0.364,-0.183 0.727808,-0.545809 1.092808,-1.092808 0.365,-0.546999 0.546404,-1.186384 0.546404,-1.915383 V 41.046351 c 0,-0.728999 -0.181404,-1.368383 -0.546404,-1.915383 -0.365,-0.364999 -0.81901,-0.637606 -1.36601,-0.819605 z m 12.311904,0 c -1.823998,0 -2.734989,0.819788 -2.734989,2.461787 v 49.802929 c 0,1.641998 0.910991,2.461787 2.734989,2.461787 h 5.199749 c 2.00699,0 3.01116,-0.819789 3.01116,-2.461787 V 40.77315 c 0,-1.641999 -1.00417,-2.461787 -3.01116,-2.461787 z M 10.946258,91.668887 c -1.5119989,0 -2.7379588,1.226959 -2.7379588,2.737958 v 20.246635 c 0,1.511 1.2269599,2.73499 2.7379588,2.73499 h 20.243668 c 1.510999,0 2.737959,-1.22299 2.737959,-2.73499 0,-1.511 -1.22696,-2.73796 -2.737959,-2.73796 H 13.681246 V 94.406845 c 0,-1.510999 -1.22399,-2.737958 -2.734988,-2.737958 z m 109.455972,0 c -1.511,0 -2.73499,1.226959 -2.73499,2.737958 v 17.508675 h -17.50868 c -1.511994,0 -2.737954,1.22696 -2.737954,2.73796 0,1.512 1.22596,2.73499 2.737954,2.73499 h 20.24367 c 1.511,0 2.73796,-1.22399 2.73796,-2.73499 V 94.406845 c 0,-1.510999 -1.22696,-2.737958 -2.73796,-2.737958 z" />
    </g>
  </g>
</svg>
