<?xml version="1.0" encoding="UTF-8" standalone="no"?>
<svg
   width="24"
   height="24"
   viewBox="0 0 24 24"
   fill="none"
   version="1.1"
   id="svg4"
   xmlns="http://www.w3.org/2000/svg"
   xmlns:svg="http://www.w3.org/2000/svg">
  <defs
     id="defs8" />
  <path
     id="path2"
     style="color:#000000;fill:#000000;stroke-width:0.621472;stroke-linecap:round;-inkscape-stroke:none;fill-opacity:1"
     d="m 5.6887788,2.0000008 c -1.9850135,0 -3.6280873,1.577858 -3.6280873,3.5334099 V 7.3298541 A 0.65936658,0.65936658 0 0 0 2.719792,7.9889546 0.65936658,0.65936658 0 0 0 3.3788926,7.3298541 V 5.5334107 c 0,-1.2191616 1.0146355,-2.2152089 2.3098862,-2.2152089 H 7.9161259 A 0.65936658,0.65936658 0 0 0 8.5764402,2.6591013 0.65936658,0.65936658 0 0 0 7.9161259,2.0000008 Z m 10.3938812,0 a 0.65936658,0.65936658 0 0 0 -0.6591,0.6591005 0.65936658,0.65936658 0 0 0 0.659101,0.6591005 h 2.227346 c 1.295243,0 2.3111,0.9960439 2.3111,2.2152089 v 1.7964434 a 0.65936658,0.65936658 0 0 0 0.6591,0.6591005 0.65936658,0.65936658 0 0 0 0.659101,-0.6591005 V 5.5334107 c 0,-1.9555484 -1.644292,-3.5334099 -3.629301,-3.5334099 z M 6.8030593,7.0300423 A 0.65936658,0.65936658 0 0 0 6.1439588,7.6891428 v 9.3402922 a 0.65936658,0.65936658 0 0 0 0.6591005,0.660314 0.65936658,0.65936658 0 0 0 0.6591005,-0.660314 V 7.6891428 A 0.65936658,0.65936658 0 0 0 6.8030593,7.0300423 Z m 2.5987738,0 A 0.65936658,0.65936658 0 0 0 8.7415188,7.6891428 V 8.0484315 A 0.65936658,0.65936658 0 0 0 9.4018331,8.7075321 0.65936658,0.65936658 0 0 0 10.060934,8.0484315 V 7.6891428 A 0.65936658,0.65936658 0 0 0 9.4018331,7.0300423 Z m 2.5975609,0 a 0.65936658,0.65936658 0 0 0 -0.659101,0.6591005 v 9.3402922 a 0.65936658,0.65936658 0 0 0 0.659101,0.660314 0.65936658,0.65936658 0 0 0 0.660314,-0.660314 V 7.6891428 A 0.65936658,0.65936658 0 0 0 11.999394,7.0300423 Z m 2.598773,0 a 0.65936658,0.65936658 0 0 0 -0.659101,0.6591005 v 6.8252712 a 0.65936658,0.65936658 0 0 0 0.659101,0.660314 0.65936658,0.65936658 0 0 0 0.6591,-0.660314 V 7.6891428 a 0.65936658,0.65936658 0 0 0 -0.6591,-0.6591005 z m 2.598773,0 a 0.65936658,0.65936658 0 0 0 -0.659099,0.6591005 v 9.3402922 a 0.65936658,0.65936658 0 0 0 0.659099,0.660314 0.65936658,0.65936658 0 0 0 0.659101,-0.660314 V 7.6891428 A 0.65936658,0.65936658 0 0 0 17.19694,7.0300423 Z M 9.4018331,9.1845606 A 0.65936658,0.65936658 0 0 0 8.7415188,9.8448749 v 7.1845601 a 0.65936658,0.65936658 0 0 0 0.6603143,0.660314 0.65936658,0.65936658 0 0 0 0.6591009,-0.660314 V 9.8448749 A 0.65936658,0.65936658 0 0 0 9.4018331,9.1845606 Z m 5.1963339,6.4671964 a 0.65936658,0.65936658 0 0 0 -0.6591,0.6591 v 0.718578 a 0.65936658,0.65936658 0 0 0 0.6591,0.660314 0.65936658,0.65936658 0 0 0 0.659101,-0.660314 v -0.718578 a 0.65936658,0.65936658 0 0 0 -0.659101,-0.6591 z M 2.719792,16.011045 a 0.65936658,0.65936658 0 0 0 -0.6591005,0.659101 v 1.796443 c 0,1.955557 1.6430872,3.53341 3.6280873,3.53341 h 2.2273471 a 0.65936658,0.65936658 0 0 0 0.6603143,-0.6591 0.65936658,0.65936658 0 0 0 -0.6603143,-0.659101 H 5.6887788 c -1.295264,0 -2.3098863,-0.996039 -2.3098862,-2.215209 V 16.670146 A 0.65936658,0.65936658 0 0 0 2.719792,16.011045 Z m 18.560415,0 a 0.65936658,0.65936658 0 0 0 -0.6591,0.659101 v 1.796443 c 0,1.219173 -1.015844,2.215209 -2.3111,2.215209 h -2.227346 a 0.65936658,0.65936658 0 0 0 -0.659101,0.659101 0.65936658,0.65936658 0 0 0 0.659101,0.6591 h 2.227346 c 1.984996,0 3.629301,-1.577856 3.629301,-3.53341 v -1.796443 a 0.65936658,0.65936658 0 0 0 -0.659101,-0.659101 z" />
</svg>
