<?xml version="1.0" encoding="UTF-8" standalone="no"?>
<svg
   width="24"
   height="24"
   viewBox="0 0 24 24"
   fill="none"
   version="1.1"
   id="svg134"
   xmlns="http://www.w3.org/2000/svg"
   xmlns:svg="http://www.w3.org/2000/svg">
  <defs
     id="defs138" />
  <path
     d="M 9.7752946,21.265157 C 6.9630449,20.205856 4.001283,17.351827 5.1465378,13.170078 5.6701136,11.258281 7.1823462,9.8388493 8.5787115,8.4319542 10.241513,6.7566319 10.344521,5.9527957 10.649032,2.872727 10.662658,2.7348679 10.81792,2.6574465 10.93502,2.7314711 c 4.233971,2.6767841 3.335185,6.785038 2.37431,9.3251959 -0.148191,0.391806 0.224894,0.761416 0.579495,0.538418 2.09127,-1.315081 2.70023,-3.6441682 2.85166,-4.2232605 l 0.002,-0.00743 c 0.02701,-0.1032363 0.08097,-0.043573 0.146295,0.040824 4.856037,6.2763995 0.628313,10.6674025 -1.993476,12.4005955 -0.165175,0.10909 -0.381537,0.09708 -0.53281,-0.03049 -3.331939,-2.807897 -3.828459,-7.678388 -4.254897,-6.825497 -1.9432912,3.886551 -0.6994937,5.542172 0.09822,6.796271 0.204222,0.321107 -0.07442,0.653196 -0.4304977,0.519065 z"
     stroke="#ffffff"
     stroke-width="1.42188"
     id="path132"
     style="stroke:#000000;stroke-opacity:1" />
</svg>
