<?xml version="1.0" encoding="UTF-8" standalone="no"?>
<svg
   width="24"
   height="24"
   viewBox="0 0 24 24"
   fill="none"
   version="1.1"
   id="svg184"
   xmlns="http://www.w3.org/2000/svg">
  <defs
     id="defs188" />
  <path
     id="path1021"
     style="fill:#000000;fill-opacity:1;stroke-width:1.42857"
     d="M 15.708984,2 C 14.35089,2.0087082 13.026718,2.4591522 11.941406,3.2929688 10.70105,4.2458962 9.8636647,5.629381 9.59375,7.1699219 9.0600075,9.035863 8.5521091,10.022103 8.2871094,10.457031 l -2.3554688,2.353516 c -0.087629,0.0874 -0.1457219,0.198955 -0.1699218,0.320312 -0.024214,0.121371 -0.01223,0.247001 0.035156,0.361329 0.0474,0.114328 0.1274832,0.210639 0.2304688,0.279296 0.1029855,0.06864 0.2238849,0.105684 0.3476562,0.105469 h 0.4863281 l -2.5039062,2.503906 c -0.5036138,0.02872 -0.9875264,0.209293 -1.3867188,0.517579 -0.3991924,0.308427 -0.6946416,0.728984 -0.8496093,1.208984 -0.154967,0.479856 -0.1611067,0.997041 -0.017578,1.480469 0.143528,0.483571 0.430506,0.910659 0.8222656,1.228515 0.095,0.07743 0.1803126,0.164766 0.2578126,0.259766 0.318581,0.392285 0.7495897,0.679266 1.234375,0.822266 0.4847851,0.142999 0.9999121,0.13509 1.4804687,-0.02148 0.4805709,-0.156571 0.9035236,-0.454327 1.2109375,-0.855469 0.3074137,-0.401285 0.4855328,-0.887864 0.5117188,-1.392578 l 2.5039062,-2.5 v 0.498047 c 1.4e-5,0.123571 0.03687,0.244942 0.105469,0.347656 0.0686,0.102714 0.165211,0.183183 0.279297,0.230469 0.114086,0.04743 0.240157,0.05916 0.361328,0.03516 0.121172,-0.02386 0.232827,-0.08263 0.320312,-0.169922 l 2.339844,-2.339843 c 0.431243,-0.264957 1.442936,-0.789233 3.386719,-1.337891 0.294999,-0.05498 0.582613,-0.130333 0.861328,-0.226562 0.163714,-0.0425 0.32032,-0.0997 0.462891,-0.179688 1.116712,-0.485742 2.066804,-1.288199 2.734374,-2.30664 C 21.644133,10.661246 22.000286,9.471563 22,8.2539062 22.001,6.6899084 21.415945,5.1806568 20.359375,4.0273438 19.302804,2.8740236 17.851252,2.1593863 16.292969,2.0234375 16.09818,2.006444 15.902998,1.998756 15.708984,2 Z M 8.6289062,13.876953 H 10.125 v 1.484375 l -3.4804688,3.478516 c -0.086257,0.08714 -0.1548433,0.191258 -0.2011718,0.304687 -0.046329,0.113428 -0.069017,0.234994 -0.068359,0.357422 1.286e-4,0.258429 -0.079473,0.50956 -0.2285156,0.720703 -0.149057,0.211 -0.3599445,0.370746 -0.6035156,0.457032 -0.2435569,0.08643 -0.50907,0.09553 -0.7578126,0.02539 -0.2487283,-0.07 -0.468188,-0.215302 -0.6308593,-0.416016 C 4.0227395,20.127206 3.8747191,19.979085 3.7128906,19.847656 3.5121051,19.684942 3.3669449,19.463559 3.296875,19.214844 3.2268061,18.96613 3.2359177,18.702412 3.3222656,18.458984 3.4086155,18.215413 3.5681972,18.004612 3.7792969,17.855469 3.9903824,17.706469 4.241586,17.626953 4.5,17.626953 c 0.1188999,5.72e-4 0.2376278,-0.02322 0.3476562,-0.06836 0.1100285,-0.045 0.2085547,-0.111599 0.2929688,-0.195313 z" />
</svg>
