<?xml version="1.0" encoding="UTF-8" standalone="no"?>
<svg
   width="24"
   height="24"
   viewBox="0 0 24 24"
   fill="none"
   version="1.1"
   id="svg2031"
   xmlns="http://www.w3.org/2000/svg"
   xmlns:svg="http://www.w3.org/2000/svg">
  <defs
     id="defs2035" />
  <path
     id="path2029"
     style="color:#000000;fill:#000000;stroke-linecap:round;stroke-linejoin:round;-inkscape-stroke:none"
     d="m 12,1.6289062 c -0.22128,0 -0.44256,0.049242 -0.646484,0.1464844 -0.357923,0.1706999 -0.525629,0.4268768 -0.644532,0.6210938 -0.118902,0.1942169 -0.20704,0.3817133 -0.322265,0.6152344 L 8.2460938,7.3476562 3.4589844,8.046875 C 3.2014525,8.0845196 2.9967376,8.1108366 2.7753906,8.1640625 2.5540437,8.2172884 2.2570379,8.2981533 1.984375,8.5859375 a 1.0001,1.0001 0 0 0 0,0.00195 C 1.6737788,8.915742 1.5287697,9.3667635 1.5878906,9.8144531 c 0.051892,0.3930829 0.2426188,0.6336579 0.390625,0.8066409 0.1480063,0.172982 0.297932,0.3145 0.484375,0.496094 l 3.4628906,3.373046 -0.8164062,4.763672 c -0.04402,0.256649 -0.083585,0.458519 -0.1015625,0.685547 -0.017977,0.227028 -0.031188,0.534199 0.1582031,0.882813 0.2156171,0.397204 0.6010435,0.675496 1.0449219,0.757812 0.3899863,0.07231 0.6763607,-0.03383 0.8867187,-0.121094 0.2103582,-0.08727 0.3925448,-0.187392 0.6230469,-0.308593 L 12,18.900391 l 4.279297,2.25 c 0.2305,0.1212 0.412671,0.221323 0.623047,0.308593 0.210376,0.08727 0.496831,0.193355 0.886718,0.121094 0.443926,-0.08232 0.829411,-0.360911 1.044922,-0.757812 0.18927,-0.348559 0.176167,-0.655818 0.158204,-0.882813 -0.01796,-0.226994 -0.05561,-0.428892 -0.09961,-0.685547 l -0.818359,-4.763672 3.46289,-3.373046 c 0.18646,-0.18161 0.336379,-0.323105 0.484375,-0.496094 0.147997,-0.17299 0.338707,-0.413707 0.390625,-0.8066409 0.05895,-0.447285 -0.08576,-0.8985744 -0.396484,-1.2265625 a 1.0001,1.0001 0 0 0 0,-0.00195 C 21.742997,8.2982104 21.445959,8.2172898 21.224609,8.1640625 21.003261,8.1108352 20.798566,8.0845202 20.541016,8.046875 L 15.753906,7.3476562 13.613281,3.0117188 C 13.498044,2.7782749 13.409918,2.5907013 13.291016,2.3964844 13.1723,2.2025726 13.003353,1.9460288 12.646484,1.7753906 12.44256,1.6781482 12.22128,1.6289062 12,1.6289062 Z m 0,2.6308594 2.007812,4.0664063 c 0.068,0.1378582 0.128209,0.2974871 0.314454,0.4980469 a 1.0001,1.0001 0 0 0 0.002,0 c 0.131769,0.141569 0.28918,0.2580673 0.464843,0.3398437 0.247785,0.11511 0.420178,0.1242461 0.572266,0.1464844 l 4.490234,0.65625 -3.248046,3.1640621 c -0.109984,0.107189 -0.243386,0.215333 -0.376954,0.455079 -0.09455,0.169886 -0.154363,0.356166 -0.177734,0.548828 -0.03296,0.271935 0.01112,0.438117 0.03711,0.589843 l 0.765624,4.466797 -4.013671,-2.111328 v 0.002 c -0.136381,-0.07174 -0.280288,-0.166014 -0.548829,-0.21875 a 1.0001,1.0001 0 0 0 -0.002,0 c -0.190258,-0.03715 -0.38396,-0.03715 -0.574218,0 a 1.0001,1.0001 0 0 0 -0.002,0 c -0.268542,0.05274 -0.412459,0.146961 -0.548829,0.21875 v -0.002 l -4.0136715,2.111328 0.765625,-4.466797 c 0.026,-0.151684 0.070141,-0.317645 0.037109,-0.589843 C 7.9277889,13.942003 7.8679418,13.755745 7.7734375,13.585938 7.6401336,13.346516 7.506785,13.23827 7.3964844,13.130859 L 4.1484375,9.9667969 8.6386719,9.3105469 C 8.790736,9.2883136 8.962686,9.2794934 9.2109375,9.1640625 9.3867457,9.0822745 9.5437365,8.9663099 9.6757812,8.8242188 a 1.0001,1.0001 0 0 0 0.00195,0 C 9.864007,8.623713 9.9241434,8.4640301 9.9921875,8.3261719 Z" />
</svg>
