<?xml version="1.0" encoding="UTF-8" standalone="no"?>
<svg width="24" height="24" viewBox="0 0 24 24" fill="none" version="1.1" id="svg184" xmlns="http://www.w3.org/2000/svg">
  <defs
     id="defs188" />
  <path
     id="path920"
     style="fill:#000000;fill-opacity:1;stroke-width:1.42857"
     d="M 7,2 C 6.6210004,2 6.2754686,2.2137347 6.1054688,2.5527344 L 4.3828125,6 H 3 v 2 h 1.1328125 l 1.8769531,13.142578 c 0.034171,0.238143 0.1540805,0.455711 0.3359375,0.613281 C 6.5275457,21.913431 6.7593573,22 7,22 h 10 c 0.240643,0 0.472583,-0.08657 0.654297,-0.244141 0.181857,-0.15757 0.301794,-0.375138 0.335937,-0.613281 L 19.867188,8 H 21 V 6 H 19.617188 L 17.894531,2.5527344 C 17.811674,2.3865074 17.68339,2.2461331 17.525391,2.1484375 17.367391,2.0507433 17.185714,1.9998692 17,2 Z m 0.6171875,2 h 8.7656245 l 1,2 H 6.6171875 Z M 6.1523438,8 H 17.845703 l -0.427734,3 H 6.5820312 Z M 7.4375,17 h 9.123047 l -0.427735,3 H 7.8671875 Z" />
</svg>
