<?xml version="1.0" encoding="UTF-8" standalone="no"?>
<svg
   width="24"
   height="24"
   viewBox="0 0 24 24"
   fill="none"
   version="1.1"
   id="svg1047"
   xmlns="http://www.w3.org/2000/svg">
  <defs
     id="defs1051" />
  <path
     id="path1536"
     style="fill:#000000;fill-opacity:1;stroke-width:1.1765"
     d="m 12,3.7636719 c -0.398022,0 -0.795766,0.2099655 -1.591797,0.6269531 l 0.539063,1.6953125 C 8.2017758,6.2257879 4.8743508,6.8930856 4.1738281,8.0898438 H 19.826172 C 19.477339,7.4944882 18.478992,7.0310619 17.224609,6.6972656 V 5.5878906 H 16.328125 V 6.4882812 C 15.273276,6.2742173 14.119831,6.1403034 13.052734,6.0859375 L 13.591797,4.390625 C 12.795767,3.9736374 12.398022,3.7636719 12,3.7636719 Z M 4.0390625,9.0292969 V 9.7578125 H 2 v 0.9394535 h 2.0390625 v 7.871093 c 0,0.833903 0.795766,1.667969 1.5917969,1.667969 H 18.369141 c 0.796136,0 1.591797,-0.834066 1.591797,-1.667969 V 10.697266 H 22 V 9.7578125 H 19.960938 V 9.0292969 Z" />
</svg>
