<?xml version="1.0" encoding="UTF-8" standalone="no"?>
<svg
   width="24"
   height="24"
   viewBox="0 0 24 24"
   fill="none"
   version="1.1"
   id="svg4"
   xmlns="http://www.w3.org/2000/svg"
   xmlns:svg="http://www.w3.org/2000/svg">
  <defs
     id="defs8" />
  <path
     id="path2"
     style="color:#000000;fill:#000000;stroke-linecap:round;stroke-linejoin:round;-inkscape-stroke:none"
     d="M 5.6621094,3 C 4.6326316,3.0082982 3.9008006,3.0701091 3.1835938,3.4355469 2.4310555,3.8189815 1.8189815,4.4310556 1.4355469,5.1835938 0.9482966,6.1398697 1,7.1206245 1,8.8007812 v 6.3984378 c 0,1.680196 -0.0516465,2.660919 0.4355469,3.617187 0.3834427,0.752567 0.9955204,1.364646 1.7480469,1.748047 C 4.139877,21.051737 5.1206246,21 6.8007812,21 H 17.199219 c 1.680196,0 2.660911,0.05168 3.617187,-0.435547 0.752556,-0.383409 1.364638,-0.995491 1.748047,-1.748047 C 23.051681,17.86013 23,16.879415 23,15.199219 V 8.8007812 C 23,7.1206245 23.051737,6.1398771 22.564453,5.1835938 22.181052,4.4310674 21.568973,3.8189896 20.816406,3.4355469 19.860138,2.9483535 18.879415,3 17.199219,3 H 6.8007812 C 6.3807421,3 6.0052686,2.9972339 5.6621094,3 Z M 6.8007812,5 H 17.199219 c 1.680196,0 2.381655,0.051984 2.708984,0.21875 0.376431,0.1917961 0.68125,0.4965956 0.873047,0.8730469 C 20.947965,6.418971 21,7.1206245 21,8.8007812 v 6.3984378 c 0,1.680196 -0.05198,2.381662 -0.21875,2.708984 -0.191789,0.376443 -0.496604,0.681258 -0.873047,0.873047 C 19.580881,18.948022 18.879415,19 17.199219,19 H 6.8007812 C 5.1206246,19 4.418971,18.947965 4.0917969,18.78125 3.7153456,18.589453 3.4105461,18.284634 3.21875,17.908203 3.0519847,17.580874 3,16.879415 3,15.199219 V 8.8007812 C 3,7.1206245 3.0520416,6.4189783 3.21875,6.0917969 3.4105542,5.7153573 3.7153573,5.4105542 4.0917969,5.21875 4.4189783,5.0520416 5.1206246,5 6.8007812,5 Z M 16,6 a 1,1 0 0 0 -1,1 v 1 a 1,1 0 0 0 1,1 1,1 0 0 0 1,-1 V 7 A 1,1 0 0 0 16,6 Z m 0,4.5 a 1,1 0 0 0 -1,1 v 1 a 1,1 0 0 0 1,1 1,1 0 0 0 1,-1 v -1 a 1,1 0 0 0 -1,-1 z m 0,4.5 a 1,1 0 0 0 -1,1 v 1 a 1,1 0 0 0 1,1 1,1 0 0 0 1,-1 v -1 a 1,1 0 0 0 -1,-1 z" />
</svg>
