<?xml version="1.0" encoding="UTF-8" standalone="no"?>
<svg width="24" height="24" viewBox="0 0 24 24" fill="none" version="1.1" id="svg188" xmlns="http://www.w3.org/2000/svg">
  <defs
     id="defs192" />
  <path
     id="path1706"
     style="fill:#000000;fill-opacity:1;stroke-width:0.834261"
     d="M 16.423828,2 C 16.31504,2 16.286831,2.0263459 16.261719,2.1367188 L 13.751953,13.039062 c -1.115573,4.849307 -3.9226459,7.060547 -6.0449218,7.060547 -1.4501115,0 -2.5527343,-0.900821 -2.5527343,-3.113281 0,-2.829311 1.8545713,-6.349609 5.1035151,-6.349609 0.794384,0.0121 1.579685,0.178971 2.3125,0.490234 0.2426,0.11037 0.295203,0.111387 0.320313,0.0293 L 13.324219,9.5449219 C 13.349247,9.46283 13.34866,9.4091987 13.214844,9.3554688 12.284811,8.9319152 11.277195,8.710525 10.257812,8.703125 c -4.4313416,0 -7.1992182,4.358406 -7.1992182,8.486328 C 3.0585937,20.406279 5.0464689,22 7.4921875,22 9.3997246,22 11.577508,20.924112 13.208984,18.400391 h 0.08984 C 13.599996,21.096721 15.127849,22 16.787109,22 c 1.019884,-0.05848 3.277574,-0.457114 4.154297,-1.582031 l -0.632812,-1.40625 c -1.149444,1.119163 -2.709079,1.202045 -3.345703,1.103515 -1.115489,0 -1.673829,-1.062789 -1.673829,-2.916015 0.03971,-1.260818 0.196782,-2.515143 0.46875,-3.746094 L 18.332031,2.1367188 C 18.357062,2.0263409 18.304933,2 18.251953,2 Z" />
</svg>
