<?xml version="1.0" encoding="UTF-8" standalone="no"?>
<svg
   width="24"
   height="24"
   viewBox="0 0 24 24"
   fill="none"
   version="1.1"
   id="svg2279"
   xmlns="http://www.w3.org/2000/svg"
   xmlns:svg="http://www.w3.org/2000/svg">
  <defs
     id="defs2283" />
  <path
     fill-rule="evenodd"
     clip-rule="evenodd"
     d="M 9.5523165,4.3379111 V 3.8175424 c 0,-0.285717 0.2887821,-0.5186358 0.6432755,-0.5186358 h 3.609758 c 0.355435,0 0.644161,0.2329188 0.644161,0.5186358 v 0.5203687 z m 7.8188345,1.2976748 c -0.07528,1.961121 -0.541303,13.9771821 -0.600092,14.5183921 -0.03456,0.323757 -0.153913,0.483074 -0.217919,0.547173 H 7.4478293 C 7.3829847,20.637052 7.2645315,20.477735 7.2299383,20.153978 7.1720161,19.612768 6.6506412,7.6053622 6.5659146,5.6355859 Z M 15.741279,4.337762 V 3.8173933 C 15.741279,2.8147521 14.931093,2 13.9342,2 H 10.066723 C 9.0698111,2 8.2596634,2.8147521 8.2596634,3.8173933 V 4.337762 H 4.3913365 V 5.6356512 H 5.2732521 L 5.9441982,20.625872 C 5.9554432,20.681312 6.2433592,22 7.3578574,22 h 9.2834186 c 1.115402,0 1.403291,-1.318693 1.420619,-1.416519 L 18.695622,5.6356512 h 0.913041 V 4.337762 Z m -0.263105,2.338021 h -1.292607 l -0.402949,12.986643 h 1.292606 z m -4.124649,12.98683 h 1.292616 V 6.6759693 H 11.353525 Z M 10.217309,19.662426 9.8143968,6.675783 H 8.5217903 l 0.4020459,12.986643 z"
     fill="white"
     id="path2277"
     style="fill:#000000;fill-opacity:1;stroke-width:0.931675" />
</svg>
