<?xml version="1.0" encoding="UTF-8" standalone="no"?>
<svg
   width="24"
   height="24"
   viewBox="0 0 24 24"
   fill="none"
   version="1.1"
   id="svg4"
   xmlns="http://www.w3.org/2000/svg"
   xmlns:svg="http://www.w3.org/2000/svg">
  <defs
     id="defs8" />
  <path
     id="path2"
     style="color:#000000;fill:#000000;stroke-width:0.869559;stroke-linecap:round;stroke-linejoin:round;-inkscape-stroke:none"
     d="M 5.1558825,2.0002288 C 4.5089888,2.0032891 4.020225,2.0417813 3.5084753,2.3025365 2.989748,2.5668351 2.5669479,2.9896134 2.3026412,3.5083706 1.9549703,4.1906982 2.0020319,4.8327742 2.0020319,5.8622946 v 4.1134228 c 0,0.4496266 -0.00887,0.7452576 0.076426,1.1005356 0.067547,0.281371 0.178378,0.54988 0.3294814,0.79653 a 0.91921603,0.91921603 0 0 0 0.0017,0 c 0.1908658,0.311422 0.4055318,0.514236 0.7235005,0.832196 l 7.0481852,7.048185 c 1.091928,1.091918 1.695939,1.762108 2.634153,2.066902 0.738323,0.239898 1.53412,0.239926 2.272403,0 0.938295,-0.304776 1.540535,-0.974983 2.632455,-2.066902 l 2.032935,-2.032935 c 1.091918,-1.09192 1.762126,-1.694159 2.066901,-2.632455 0.239926,-0.738282 0.239898,-1.53408 0,-2.272402 -0.304795,-0.938215 -0.974986,-1.542225 -2.066903,-2.634153 L 12.705083,3.1330335 C 12.387124,2.8150649 12.184309,2.6003989 11.872888,2.409533 a 0.91921603,0.91921603 0 0 0 0,-0.0017 C 11.626239,2.256732 11.357731,2.1459008 11.076358,2.0783532 10.72108,1.9930566 10.425439,2.0019271 9.9758222,2.0019271 H 5.8623993 c -0.2573777,0 -0.4908855,-0.00272 -0.7065168,-0.0017 z m 0.7065168,1.8410199 h 4.1134229 c 0.4496168,0 0.6030198,0.00919 0.6708508,0.025475 0.09376,0.022508 0.184243,0.058215 0.266643,0.1086949 0.05954,0.036489 0.174633,0.1389582 0.492523,0.4568583 l 7.048186,7.0498841 c 1.091921,1.09193 1.514317,1.57966 1.618535,1.900463 0.120029,0.369406 0.120002,0.76694 0,1.1362 -0.104235,0.320905 -0.526615,0.810243 -1.618535,1.902161 L 16.42109,18.45392 c -1.091919,1.09192 -1.581256,1.5143 -1.902161,1.618535 -0.369261,0.120003 -0.766795,0.12003 -1.136201,0 -0.320803,-0.104218 -0.808533,-0.526614 -1.900462,-1.618535 L 4.432382,11.405735 C 4.114482,11.087845 4.0120127,10.972747 3.9755238,10.913211 3.925045,10.830812 3.8893383,10.74033 3.8668289,10.646568 3.8505438,10.578734 3.8413534,10.425344 3.8413534,9.9757174 V 5.8622946 c 0,-1.0295204 0.047154,-1.4159185 0.1002031,-1.5200303 C 4.0297159,4.1692332 4.1693267,4.0296193 4.3423691,3.9414519 4.4464759,3.8884055 4.8328882,3.8412487 5.8623993,3.8412487 Z M 8.43711,7.0579385 c -0.7505473,0 -1.3790667,0.6285194 -1.3790667,1.3790667 0,0.7505472 0.6285194,1.3773682 1.3790667,1.3773682 0.7505472,0 1.3773682,-0.6268212 1.3773682,-1.3773682 0,-0.750547 -0.626821,-1.3790666 -1.3773682,-1.3790667 z" />
</svg>
