<?xml version="1.0" encoding="UTF-8" standalone="no"?>
<svg width="24" height="24" viewBox="0 0 24 24" fill="none" version="1.1" id="svg1064" xmlns="http://www.w3.org/2000/svg">
  <defs
     id="defs1068" />
  <path
     id="path2279"
     style="fill:#000000;fill-opacity:1;stroke-width:0.994698"
     d="M 13.617188,2 C 9.2344515,2 7.263126,4.5412875 6.4199219,8.4472656 L 4.9726562,15.099609 C 4.0084962,19.59027 6.5003893,22 10.603516,22 c 3.819239,0 6.231709,-2.330737 7.095703,-5.931641 l 0.199219,-0.65625 -3.171876,0.01367 -0.158203,0.65625 c -0.68455,2.160582 -1.973884,3.058594 -3.78125,3.058594 -2.1329289,0 -3.4599804,-1.058402 -2.896484,-3.591797 L 8.5195312,12.650391 H 18.484375 L 19.005859,9.9550781 C 19.890842,5.7186624 18.242033,2 13.617188,2 Z m -0.359376,2.8300781 0.02149,0.00391 c 2.61297,0 3.417011,1.7533221 2.853515,4.3671875 L 15.919922,10.160156 8.9667969,10.582031 9.5019531,8.1386719 C 9.9819936,5.973912 11.108172,4.8300781 13.257812,4.8300781 Z" />
</svg>
