<?xml version="1.0" encoding="UTF-8" standalone="no"?>
<svg
   width="24"
   height="24"
   viewBox="0 0 24 24"
   fill="none"
   version="1.1"
   id="svg134"
   xmlns="http://www.w3.org/2000/svg"
   xmlns:svg="http://www.w3.org/2000/svg">
  <defs
     id="defs138" />
  <path
     d="M 7.83798,2.6354232 H 7.6298642 c -1.7482237,0 -2.622327,0 -3.2900584,0.3402273 C 3.7524511,3.2749191 3.2749191,3.7524511 2.9756505,4.3398058 2.6354232,5.0075372 2.6354232,5.8816405 2.6354232,7.6298642 V 7.83798 M 7.83798,21.364577 H 7.6298642 c -1.7482237,0 -2.622327,0 -3.2900584,-0.340215 C 3.7524511,20.725077 3.2749191,20.247557 2.9756505,19.660203 2.6354232,18.992471 2.6354232,18.11836 2.6354232,16.370136 V 16.16202 M 21.364577,7.83798 V 7.6298642 c 0,-1.7482237 0,-2.622327 -0.340215,-3.2900584 C 20.725077,3.7524511 20.247557,3.2749191 19.660203,2.9756505 18.992471,2.6354232 18.11836,2.6354232 16.370136,2.6354232 H 16.16202 M 21.364577,16.16202 v 0.208116 c 0,1.748224 0,2.622335 -0.340215,3.290067 -0.299285,0.587354 -0.776805,1.064874 -1.364159,1.364159 -0.667732,0.340215 -1.541843,0.340215 -3.290067,0.340215 H 16.16202 M 7.3177116,7.83798 V 9.3987428 M 16.682288,7.83798 V 9.3987428 M 10.959506,12.62439 c 0.832378,0 1.560762,-0.728342 1.560762,-1.560763 V 7.83798 m 2.809543,7.491577 c -1.872916,1.872915 -4.890362,1.872915 -6.7632775,0"
     stroke="#f50f64"
     stroke-width="1.26977"
     stroke-linecap="round"
     stroke-linejoin="round"
     id="path132"
     style="stroke:#000000;stroke-opacity:1" />
</svg>
