<?xml version="1.0" encoding="UTF-8" standalone="no"?>
<svg
   width="24"
   height="24"
   viewBox="0 0 24 24"
   fill="none"
   version="1.1"
   id="svg148"
   xmlns="http://www.w3.org/2000/svg"
   xmlns:svg="http://www.w3.org/2000/svg">
  <defs
     id="defs152" />
  <path
     style="color:#000000;fill:#000000;stroke-linecap:round;stroke-linejoin:round"
     d="m 11.998047,7.7519531 c -3.4912482,0 -6.3339845,2.8450019 -6.3339845,6.3378909 0,2.575617 0.8088889,4.965928 2.1835937,6.927734 a 0.58442003,0.58442003 0 0 0 0.8144532,0.142578 0.58442003,0.58442003 0 0 0 0.1425781,-0.8125 C 7.5620432,18.57431 6.8320312,16.420948 6.8320312,14.089844 c 0,-2.861562 2.3067115,-5.167969 5.1660158,-5.167969 2.859348,0 5.164062,2.306403 5.164062,5.167969 a 0.58442003,0.58442003 0 0 0 0.583985,0.583984 0.58442003,0.58442003 0 0 0 0.585937,-0.583984 c 0,-3.492884 -2.8427,-6.3378909 -6.333984,-6.3378909 z"
     id="path132" />
  <path
     style="color:#000000;fill:#000000;stroke-linecap:round;stroke-linejoin:round"
     d="m 11.998047,7.7519531 c -3.4912482,0 -6.3339845,2.8450019 -6.3339845,6.3378909 0,2.575617 0.8088889,4.965928 2.1835937,6.927734 a 0.58442003,0.58442003 0 0 0 0.8144532,0.142578 0.58442003,0.58442003 0 0 0 0.1425781,-0.8125 C 7.5620432,18.57431 6.8320312,16.420948 6.8320312,14.089844 c 0,-2.861562 2.3067115,-5.167969 5.1660158,-5.167969 2.859348,0 5.164062,2.306403 5.164062,5.167969 a 0.58442003,0.58442003 0 0 0 0.583985,0.583984 0.58442003,0.58442003 0 0 0 0.585937,-0.583984 c 0,-3.492884 -2.8427,-6.3378909 -6.333984,-6.3378909 z"
     id="path134" />
  <path
     style="color:#000000;fill:#000000;stroke-linecap:round;stroke-linejoin:round"
     d="m 12,13.503906 a 0.58442003,0.58442003 0 0 0 -0.585937,0.585938 c -1e-6,3.492887 2.842735,6.335937 6.333984,6.335937 0.140352,0 0.253319,-0.01075 0.341797,-0.01563 a 0.58442003,0.58442003 0 0 0 0.552734,-0.615234 0.58442003,0.58442003 0 0 0 -0.617187,-0.552735 c -0.118564,0.0065 -0.208628,0.01563 -0.277344,0.01563 -2.859305,0 -5.164063,-2.306408 -5.164063,-5.167968 A 0.58442003,0.58442003 0 0 0 12,13.503906 Z"
     id="path136" />
  <path
     style="color:#000000;fill:#000000;stroke-linecap:round;stroke-linejoin:round"
     d="m 12,13.503906 a 0.58442003,0.58442003 0 0 0 -0.585937,0.585938 c 0,3.492887 2.8427,6.335937 6.333984,6.335937 0.140325,0 0.253283,-0.01075 0.341797,-0.01563 a 0.58442003,0.58442003 0 0 0 0.552734,-0.615234 0.58442003,0.58442003 0 0 0 -0.615234,-0.552735 c -0.118604,0.0065 -0.210635,0.01563 -0.279297,0.01563 -2.859348,0 -5.164063,-2.306408 -5.164063,-5.167968 A 0.58442003,0.58442003 0 0 0 12,13.503906 Z"
     id="path138" />
  <path
     style="color:#000000;fill:#000000;stroke-linecap:round;stroke-linejoin:round"
     d="m 12,4.8769531 c -5.0789265,0 -9.2089844,4.131351 -9.2089844,9.2128909 0,1.105846 0.1243576,2.182389 0.3515625,3.21875 a 0.58442003,0.58442003 0 0 0 0.6953125,0.445312 0.58442003,0.58442003 0 0 0 0.4453125,-0.695312 C 4.0732299,16.100833 3.9589844,15.108485 3.9589844,14.089844 3.9589844,9.6397088 7.5530185,6.0449219 12,6.0449219 c 4.446939,0 8.041016,3.5947863 8.041016,8.0449221 0,1.272787 -1.019359,2.291015 -2.291016,2.291015 -1.271657,0 -2.291016,-1.018237 -2.291016,-2.291015 0,-1.904391 -1.555364,-3.460938 -3.458984,-3.460938 -1.90362,0 -3.4609375,1.556538 -3.4609375,3.460938 0,3.296881 1.7375795,6.195777 4.3457035,7.822265 a 0.58442003,0.58442003 0 0 0 0.804687,-0.1875 0.58442003,0.58442003 0 0 0 -0.1875,-0.804687 C 11.224472,19.49963 9.7089844,16.976683 9.7089844,14.089844 c 0,-1.272825 1.0193586,-2.292969 2.2910156,-2.292969 1.271657,0 2.289063,1.020135 2.289063,2.292969 0,1.904368 1.557317,3.458984 3.460937,3.458984 1.90362,0 3.458984,-1.554625 3.458984,-3.458984 0,-5.0815393 -4.130095,-9.2128909 -9.208984,-9.2128909 z"
     id="path140" />
  <path
     style="color:#000000;fill:#000000;stroke-linecap:round;stroke-linejoin:round"
     d="m 12,4.8769531 c -5.0789278,0 -9.2089844,4.1313493 -9.2089844,9.2128909 0,1.105847 0.1243576,2.182389 0.3515625,3.21875 a 0.58442497,0.58442497 0 0 0 0.6953125,0.445312 0.58442497,0.58442497 0 0 0 0.4453125,-0.695312 c -0.209973,-0.95776 -0.3242187,-1.95011 -0.3242187,-2.96875 0,-4.4501315 3.5940381,-8.0449221 8.0410156,-8.0449221 4.446937,0 8.041016,3.5947898 8.041016,8.0449221 0,1.272784 -1.019362,2.291015 -2.291016,2.291015 -1.271654,0 -2.291016,-1.018241 -2.291016,-2.291015 0,-1.904392 -1.555361,-3.460938 -3.458984,-3.460938 -1.903622,0 -3.4609375,1.556536 -3.4609375,3.460938 0,3.296881 1.7375785,6.195776 4.3457035,7.822265 a 0.58442497,0.58442497 0 0 0 0.804687,-0.1875 0.58442497,0.58442497 0 0 0 -0.1875,-0.804687 C 11.224474,19.499631 9.7089844,16.97668 9.7089844,14.089844 c 0,-1.272821 1.0193626,-2.292969 2.2910156,-2.292969 1.271654,0 2.289063,1.020138 2.289063,2.292969 0,1.90437 1.557314,3.458984 3.460937,3.458984 1.903623,0 3.458984,-1.554623 3.458984,-3.458984 0,-5.0815409 -4.130092,-9.2128909 -9.208984,-9.2128909 z"
     id="path142" />
  <path
     style="color:#000000;fill:#000000;stroke-linecap:round;stroke-linejoin:round"
     d="M 11.998047,2 C 8.6261391,2 5.5996244,3.4886019 3.5332031,5.8359375 a 0.58442003,0.58442003 0 0 0 0.052734,0.8242187 0.58442003,0.58442003 0 0 0 0.8242187,-0.052734 C 6.264912,4.5005261 8.9695315,3.1679687 11.998047,3.1679688 c 3.028557,0 5.735101,1.332559 7.589844,3.4394531 a 0.58442003,0.58442003 0 0 0 0.824218,0.052734 0.58442003,0.58442003 0 0 0 0.05273,-0.8242187 C 18.398434,3.4886003 15.369992,2 11.998047,2 Z"
     id="path144" />
  <path
     style="color:#000000;fill:#000000;stroke-linecap:round;stroke-linejoin:round;-inkscape-stroke:none"
     d="M 11.998047,2 C 8.6261391,2 5.5996244,3.4886019 3.5332031,5.8359375 a 0.58442003,0.58442003 0 0 0 0.052734,0.8242187 0.58442003,0.58442003 0 0 0 0.8242187,-0.052734 C 6.264912,4.5005261 8.9695315,3.1679687 11.998047,3.1679688 c 3.028557,0 5.735101,1.332559 7.589844,3.4394531 a 0.58442003,0.58442003 0 0 0 0.824218,0.052734 0.58442003,0.58442003 0 0 0 0.05273,-0.8242187 C 18.398434,3.4886003 15.369992,2 11.998047,2 Z"
     id="path146" />
</svg>
