<?xml version="1.0" encoding="UTF-8" standalone="no"?>
<!-- Created with Inkscape (http://www.inkscape.org/) -->

<svg
   width="24mm"
   height="24mm"
   viewBox="0 0 24 24"
   version="1.1"
   id="svg2764"
   xmlns="http://www.w3.org/2000/svg"
   xmlns:svg="http://www.w3.org/2000/svg">
  <defs
     id="defs2761" />
  <g
     id="g470"
     transform="matrix(1.2,0,0,1.1999999,-2.4000034,-2.3999946)">
    <g
       id="layer1">
      <g
         id="g2614"
         style="fill:#f8ae00;fill-opacity:1"
         transform="matrix(0.26458333,0,0,0.26458333,59.323564,119.04061)" />
      <path
         id="rect4286"
         style="fill:#00926f;fill-opacity:1;fill-rule:evenodd;stroke-width:0.442656;stroke-linecap:round;paint-order:fill markers stroke"
         d="m 7.0190934,1.999996 h 9.9618236 c 2.780572,0 5.019086,2.238514 5.019086,5.0190908 V 16.98091 c 0,2.780573 -2.238514,5.019087 -5.019086,5.019087 H 7.0190934 c -2.7805768,0 -5.0190908,-2.238514 -5.0190908,-5.019087 V 7.0190868 c 0,-2.7805768 2.238514,-5.0190908 5.0190908,-5.0190908 z" />
      <path
         class="st2"
         d="M 11.364787,4.9728581 4.9728392,11.364806 c -0.349698,0.349698 -0.349698,0.920723 0,1.274848 l 1.5714275,1.571427 C 7.0533207,13.591363 7.8368212,12.869835 8.9744461,12.334221 11.409052,11.19217 12.883095,12.227984 14.392551,10.448508 15.335408,9.3374427 15.118506,8.1378459 14.861766,7.4428766 14.759955,7.1772832 14.600599,6.9382492 14.401404,6.7346276 L 12.639635,4.9728581 c -0.354125,-0.3496979 -0.92515,-0.3496979 -1.274848,0 z"
         id="path2610"
         style="fill:#f8ae00;fill-opacity:1;stroke-width:0.442656" />
      <path
         class="st2"
         d="m 12.635208,19.027175 6.391948,-6.391948 c 0.349698,-0.349698 0.349698,-0.920723 0,-1.274848 L 17.455728,9.7889515 c -0.509054,0.6197175 -1.292554,1.3412465 -2.430179,1.8768595 -1.116842,0.523901 -2.031545,0.589493 -2.840255,0.678798 -0.954198,0.10537 -1.760837,0.24375 -2.5778503,1.206915 -0.9428565,1.111066 -0.7259552,2.310663 -0.469215,3.005632 0.1018108,0.265594 0.2611669,0.504628 0.4603619,0.708249 l 1.7617694,1.76177 c 0.354125,0.349698 0.92515,0.349698 1.274848,0 z"
         id="path2612"
         style="fill:#f8ae00;fill-opacity:1;stroke-width:0.442656" />
      <path
         class="st2"
         d="M 20.881878,11.125769 18.898786,9.1426769 V 6.3362373 c 0,-0.6816924 -0.553321,-1.2350134 -1.235013,-1.2350134 h -2.80644 L 12.87424,3.1181322 c -0.482493,-0.4825016 -1.265995,-0.4825016 -1.74849,0 L 9.1426538,5.1012239 H 6.3362176 c -0.6816909,0 -1.2350101,0.553321 -1.2350101,1.2350134 V 9.1426769 L 3.1181108,11.125769 c -0.482495,0.482501 -0.482495,1.265998 0,1.748499 l 1.9830967,1.983092 v 2.806439 c 0,0.681693 0.5533192,1.234997 1.2350101,1.234997 h 2.8064362 l 1.9830962,1.983109 c 0.482495,0.482484 1.265997,0.482484 1.74849,0 l 1.983093,-1.983109 h 2.80644 c 0.681692,0 1.235013,-0.553304 1.235013,-1.234997 V 14.85736 l 1.983092,-1.983092 c 0.482502,-0.482501 0.482502,-1.265998 0,-1.748499 z m -0.823331,1.487323 -1.925556,1.925556 v 2.726753 c 0,0.478068 -0.389532,0.867616 -0.8676,0.867616 h -2.72677 l -1.925548,1.92554 c -0.340844,0.340846 -0.889737,0.340846 -1.226156,0 L 9.4613658,18.133017 H 6.7346076 c -0.4780681,0 -0.8676061,-0.389548 -0.8676061,-0.867616 V 14.538648 L 3.9414502,12.613092 c -0.3408445,-0.340847 -0.3408445,-0.889734 0,-1.226147 L 5.8670015,9.461389 V 6.7346358 c 0,-0.4780681 0.389538,-0.8676162 0.8676061,-0.8676162 H 9.4613658 L 11.386917,3.9414633 c 0.340846,-0.3408295 0.889739,-0.3408295 1.226156,0 l 1.925548,1.9255563 h 2.72677 c 0.478068,0 0.8676,0.3895481 0.8676,0.8676162 V 9.461389 l 1.925556,1.925556 c 0.340846,0.340846 0.340846,0.889734 0,1.226147 z"
         id="path2616"
         style="fill:#f8ae00;fill-opacity:1;stroke-width:0.442655" />
    </g>
  </g>
</svg>
