<?xml version="1.0" encoding="UTF-8" standalone="no"?>
<svg
   width="24"
   height="24"
   viewBox="0 0 24 24"
   fill="none"
   version="1.1"
   id="svg134"
   xmlns="http://www.w3.org/2000/svg"
   xmlns:svg="http://www.w3.org/2000/svg">
  <defs
     id="defs138" />
  <path
     d="m 18.363636,4.7272727 h 0.909091 V 2 h -3.636363 v 2.7272727 c 0,0 1.818182,3.6363637 1.818182,7.2727273 0,3.636364 -1.818182,6.363636 -5.454546,6.363636 -3.6363635,0 -5.4545454,-2.727272 -5.4545454,-6.363636 0,-3.6363636 1.8181819,-7.2727273 1.8181819,-7.2727273 V 2 H 4.7272728 v 2.7272727 h 0.9090909 c 0,0 -2.7272727,3.6363637 -2.7272727,9.0909093 C 2.909091,18.363636 7.4545455,22 12,22 c 4.545455,0 9.090909,-3.636364 9.090909,-8.181818 0,-5.4545456 -2.727273,-9.0909093 -2.727273,-9.0909093 z M 4.7272728,12.909091 c -0.5454545,0 -0.9090909,-0.363636 -0.9090909,-0.909091 0,-0.545454 0.3636364,-0.909091 0.9090909,-0.909091 0.5454546,0 0.9090909,0.363637 0.9090909,0.909091 0,0.545455 -0.3636363,0.909091 -0.9090909,0.909091 z m 1.8181818,5.454545 c -0.5454545,0 -0.9090909,-0.363636 -0.9090909,-0.909091 0,-0.545454 0.3636364,-0.90909 0.9090909,-0.90909 0.5454546,0 0.9090909,0.363636 0.9090909,0.90909 0,0.545455 -0.3636363,0.909091 -0.9090909,0.909091 z M 12,21.090909 c -0.545454,0 -0.909091,-0.363636 -0.909091,-0.909091 0,-0.545454 0.363637,-0.909091 0.909091,-0.909091 0.545455,0 0.909091,0.363637 0.909091,0.909091 0,0.545455 -0.363636,0.909091 -0.909091,0.909091 z m 5.454546,-2.727273 c -0.545455,0 -0.909091,-0.363636 -0.909091,-0.909091 0,-0.545454 0.363636,-0.90909 0.909091,-0.90909 0.545454,0 0.90909,0.363636 0.90909,0.90909 0,0.545455 -0.363636,0.909091 -0.90909,0.909091 z m 1.818181,-5.454545 c -0.545454,0 -0.909091,-0.363636 -0.909091,-0.909091 0,-0.545454 0.363637,-0.909091 0.909091,-0.909091 0.545455,0 0.909091,0.363637 0.909091,0.909091 0,0.545455 -0.363636,0.909091 -0.909091,0.909091 z"
     fill="white"
     id="path132"
     style="fill:#000000;fill-opacity:1;stroke-width:0.909091" />
</svg>
