<?xml version="1.0" encoding="UTF-8" standalone="no"?>
<!-- Created with Inkscape (http://www.inkscape.org/) -->

<svg
   width="24mm"
   height="24mm"
   viewBox="0 0 24 24"
   version="1.1"
   id="svg2315"
   xmlns="http://www.w3.org/2000/svg"
   xmlns:svg="http://www.w3.org/2000/svg">
  <defs
     id="defs2312" />
  <g
     id="layer1"
     transform="matrix(1.2,0,0,1.2,-2.4,-2.4)">
    <path
       d="M 2,6.11765 C 2,3.84354 3.843537,2 6.11765,2 H 17.882375 C 20.1565,2 22,3.84354 22,6.11765 V 17.88237 C 22,20.1565 20.1565,22 17.882375,22 H 6.11765 C 3.843537,22 2,20.1565 2,17.88237 Z"
       fill="#f14635"
       id="path2097"
       style="stroke-width:0.125" />
    <path
       fill-rule="evenodd"
       clip-rule="evenodd"
       d="m 12.000298,5.375335 c 3.64955,0 6.609425,2.9234 6.624675,6.53571 v 0.0568 c -0.0066,1.60605 -0.597625,3.07537 -1.571375,4.21274 -0.03537,-0.0178 -0.09975,-0.0758 -0.2165,-0.25038 -0.12075,-0.17549 -1.162375,-1.77856 -1.162375,-3.61585 0,-0.36057 0.51975,-0.92383 0.979625,-1.41826 l 0.0099,-0.0106 c 0.340125,-0.36806 0.66075,-0.71496 0.7795,-0.98811 0.15275,-0.35591 0.04587,-0.60441 -0.123125,-0.68865 -0.153,-0.0749 -0.38275,-0.0203 -0.543875,0.26605 -0.2645,0.46331 -0.34925,0.54989 -0.735125,0.85991 -0.379625,0.30988 -0.98325,0.62179 -0.98325,0.21803 0,-0.14724 0.153375,-0.42019 0.304,-0.6885 l 1.25e-4,-3e-5 c 0.07238,-0.12901 0.14425,-0.25694 0.198125,-0.36932 0.169625,-0.34993 -0.01312,-0.60325 -0.363375,-0.60325 -0.68775,0 -1.1442,0.87607 -1.1442,1.17955 0,0.14586 0.03404,0.23156 0.06936,0.32052 0.03813,0.096 0.07775,0.19581 0.07775,0.37912 0,0.35582 -0.754563,0.81735 -1.465338,0.81735 -0.715413,0 -1.11665,-0.15139 -1.26655,-0.58353 l -0.04754,-0.14061 -0.0079,-0.0231 -1.2e-5,-3e-5 c -0.164525,-0.4809 -0.284975,-0.83293 -0.4922,-1.20056 -0.109475,-0.19337 -0.2771,-0.32868 -0.424088,-0.44733 l -0.0094,-0.008 c -0.195012,-0.15147 -0.29615,-0.29092 -0.31725,-0.39492 -0.01945,-0.10317 -0.02998,-0.29764 0.303388,-0.74587 0.332612,-0.44569 0.379237,-0.78239 0.212787,-0.95612 -0.06036,-0.0618 -0.1632,-0.1014 -0.295275,-0.1014 -0.233625,0 -0.558237,0.12378 -0.892787,0.4638 -0.406051,0.41606 -0.315076,0.81572 -0.255688,1.07665 l 1.2e-5,10e-6 c 0.01668,0.0733 0.03086,0.13559 0.03086,0.18428 0,0.22195 -0.09528,0.3475 -0.407363,0.64945 -0.314362,0.30331 -0.422862,0.56336 -0.458812,1.60849 -0.01378,0.53846 -0.108612,0.84846 -0.19375,1.12331 -0.07356,0.24093 -0.141213,0.46739 -0.144863,0.79465 -0.0058,0.36263 0.05454,0.59633 0.124976,0.86599 0.06915,0.24922 0.142612,0.53482 0.189674,1.01246 0.08109,0.80113 0.04379,1.4675 -0.123587,2.16263 l -0.0085,0.046 -0.0017,0.007 c -0.0275,0.11088 -0.06018,0.2425 -0.104025,0.29251 -1.676762,-1.191 -2.7702,-3.13606 -2.7702,-5.33472 0,-3.62505 2.966138,-6.56429 6.625325,-6.56429 z m 0.308438,7.10195 c -0.329851,-0.0519 -0.57275,-0.004 -0.74375,0.14054 -0.441401,0.37591 -0.433851,1.42351 -0.425013,2.63851 l 0.0022,0.344 c 0.0052,1.2045 0.01191,2.246 0.293138,2.70375 0.08967,0.14612 0.259087,0.253 0.484437,0.317 0.01653,4.7e-4 0.03304,9.5e-4 0.04955,10e-4 0.04177,0.001 0.0836,0.003 0.125925,0.003 0.557625,0 1.099025,-0.069 1.616963,-0.1965 0.214075,-0.10325 0.369113,-0.22712 0.422325,-0.35625 0.03191,-0.0838 0.04941,-0.23625 0.04941,-0.43487 0,-0.78688 -0.231051,-2.28775 -0.345251,-3.02963 l -0.0034,-0.022 -0.05773,-0.38435 -0.0109,-0.0758 -5.2e-4,-0.004 c -0.09672,-0.68162 -0.206075,-1.45227 -1.4574,-1.64543 z m -2.129313,4.85305 c -0.03319,-0.95837 -0.198425,-2.22238 -0.455412,-2.20788 -0.277025,0.017 -0.382388,1.459 -0.2611,2.42163 0.03974,0.30637 0.102287,0.54025 0.184112,0.68888 0.122625,0.0498 0.247075,0.0955 0.373725,0.13775 0.1119,-0.0986 0.181975,-0.373 0.158675,-1.04038 z m 5.9878,-0.3195 c 0.06,-0.30512 -0.664,-2.03287 -1.068,-1.83775 -0.31,0.15375 -0.18975,1.91913 0.1305,2.48187 0.03337,0.0565 0.10175,0.0655 0.17875,0.0525 0.241625,-0.14563 0.472625,-0.30738 0.69225,-0.48376 0.02787,-0.0573 0.0505,-0.12499 0.0665,-0.21287 z"
       fill="#ffffff"
       id="path2099"
       style="stroke-width:0.125" />
  </g>
</svg>
