<?xml version="1.0" encoding="UTF-8" standalone="no"?>
<svg
   width="24"
   height="24"
   viewBox="0 0 24 24"
   fill="none"
   version="1.1"
   id="svg186"
   xmlns="http://www.w3.org/2000/svg">
  <defs
     id="defs190" />
  <path
     id="path983"
     style="fill:#000000;fill-opacity:1;stroke-width:1.42857"
     d="m 19.089844,2.0058594 c -0.03791,0.00779 -0.08259,0.023485 -0.136719,0.052734 -5.335561,2.8692628 -6.015625,5.5449218 -6.015625,5.5449218 0,0 -0.183813,0.5211719 0.214844,0.9238282 0.039,0.034986 -9.7346692,9.7524562 -11.042969,11.0644532 -0.6366504,0.635856 1.6993898,2.934827 2.3320312,2.298828 1.3086401,-1.311997 11.0079688,-11.100781 11.0429688,-11.064453 0.402328,0.401656 0.921875,0.216797 0.921875,0.216797 0,0 2.669923,-0.681469 5.533203,-6.027344 0.234285,-0.4363134 -0.296875,-0.3046875 -0.296875,-0.3046875 0,0 -3.542872,3.4010312 -4.035156,2.984375 -0.492285,-0.4166563 3.468713,-3.6761705 3,-4.2851563 -0.433571,-0.5676516 -3.912151,3.485219 -4.330078,2.9902344 -0.413986,-0.4939847 2.978515,-4.0410156 2.978515,-4.0410156 0,0 0.09937,-0.4080646 -0.166015,-0.3535156 z M 3.7128906,2.1660156 c -0.071791,0.00196 -0.1795834,0.042197 -0.3300781,0.1933594 -0.5976501,0.5956516 -1.7557252,4.3912347 3.1464844,9.300781 0.776984,0.778641 1.4533276,0.885345 2.0566406,0.916016 0.9329552,-0.932226 1.8661055,-1.864416 2.7968745,-2.7988282 L 3.8203125,2.1992188 c 0,0 -0.03563,-0.035161 -0.1074219,-0.033203 z M 14.220703,12.621094 c -0.737784,0.737755 -1.474524,1.475745 -2.210937,2.214844 2.600937,2.606566 6.984375,7 6.984375,7 0,0 1.91388,-0.627573 2.183593,-2.244141 z" />
</svg>
