<?xml version="1.0" encoding="UTF-8" standalone="no"?>
<svg
   width="24"
   height="24"
   viewBox="0 0 24 24"
   fill="none"
   version="1.1"
   id="svg136"
   xmlns="http://www.w3.org/2000/svg"
   xmlns:svg="http://www.w3.org/2000/svg">
  <defs
     id="defs140" />
  <rect
     width="20"
     height="20"
     rx="5"
     fill="#f50f64"
     id="rect132"
     x="2"
     y="2"
     style="stroke-width:0.833333" />
  <path
     d="M 9.5786833,8.0067 9.6635,9.2050416 h 0.034383 c 0.49285,-0.9371166 1.188617,-1.3717083 2.072284,-1.3717083 1.120916,0 1.71925,0.4685583 2.106666,1.3717083 h 0.03325 c 0.696834,-1.0940833 1.51175,-1.3717083 2.225834,-1.3717083 2.118166,0 2.53075,1.4935333 2.53075,3.0374167 v 5.295917 h -2.717584 v -4.652834 c 0,-0.746166 0.03325,-1.475925 -0.74725,-1.475925 -0.816083,0 -0.951333,0.659509 -0.951333,1.423259 v 4.7055 h -2.71875 v -4.652834 c 0,-0.746166 0.03442,-1.475925 -0.747333,-1.475925 -0.814892,0 -0.9512837,0.659509 -0.9512837,1.423259 v 4.7055 H 7.14995 V 11.27025 C 6.4702666,11.28775 5.7401583,10.888333 5.7745417,9.8469666 5.0100417,9.795425 4.5,9.2565833 4.5,8.25035 V 8.0067 Z"
     fill="#ffffff"
     id="path134"
     style="stroke-width:0.833333" />
  <g
     id="g423"
     transform="matrix(0.83333333,0,0,0.83333333,2,2)">
    <rect
       width="24"
       height="24"
       rx="6"
       fill="#f50f64"
       id="rect417"
       x="0"
       y="0" />
    <path
       d="M 9.09442,7.20804 9.1962,8.64605 H 9.23746 C 9.82888,7.52151 10.6638,7 11.7242,7 c 1.3451,0 2.0631,0.56227 2.528,1.64605 h 0.0399 C 15.1283,7.33315 16.1062,7 16.9631,7 19.5049,7 20,8.79224 20,10.6449 V 17 h -3.2611 v -5.5834 c 0,-0.8954 0.0399,-1.77111 -0.8967,-1.77111 -0.9793,0 -1.1416,0.79141 -1.1416,1.70791 V 17 h -3.2625 v -5.5834 c 0,-0.8954 0.0413,-1.77111 -0.8968,-1.77111 -0.97787,0 -1.14154,0.79141 -1.14154,1.70791 V 17 H 6.17994 V 11.1243 C 5.36432,11.1453 4.48819,10.666 4.52945,9.41636 3.61205,9.35451 3,8.7079 3,7.50042 V 7.20804 Z"
       fill="#ffffff"
       id="path419" />
  </g>
</svg>
