<?xml version="1.0" encoding="UTF-8" standalone="no"?>
<svg
   width="24"
   height="24"
   viewBox="0 0 24 24"
   fill="none"
   version="1.1"
   id="svg4"
   xmlns="http://www.w3.org/2000/svg"
   xmlns:svg="http://www.w3.org/2000/svg">
  <defs
     id="defs8" />
  <path
     id="path1618"
     style="fill:#000000;fill-opacity:1;stroke-width:1.04025"
     d="M 12.000032,2 C 11.271184,2 10.567071,2.2721287 10.023824,2.7634943 L 4.0987534,8.0174005 C 3.7850334,8.3011374 3.5339728,8.649124 3.3636681,9.0383523 3.1933636,9.42757 3.1081921,9.8485425 3.1115374,10.274148 v 8.728693 c 0,0.794644 0.3107956,1.558089 0.8664773,2.120028 C 4.5336923,21.68481 5.2873326,22 6.0731852,22 H 17.926878 c 0.785905,0 1.539473,-0.31519 2.095171,-0.877131 0.555699,-0.561939 0.866478,-1.325384 0.866478,-2.120028 V 10.263494 C 20.890421,9.8395637 20.804908,9.4204125 20.63462,9.0330255 20.464331,8.6456286 20.213799,8.3000142 19.90131,8.0174005 L 13.976239,2.7634943 C 13.433025,2.2721287 12.728868,2 12.000032,2 Z m 0,2.0223722 c 0.239912,0 0.47139,0.088445 0.651634,0.2485795 l 5.926846,5.2432528 c 0.105376,0.093601 0.188862,0.2099662 0.246804,0.3391336 0.05794,0.1291564 0.08857,0.2683399 0.08878,0.4101559 v 8.739347 c 0,0.264846 -0.104151,0.519328 -0.289419,0.706676 -0.185162,0.187348 -0.435864,0.292968 -0.697798,0.292968 h -1.976207 v -4.994672 c 0,-0.794643 -0.312555,-1.556314 -0.868253,-2.118253 -0.555698,-0.561941 -1.309328,-0.877131 -2.09517,-0.877131 h -1.974433 c -0.785853,0 -1.5394925,0.31519 -2.0951706,0.877131 -0.5556778,0.561939 -0.8682528,1.32361 -0.8682528,2.118253 v 4.994672 H 6.0731852 c -0.2619544,0 -0.5125724,-0.10562 -0.6977983,-0.292968 C 5.190161,19.522169 5.0859692,19.267687 5.0859692,19.002841 V 10.263494 C 5.0861564,10.121678 5.1168477,9.9824945 5.1747477,9.8533381 5.2326583,9.7241707 5.3161958,9.6078054 5.4215517,9.5142045 L 11.348398,4.2709517 c 0.180243,-0.1601352 0.411711,-0.2485795 0.651634,-0.2485795 z m -0.987216,9.9875718 h 1.974432 c 0.261954,0 0.51441,0.10562 0.699574,0.292968 0.185268,0.187349 0.289417,0.440054 0.289417,0.704901 v 4.994672 h -3.952415 v -4.994672 c 0,-0.264847 0.104192,-0.517552 0.289418,-0.704901 0.185226,-0.187348 0.43762,-0.292968 0.699574,-0.292968 z" />
</svg>
