<?xml version="1.0" encoding="UTF-8" standalone="no"?>
<svg
   width="24"
   height="24"
   viewBox="0 0 24 24"
   fill="none"
   version="1.1"
   id="svg190"
   xmlns="http://www.w3.org/2000/svg"
   xmlns:svg="http://www.w3.org/2000/svg">
  <defs
     id="defs188" />
  <path
     id="path2219"
     style="color:#000000;fill:#000000;fill-rule:evenodd;stroke-width:0.842798;stroke-linecap:round;-inkscape-stroke:none;paint-order:fill markers stroke"
     d="M 9.8930037,1.9999998 V 2.421399 3.6855965 H 14.106995 V 1.9999998 Z m 4.2139913,1.6855967 v 0.4213992 1.2641976 h 4.213992 V 3.6855965 Z m 4.213992,1.6855968 V 5.7925925 6.9448558 H 14.106995 V 7.366255 8.6304526 h 4.213992 V 7.05679 h 0.855967 v 0.309465 9.576954 h -0.855967 v 1.685597 h 2.528395 v -0.421399 -1.148971 h 0.01317 V 6.9448558 h -0.01317 V 5.3711933 Z m 0,13.2576127 h -4.213992 v 1.685597 h 4.213992 v -0.421399 z m -4.213992,1.685597 h -1.264197 v -9.998354 h 1.264197 V 8.6304526 H 9.8930037 v 0.4213992 1.2641972 h 1.2641973 v 0.327572 9.670782 H 9.8930037 V 22 h 4.2139913 v -0.4214 z m -4.2139913,0 V 19.893004 18.628806 H 5.6790118 v 1.685597 z M 5.6790118,18.628806 V 18.207407 16.943209 H 4.8230447 V 7.05679 H 5.6790118 V 7.366255 8.6304526 H 9.8930037 V 6.9448558 H 5.6790118 V 5.3711933 H 3.1506167 V 5.7925925 6.9448558 H 3.137448 v 0.4213992 9.692181 h 0.013169 v 1.57037 z m 0,-13.2576127 H 9.8930037 V 3.6855965 H 5.6790118 V 4.1069957 Z M 6.100411,10.024691 v 0.421399 1.264198 h 1.6855967 v -1.685597 z m 9.871605,0.18107 v 1.685597 h 1.685597 v -1.264197 -0.4214 z M 14.7786,12.411522 v 1.685597 h 1.685597 v -1.264198 -0.421399 z m -6.3753083,2.024692 v 0.421399 1.264198 h 1.6855973 v -1.685597 z m 5.2658443,0.18107 v 1.685597 h 1.685596 v -1.264198 -0.421399 z" />
</svg>
