<?xml version="1.0" encoding="UTF-8" standalone="no"?>
<!-- Created with Inkscape (http://www.inkscape.org/) -->

<svg width="24" height="24" viewBox="0 0 6.3499999 6.35" version="1.1" id="svg431" xmlns="http://www.w3.org/2000/svg">
  <defs
     id="defs428" />
  <g
     id="layer1">
    <path
       id="path1123"
       style="fill:#000000;fill-opacity:1;stroke-width:0.19748"
       d="m 3.2447632,1.6479614 c -0.330107,0 -0.5900232,0.1593342 -0.774113,0.5028117 H 2.4577311 L 2.4262085,1.7115234 H 0.52916667 v 0.0894 c 0,0.3687938 0.19036361,0.5660766 0.47593993,0.5849772 -0.0128568,0.3816889 0.2602998,0.5278699 0.5141805,0.5214152 v 1.7947225 h 1.002006 V 2.977596 c 0,-0.2799279 0.051138,-0.5219319 0.3555339,-0.5219319 0.2919949,0 0.2790527,0.2675618 0.2790527,0.5410522 V 4.7020386 H 4.1713216 V 2.977596 c 0,-0.2799279 0.050703,-0.5219319 0.3555339,-0.5219319 0.2915759,0 0.2790527,0.2675618 0.2790527,0.5410522 V 4.7020386 H 5.8208333 V 2.7610718 c 0,-0.5658798 -0.1539579,-1.1131104 -0.9451619,-1.1131104 -0.2667357,0 -0.571175,0.1017895 -0.8314738,0.5028117 H 4.0317952 C 3.887082,1.8197369 3.6634806,1.6479614 3.2447632,1.6479614 Z" />
  </g>
</svg>
