<?xml version="1.0" encoding="UTF-8" standalone="no"?>
<svg
   width="24"
   height="24"
   viewBox="0 0 24 24"
   fill="none"
   version="1.1"
   id="svg134"
   xmlns="http://www.w3.org/2000/svg"
   xmlns:svg="http://www.w3.org/2000/svg">
  <defs
     id="defs138" />
  <path
     fill-rule="evenodd"
     clip-rule="evenodd"
     d="M 6.6153846,3.5384615 H 17.384615 c 1.699385,0 3.076923,1.3775847 3.076923,3.0769231 V 17.384615 c 0,1.699385 -1.377538,3.076923 -3.076923,3.076923 H 6.6153846 c -1.6993384,0 -3.0769231,-1.377538 -3.0769231,-3.076923 V 6.6153846 c 0,-1.6993384 1.3775847,-3.0769231 3.0769231,-3.0769231 z M 2,6.6153846 C 2,4.0663846 4.0663846,2 6.6153846,2 H 17.384615 C 19.933692,2 22,4.0663846 22,6.6153846 V 17.384615 C 22,19.933692 19.933692,22 17.384615,22 H 6.6153846 C 4.0663846,22 2,19.933692 2,17.384615 Z m 8.230785,7.8769234 v 4.430769 H 8.1538462 V 6.6153846 h 4.9615688 c 1.73077,0 2.538462,0.3692308 3.230739,1.1076923 0.807738,0.7384616 1.038461,1.7230769 1.038461,2.8307691 0,1.230769 -0.346153,2.215385 -1.038461,2.830769 C 15.653831,14 14.846185,14.369231 13.115415,14.369231 h -2.88463 z m 0,-5.7817849 v 3.0954919 h 3.699769 c 0.8548,0 1.547738,-0.692953 1.547738,-1.547753 0,-0.8547851 -0.692954,-1.5477389 -1.547754,-1.5477389 z"
     fill="white"
     id="path132"
     style="fill:#000000;fill-opacity:1;stroke-width:1.53846" />
</svg>
