<?xml version="1.0" encoding="UTF-8" standalone="no"?>
<svg
   width="24"
   height="24"
   viewBox="0 0 24 24"
   fill="none"
   version="1.1"
   id="svg184"
   xmlns="http://www.w3.org/2000/svg">
  <defs
     id="defs188" />
  <path
     id="path1594"
     style="fill:#000000;fill-opacity:1;stroke-width:1.42857"
     d="m 11.984375,2 c -0.09054,0 -0.179127,0.022128 -0.257813,0.0625 -0.07869,0.040372 -0.145163,0.09779 -0.191406,0.1679688 l -1.320312,2.0644531 c -0.1754,0.2790997 -0.2792971,0.6054561 -0.2792971,0.9589843 0,1.2280417 1.3418111,2.1853035 2.7656251,1.7480469 C 13.4234,6.7786676 13.960427,6.1650047 14.042969,5.4765625 14.094555,5.0392915 13.991206,4.62985 13.753906,4.2949219 L 12.433594,2.2304688 C 12.387352,2.1602902 12.320873,2.1028722 12.242188,2.0625 12.163502,2.0221279 12.074904,2 11.984375,2 Z M 12,8.0449219 c -0.567456,0 -1.03125,0.4180022 -1.03125,0.9296875 V 9.90625 H 5.8085938 c -1.7127012,0 -3.0937501,1.24666 -3.09375,2.791016 v 1.357422 c 0,0.790785 0.5158491,1.553501 1.3515624,1.804687 0.7531693,0.223286 1.5675649,0.05603 2.09375,-0.427734 l 2.2089844,-1.982422 2.1972654,1.982422 c 0.784128,0.707056 2.073294,0.707056 2.857422,0 l 2.207031,-1.982422 2.199219,1.982422 c 0.443571,0.400042 1.061458,0.586146 1.701172,0.511718 1.021427,-0.120943 1.744141,-0.985673 1.744141,-1.916015 v -1.322266 c 0.0037,-0.3671 -0.07299,-0.730284 -0.226563,-1.070312 -0.153429,-0.340043 -0.380969,-0.649714 -0.667969,-0.910157 -0.286857,-0.260456 -0.627906,-0.46678 -1.003906,-0.607421 C 19.00081,9.97653 18.596595,9.9053643 18.189453,9.90625 H 13.03125 V 8.9746094 C 13.03125,8.4629241 12.567456,8.0449219 12,8.0449219 Z m -3.6210938,7.3691401 -1.125,0.994141 c -0.6706421,0.604715 -1.568379,0.939453 -2.5175781,0.939453 -0.7531807,0 -1.4437078,-0.212977 -2.0214843,-0.566406 v 3.357422 C 2.7148438,21.162099 3.6424306,22 4.7773438,22 H 19.222656 c 1.134857,0 2.0625,-0.837901 2.0625,-1.861328 V 16.78125 c -0.773857,0.474429 -1.763459,0.696422 -2.826172,0.482422 -0.680998,-0.130285 -1.289971,-0.47335 -1.785156,-0.919922 l -1.03125,-0.929688 -1.115234,0.994141 c -1.341257,1.209428 -3.693338,1.218714 -5.0449221,0 z" />
</svg>
