<?xml version="1.0" encoding="UTF-8" standalone="no"?>
<svg
   width="24"
   height="24"
   viewBox="0 0 24 24"
   fill="none"
   version="1.1"
   id="svg1063"
   xmlns="http://www.w3.org/2000/svg">
  <defs
     id="defs1067" />
  <path
     id="path1846"
     style="fill:#000000;fill-opacity:1;stroke-width:1.04218"
     d="M 6.515625,2 C 5.8029974,2 5.2265625,2.5783974 5.2265625,3.2910156 V 15.65625 c 0,0.712642 0.576436,1.289062 1.2890625,1.289062 h 9.570313 c 0.712641,0 1.291015,-0.57642 1.291015,-1.289062 V 3.2910156 C 17.376953,2.578388 16.798579,2 16.085938,2 Z m 1.2910156,1.9355469 h 6.6660154 c 0.356312,0 0.646485,0.2882207 0.646485,0.6445312 v 2.3652344 c 0,0.3563105 -0.290173,0.6464844 -0.646485,0.6464844 H 7.8066406 c -0.3563105,0 -0.6445312,-0.2901739 -0.6445312,-0.6464844 V 4.5800781 c 0,-0.3563105 0.2882207,-0.6445312 0.6445312,-0.6445312 z M 18.398438,7.9140625 c -0.207811,0 -0.376954,0.1691109 -0.376954,0.3769531 v 7.2031254 c 0,0.20781 0.169143,0.376953 0.376954,0.376953 0.20781,0 0.375,-0.169143 0.375,-0.376953 V 8.2910156 c 0,-0.2078422 -0.16719,-0.3769531 -0.375,-0.3769531 z M 7.125,8.8925781 h 1.6855469 c 0.2215994,0 0.4003906,0.1787913 0.4003906,0.4003907 v 0.6933593 c 0,0.2215999 -0.1787912,0.4003909 -0.4003906,0.4003909 H 7.125 c -0.2215994,0 -0.4003906,-0.178791 -0.4003906,-0.4003909 V 9.2929688 c 0,-0.2215994 0.1787912,-0.4003907 0.4003906,-0.4003907 z m 3.226562,0 h 1.685547 c 0.2216,0 0.398438,0.1787913 0.398438,0.4003907 v 0.6933593 c 0,0.2215999 -0.176838,0.4003909 -0.398438,0.4003909 h -1.685547 c -0.221597,0 -0.4003901,-0.178791 -0.4003901,-0.4003909 V 9.2929688 c 0,-0.2215994 0.1787931,-0.4003907 0.4003901,-0.4003907 z m 3.238282,0 h 1.685547 c 0.221597,0 0.40039,0.1787913 0.40039,0.4003907 v 0.6933593 c 0,0.2215999 -0.178793,0.4003909 -0.40039,0.4003909 h -1.685547 c -0.2216,0 -0.400391,-0.178791 -0.400391,-0.4003909 V 9.2929688 c 0,-0.2215994 0.178791,-0.4003907 0.400391,-0.4003907 z M 7.1113281,11.365234 H 8.796875 c 0.2215994,0 0.4003906,0.178791 0.4003906,0.400391 v 0.695313 c 0,0.221597 -0.1787912,0.398437 -0.4003906,0.398437 H 7.1113281 c -0.2215994,0 -0.4003906,-0.17684 -0.4003906,-0.398437 v -0.695313 c 0,-0.2216 0.1787912,-0.400391 0.4003906,-0.400391 z m 3.2265629,0 h 1.685547 c 0.221597,0 0.398437,0.178791 0.398437,0.400391 v 0.695313 c 0,0.221597 -0.17684,0.398437 -0.398437,0.398437 h -1.685547 c -0.2216,0 -0.400391,-0.17684 -0.400391,-0.398437 v -0.695313 c 0,-0.2216 0.178791,-0.400391 0.400391,-0.400391 z m 3.238281,0 h 1.685547 c 0.2216,0 0.40039,0.178791 0.40039,0.400391 v 0.695313 c 0,0.221597 -0.17879,0.398437 -0.40039,0.398437 h -1.685547 c -0.2216,0 -0.400391,-0.17684 -0.400391,-0.398437 v -0.695313 c 0,-0.2216 0.178791,-0.400391 0.400391,-0.400391 z m -6.4648439,2.47461 H 8.796875 c 0.2215994,0 0.4003906,0.176837 0.4003906,0.398437 v 0.695313 c 0,0.2216 -0.1787912,0.40039 -0.4003906,0.40039 H 7.1113281 c -0.2215994,0 -0.4003906,-0.17879 -0.4003906,-0.40039 v -0.695313 c 0,-0.2216 0.1787912,-0.398437 0.4003906,-0.398437 z m 3.2265629,0 h 1.685547 c 0.221597,0 0.398437,0.176837 0.398437,0.398437 v 0.695313 c 0,0.2216 -0.17684,0.40039 -0.398437,0.40039 h -1.685547 c -0.2216,0 -0.400391,-0.17879 -0.400391,-0.40039 v -0.695313 c 0,-0.2216 0.178791,-0.398437 0.400391,-0.398437 z m 3.238281,0 h 1.685547 c 0.2216,0 0.40039,0.176837 0.40039,0.398437 v 0.695313 c 0,0.2216 -0.17879,0.40039 -0.40039,0.40039 h -1.685547 c -0.2216,0 -0.400391,-0.17879 -0.400391,-0.40039 v -0.695313 c 0,-0.2216 0.178791,-0.398437 0.400391,-0.398437 z m -5.9843751,3.644531 c -0.2375444,0 -0.4296875,0.192174 -0.4296875,0.429687 v 3.65625 C 7.1621094,21.807825 7.3542525,22 7.5917969,22 h 7.3105471 c 0.237544,0 0.43164,-0.192175 0.43164,-0.429688 v -3.65625 c 0,-0.237513 -0.194096,-0.429687 -0.43164,-0.429687 h -1.289063 c -0.237544,0 -0.429687,0.192174 -0.429687,0.429687 v 2.794922 c 0,0.237513 -0.194096,0.431641 -0.431641,0.431641 h -1.181641 c -0.237543,0 -0.429687,-0.194128 -0.429687,-0.431641 v -2.794922 c 0,-0.237513 -0.194096,-0.429687 -0.431641,-0.429687 z" />
</svg>
