<?xml version="1.0" encoding="UTF-8" standalone="no"?>
<svg
   width="24"
   height="24"
   viewBox="0 0 24 24"
   fill="none"
   version="1.1"
   id="svg134"
   sodipodi:docname="phone.svg"
   inkscape:version="1.2 (dc2aeda, 2022-05-15)"
   xmlns:inkscape="http://www.inkscape.org/namespaces/inkscape"
   xmlns:sodipodi="http://sodipodi.sourceforge.net/DTD/sodipodi-0.dtd"
   xmlns="http://www.w3.org/2000/svg"
   xmlns:svg="http://www.w3.org/2000/svg">
  <sodipodi:namedview
     id="namedview1380"
     pagecolor="#ffffff"
     bordercolor="#000000"
     borderopacity="0.25"
     inkscape:showpageshadow="2"
     inkscape:pageopacity="0.0"
     inkscape:pagecheckerboard="0"
     inkscape:deskcolor="#d1d1d1"
     showgrid="false"
     inkscape:zoom="9.8333333"
     inkscape:cx="0.76271186"
     inkscape:cy="12"
     inkscape:window-width="1309"
     inkscape:window-height="430"
     inkscape:window-x="6"
     inkscape:window-y="493"
     inkscape:window-maximized="0"
     inkscape:current-layer="svg134" />
  <defs
     id="defs138" />
  <path
     d="m 8.2356688,9.0641401 c 0.6801584,1.4166299 1.6073544,2.7443449 2.7815872,3.9185689 1.174235,1.174254 2.501921,2.10141 3.91863,2.781569 0.12177,0.05856 0.182705,0.08779 0.259837,0.110215 0.273959,0.0799 0.610434,0.02252 0.84242,-0.143596 0.06528,-0.04671 0.121179,-0.102612 0.232876,-0.214309 0.34161,-0.341708 0.512464,-0.512464 0.684208,-0.624161 0.647863,-0.421211 1.482976,-0.421211 2.130741,0 0.171842,0.111697 0.342598,0.282453 0.684306,0.624161 l 0.190409,0.190409 c 0.519377,0.519377 0.779017,0.779016 0.920046,1.057914 0.280576,0.554635 0.280576,1.209709 0,1.764343 -0.141029,0.278897 -0.400669,0.538537 -0.920046,1.057915 l -0.154066,0.153966 c -0.5176,0.5176 -0.77635,0.77635 -1.128231,0.974068 -0.390397,0.219246 -0.996782,0.376966 -1.444558,0.375681 -0.403533,-0.0013 -0.679369,-0.0795 -1.230942,-0.236035 C 13.038514,20.013416 10.241321,18.425951 7.9076877,16.092259 5.5740541,13.758664 3.9865504,10.961434 3.1451716,7.9970706 2.988611,7.4454678 2.9103296,7.1696713 2.9091294,6.7661192 2.9077968,6.3183327 3.0654863,5.7119577 3.2848001,5.3215406 3.4824441,4.9697091 3.7412291,4.710919 4.2588014,4.1933488 L 4.4128468,4.0393033 C 4.9321947,3.5199564 5.1918637,3.2602825 5.4707514,3.119223 c 0.5546446,-0.280537 1.2096587,-0.280537 1.7643034,0 0.2788876,0.1410595 0.5385566,0.4007324 1.0579045,0.9200803 l 0.1904384,0.1904384 c 0.3416495,0.3416495 0.5124743,0.5124743 0.6241617,0.6842471 0.4211807,0.6478047 0.4211807,1.4829369 0,2.1307416 C 8.995872,7.216513 8.8250472,7.3873378 8.4833977,7.7289873 8.3716906,7.8406944 8.3158321,7.8965529 8.2690792,7.961843 8.1029357,8.1938692 8.0455761,8.5302942 8.1254332,8.8042637 c 0.022478,0.077102 0.051731,0.1380266 0.1102356,0.2598764 z"
     fill="#2c2b2b"
     id="path132"
     style="fill:none;stroke:#000000;stroke-width:1.81821;stroke-dasharray:none;stroke-opacity:1" />
</svg>
