<?xml version="1.0" encoding="UTF-8" standalone="no"?>
<svg
   width="24"
   height="24"
   viewBox="0 0 24 24"
   fill="none"
   version="1.1"
   id="svg1771"
   xmlns="http://www.w3.org/2000/svg"
   xmlns:svg="http://www.w3.org/2000/svg">
  <defs
     id="defs1775" />
  <path
     fill-rule="evenodd"
     clip-rule="evenodd"
     d="m 14.429029,19.086252 -3.419355,-3.419447 -9.0055381,6.330074 -0.00309,0.0031 0.00128,-0.0018 -0.00178,0.0013 0.00303,-0.003 L 8.3333637,12.990368 4.9140925,9.5709222 C 4.6563807,9.3131702 4.662525,8.9025666 4.9628734,8.696073 5.913424,8.0426555 8.1756417,6.9007641 11.722594,7.577419 l 3.364564,-4.9948741 c 0.463916,-0.6886385 1.440716,-0.7830015 2.027793,-0.1958774 l 2.248895,2.2489868 v -2.77e-5 l 2.248987,2.24907 c 0.587078,0.5871149 0.492742,1.5640442 -0.195878,2.0279411 l -4.994597,3.3647483 c 0.676609,3.547137 -0.465208,5.809429 -1.118626,6.760081 -0.20641,0.300376 -0.617014,0.306474 -0.874703,0.04878 z"
     fill="white"
     id="path1769"
     style="fill:#000000;fill-opacity:1;stroke-width:0.92395" />
</svg>
