<?xml version="1.0" encoding="UTF-8" standalone="no"?>
<svg
   width="24"
   height="24"
   viewBox="0 0 24 24"
   fill="none"
   version="1.1"
   id="svg184"
   xmlns="http://www.w3.org/2000/svg">
  <defs
     id="defs188" />
  <path
     id="path1749"
     style="fill:#000000;fill-opacity:1;stroke-width:1.42857"
     d="M 5.6582031,2.0019531 C 4.3926634,2.0621698 3.4277344,3.1621538 3.4277344,4.4453125 v 0.6972656 h 1.0664062 c 5.5334174,0 10.7448334,2.2118021 14.3398434,5.9804689 l 0.0078,0.0098 0.486328,0.550782 0.298828,-0.236328 C 20.727809,10.584795 20.936713,8.8969943 19.875,7.8632812 16.134276,4.2171712 11.359313,2.3463941 5.9140625,2.0039062 5.8272015,1.9984377 5.7425724,1.9979387 5.6582031,2.0019531 Z M 3.4277344,6.390625 v 13.732422 c 0,1.539998 1.7225808,2.423094 2.9335937,1.501953 l 1.96875,-1.498047 v 0.0039 c 0,0.331571 0.1297468,0.648384 0.359375,0.882813 0.2296284,0.234428 0.5404777,0.367187 0.8652344,0.367187 0.3247426,0 0.6356055,-0.132759 0.8652345,-0.367187 0.229642,-0.234429 0.359375,-0.551242 0.359375,-0.882813 v -2.503906 c 0.0012,-0.158429 0.06103,-0.308971 0.167969,-0.423828 0.106943,-0.115 0.253217,-0.184074 0.408203,-0.193359 0.155,-0.0094 0.308248,0.04143 0.427734,0.142578 0.119486,0.101285 0.195273,0.245059 0.214844,0.402344 v 0.699218 c 0,0.331429 0.129732,0.650338 0.359375,0.884766 0.229628,0.234429 0.540492,0.365234 0.865234,0.365234 0.324758,0 0.637545,-0.130805 0.867188,-0.365234 0.229629,-0.234428 0.357422,-0.553337 0.357422,-0.884766 v -2.796875 c 1.010184,-0.756228 2.554452,-1.954794 3.90625,-3.009765 L 17.949219,11.986328 C 14.595379,8.4764463 9.7104103,6.390625 4.4941406,6.390625 Z m 4.2871094,2.4921875 c 0.2427568,0 0.4748274,0.098209 0.6464843,0.2734375 0.171657,0.1752141 0.2695313,0.4123565 0.2695313,0.6601562 v 0.00195 c -8.57e-5,0.1226999 -0.024242,0.2441076 -0.070312,0.3574216 -0.046071,0.113329 -0.114176,0.216021 -0.1992188,0.302735 -0.085057,0.0867 -0.1857894,0.156254 -0.296875,0.203125 -0.1110713,0.04689 -0.2294095,0.07039 -0.3496093,0.07031 -0.1201998,-9e-5 -0.2405484,-0.02524 -0.3515626,-0.07226 -0.1110283,-0.04703 -0.2119465,-0.114358 -0.296875,-0.201172 -0.084943,-0.08683 -0.151337,-0.191303 -0.1972656,-0.304688 -0.045929,-0.1134 -0.070383,-0.234722 -0.070312,-0.3574218 0,-0.2477997 0.097889,-0.4849421 0.2695313,-0.6601562 C 7.2400166,8.9810217 7.4720869,8.8828125 7.7148438,8.8828125 Z m 3.6425782,2.4999995 c 0.242743,0 0.476781,0.100174 0.648437,0.275391 0.171643,0.175228 0.267579,0.412358 0.267579,0.660156 0,0.2478 -0.09593,0.484929 -0.267579,0.660157 -0.171656,0.175213 -0.405694,0.273437 -0.648437,0.273437 -0.242757,0 -0.474843,-0.09822 -0.646484,-0.273437 -0.171658,-0.175228 -0.267579,-0.412357 -0.267579,-0.660157 0,-0.247798 0.09592,-0.484928 0.267579,-0.660156 0.171641,-0.175214 0.403727,-0.275391 0.646484,-0.275391 z m -3.6367189,3.123047 c 0.2440426,0 0.4778194,0.09923 0.6503907,0.275391 0.1725713,0.176171 0.2695312,0.414934 0.2695312,0.664062 0,0.249143 -0.09696,0.487892 -0.2695312,0.664063 -0.1725713,0.176186 -0.4063481,0.275391 -0.6503907,0.275391 -0.2440568,0 -0.4797868,-0.0992 -0.6523437,-0.275391 -0.1725713,-0.176171 -0.2695313,-0.41492 -0.2695313,-0.664063 0,-0.249128 0.09696,-0.487891 0.2695313,-0.664062 0.1725569,-0.176158 0.4082869,-0.275391 0.6523437,-0.275391 z" />
</svg>
