<?xml version="1.0" encoding="UTF-8" standalone="no"?>
<svg
   width="24"
   height="24"
   viewBox="0 0 24 24"
   fill="none"
   version="1.1"
   id="svg4"
   xmlns="http://www.w3.org/2000/svg"
   xmlns:svg="http://www.w3.org/2000/svg">
  <defs
     id="defs8" />
  <path
     id="path855"
     style="color:#000000;fill:#000000;stroke-width:0.869532;stroke-linecap:round;stroke-linejoin:round;-inkscape-stroke:none"
     d="M 12.000025,2.0002041 C 10.984382,2.0002037 9.9689823,2.3486547 9.1502698,3.0463596 8.7377104,3.3979384 8.224953,3.6112319 7.6846332,3.6543526 5.5400969,3.8254852 3.8256895,5.5398926 3.6545569,7.6844289 3.6114359,8.2247482 3.3981429,8.737506 3.0465639,9.1500655 c -1.3954098,1.6374245 -1.3954273,4.0621225 0,5.6995095 0.3516043,0.412616 0.5648735,0.92535 0.607993,1.465637 0.1711302,2.144585 1.885559,3.858934 4.0300763,4.030076 0.540425,0.04316 1.0531278,0.256417 1.4656366,0.607993 1.6374292,1.395344 4.0621182,1.395362 5.6995102,0 0.412565,-0.351601 0.925243,-0.564831 1.465637,-0.607993 2.144566,-0.17114 3.858936,-1.88551 4.030075,-4.030076 0.04316,-0.540392 0.256391,-1.053072 0.607994,-1.465637 1.395362,-1.637392 1.395343,-4.06208 0,-5.6995095 C 20.601909,8.7375571 20.388656,8.2248553 20.345492,7.6844289 20.17435,5.5399116 18.460002,3.8254828 16.315417,3.6543526 15.77513,3.6112331 15.262396,3.3979639 14.84978,3.0463596 14.031086,2.348646 13.015668,2.0002045 12.000025,2.0002041 Z m 0,1.8120908 c 0.593339,-4e-7 1.187475,0.2059968 1.671131,0.6181828 0.703686,0.5996343 1.578342,0.9624172 2.499904,1.0359656 1.267062,0.101107 2.261229,1.0953378 2.362342,2.3623414 0.0736,0.9214771 0.436194,1.7961839 1.035965,2.4999043 0.824345,0.967364 0.824328,2.374953 0,3.342263 -0.599745,0.703736 -0.962368,1.578447 -1.035965,2.499904 -0.101115,1.267081 -1.095261,2.261226 -2.362342,2.362341 -0.921455,0.0736 -1.796166,0.436219 -2.499904,1.035966 -0.967309,0.824327 -2.374898,0.824345 -3.342263,0 C 9.6251734,18.969392 8.7504676,18.606794 7.828989,18.533197 6.5619854,18.432085 5.5677546,17.437918 5.4666476,16.170856 5.3930991,15.249293 5.0303163,14.374638 4.430682,13.670952 3.60631,12.703638 3.6062925,11.296058 4.430682,10.328689 5.0303416,9.6250197 5.3931003,8.7503689 5.4666476,7.8287847 5.5677523,6.5618001 6.5620045,5.567548 7.828989,5.4664433 8.7505728,5.3928956 9.6252239,5.0301374 10.328893,4.4304777 10.812577,4.0182829 11.406686,3.8122952 12.000025,3.8122949 Z m 3.637768,3.6411646 A 0.90933892,0.90933892 0 0 0 14.994135,7.7200932 L 7.7202976,14.99393 a 0.90933892,0.90933892 0 0 0 0,1.285617 0.90933892,0.90933892 0 0 0 1.2856164,0 l 7.273838,-7.2738374 a 0.90933892,0.90933892 0 0 0 0,-1.2856164 0.90933892,0.90933892 0 0 0 -0.641959,-0.2666337 z M 9.2725477,7.9086051 c -0.7425558,0 -1.3637383,0.6211825 -1.3637383,1.3637383 0,0.7425556 0.6211825,1.3637386 1.3637383,1.3637386 0.7425563,0 1.3637383,-0.621183 1.3637383,-1.3637386 0,-0.7425558 -0.621182,-1.3637383 -1.3637383,-1.3637383 z m 5.4549543,5.4549529 c -0.742679,0 -1.363739,0.621061 -1.363739,1.363739 0,0.742679 0.62106,1.363738 1.363739,1.363738 0.742678,0 1.363738,-0.621059 1.363738,-1.363738 0,-0.742678 -0.62106,-1.363739 -1.363738,-1.363739 z" />
</svg>
