<?xml version="1.0" encoding="UTF-8" standalone="no"?>
<svg
   width="24"
   height="24"
   viewBox="0 0 24 24"
   fill="none"
   version="1.1"
   id="svg4"
   xmlns="http://www.w3.org/2000/svg"
   xmlns:svg="http://www.w3.org/2000/svg">
  <defs
     id="defs8" />
  <path
     id="path2"
     style="color:#000000;fill:#000000;stroke-linecap:round;stroke-linejoin:round;-inkscape-stroke:none"
     d="m 4.4316406,2.9980469 c -0.7036734,0.00308 -1.2361898,0.044426 -1.7929687,0.328125 -0.5643906,0.2875567 -1.0249433,0.7481094 -1.3125,1.3125 C 0.94790608,5.3810438 1,6.0791211 1,7.1992188 V 8.5 a 1.0001,1.0001 0 0 0 1,1 c 1.3925592,0 2.5,1.10744 2.5,2.5 0,1.39256 -1.1074408,2.5 -2.5,2.5 a 1.0001,1.0001 0 0 0 -1,1 v 1.300781 c 0,1.120098 -0.0521232,1.818153 0.3261719,2.560547 0.2875463,0.564326 0.7479943,1.024944 1.3125,1.3125 C 3.3810493,21.052114 4.0791211,21 5.1992188,21 H 18.800781 c 1.120098,0 1.818147,0.05214 2.560547,-0.326172 0.564441,-0.287545 1.024955,-0.748059 1.3125,-1.3125 C 23.052144,18.618928 23,17.920879 23,16.800781 V 15.5 a 1.0001,1.0001 0 0 0 -1,-1 c -1.39256,0 -2.5,-1.10744 -2.5,-2.5 0,-1.39256 1.10744,-2.5 2.5,-2.5 a 1.0001,1.0001 0 0 0 1,-1 V 7.1992188 C 23,6.0791211 23.052114,5.3810493 22.673828,4.6386719 22.386272,4.0741662 21.925654,3.6137182 21.361328,3.3261719 20.618934,2.9478768 19.920879,3 18.800781,3 H 5.1992188 C 4.9191943,3 4.6661984,2.9970203 4.4316406,2.9980469 Z M 5.1992188,5 H 18.800781 c 1.120098,0 1.53914,0.051691 1.652344,0.109375 0.188274,0.095933 0.341656,0.2493471 0.4375,0.4375 C 20.948338,5.6601359 21,6.0791211 21,7.1992188 V 7.703125 C 19.01805,8.1725711 17.5,9.8806735 17.5,12 c 0,2.119327 1.51805,3.827428 3.5,4.296875 v 0.503906 c 0,1.120098 -0.05169,1.539146 -0.109375,1.652344 -0.09585,0.188158 -0.249342,0.341646 -0.4375,0.4375 C 20.339927,18.948309 19.920879,19 18.800781,19 H 5.1992188 C 4.0791211,19 3.6601359,18.948338 3.546875,18.890625 3.3587221,18.794781 3.2053079,18.641399 3.109375,18.453125 3.051691,18.339921 3,17.920879 3,16.800781 V 16.296875 C 4.98195,15.827428 6.5,14.119327 6.5,12 6.5,9.8806735 4.98195,8.1725711 3,7.703125 V 7.1992188 C 3,6.0791211 3.0516617,5.6601414 3.109375,5.546875 3.2052975,5.358607 3.358607,5.2052975 3.546875,5.109375 3.6601414,5.0516617 4.0791211,5 5.1992188,5 Z M 10,6 A 1,1 0 0 0 9,7 v 1 a 1,1 0 0 0 1,1 1,1 0 0 0 1,-1 V 7 A 1,1 0 0 0 10,6 Z m 0,4.5 a 1,1 0 0 0 -1,1 v 1 a 1,1 0 0 0 1,1 1,1 0 0 0 1,-1 v -1 a 1,1 0 0 0 -1,-1 z m 0,4.5 a 1,1 0 0 0 -1,1 v 1 a 1,1 0 0 0 1,1 1,1 0 0 0 1,-1 v -1 a 1,1 0 0 0 -1,-1 z" />
</svg>
