<?xml version="1.0" encoding="UTF-8" standalone="no"?>
<svg
   width="24"
   height="24"
   viewBox="0 0 24 24"
   fill="none"
   version="1.1"
   id="svg144"
   xmlns="http://www.w3.org/2000/svg"
   xmlns:svg="http://www.w3.org/2000/svg">
  <defs
     id="defs148" />
  <path
     d="M 19.692286,19.142857 H 4.3076857 C 3.6956571,19.142857 3.1086843,18.892 2.6759071,18.445486 2.2431314,17.998972 2,17.393372 2,16.7619 v -1.5873 c 0,-0.210486 0.081044,-0.412357 0.2253029,-0.5612 0.1442585,-0.148828 0.3399157,-0.232443 0.5439285,-0.232443 0.6120372,0 1.1990115,-0.250857 1.6317829,-0.697371 C 4.8337857,13.237072 5.0769286,12.631472 5.0769286,12 c 0,-0.631471 -0.2431429,-1.237071 -0.6759143,-1.683586 C 3.9682429,9.8699001 3.3812686,9.619043 2.7692314,9.619043 c -0.2040128,0 -0.39967,-0.083614 -0.5439285,-0.2324571 C 2.0810437,9.2377573 2,9.0358859 2,8.8254001 v -1.5873 C 2,6.6066287 2.2431314,6.001023 2.6759071,5.5545073 3.1086843,5.107993 3.6956571,4.857143 4.3076857,4.857143 H 19.692286 c 0.612,0 1.199,0.25085 1.631857,0.6973643 C 21.756857,6.001023 22,6.6066287 22,7.2381001 v 1.5873 c 0,0.2104858 -0.081,0.4123572 -0.225286,0.5611858 -0.144285,0.1488428 -0.34,0.2324571 -0.544,0.2324571 -0.612,0 -1.199,0.2508571 -1.631714,0.697371 -0.432857,0.446515 -0.675857,1.052115 -0.675857,1.683586 0,0.631472 0.243,1.237072 0.675857,1.683586 0.432714,0.446514 1.019714,0.697371 1.631714,0.697371 0.204,0 0.399715,0.08361 0.544,0.232443 C 21.919,14.762243 22,14.964114 22,15.1746 v 1.5873 c 0,0.631472 -0.243143,1.237072 -0.675857,1.683586 -0.432857,0.446514 -1.019857,0.697371 -1.631857,0.697371 z M 3.5384571,15.888886 V 16.7619 c 0,0.210486 0.081043,0.412357 0.2253,0.5612 0.1442715,0.148843 0.3399286,0.232457 0.5439286,0.232457 H 19.692286 c 0.204,0 0.399714,-0.08361 0.544,-0.232457 0.144143,-0.148843 0.225285,-0.350714 0.225285,-0.5612 V 15.888886 C 19.592143,15.706729 18.810429,15.220057 18.249,14.511314 17.687429,13.802572 17.380714,12.915357 17.380714,12 c 0,-0.915357 0.306715,-1.802571 0.868286,-2.5113141 0.561429,-0.7087429 1.343143,-1.1954143 2.212571,-1.3775715 V 7.2381001 c 0,-0.2105 -0.08114,-0.4123571 -0.225285,-0.5612 -0.144286,-0.1488428 -0.34,-0.2324571 -0.544,-0.2324571 H 4.3076857 c -0.204,0 -0.3996571,0.083614 -0.5439286,0.2324571 -0.1442571,0.1488429 -0.2253,0.3507 -0.2253,0.5612 V 8.1111144 C 4.4079143,8.2932716 5.1896,8.779943 5.7510571,9.4886859 6.3125286,10.197429 6.6192429,11.084643 6.6192429,12 c 0,0.915357 -0.3067143,1.802572 -0.8681858,2.511314 -0.5614571,0.708743 -1.3431428,1.195415 -2.2126,1.377572 z"
     fill="#ffffff"
     id="path132"
     style="fill:#000000;fill-opacity:1;stroke:none;stroke-width:1.42857;stroke-opacity:1" />
  <path
     d="m 9.6923,7.2381001 c -0.204,0 -0.3996571,-0.083628 -0.5439143,-0.2324571 C 9.0041143,6.8568001 8.9230714,6.6549287 8.9230714,6.444443 V 5.6507944 c 0,-0.21049 0.081043,-0.4123585 0.2253143,-0.5611957 C 9.2926429,4.9407597 9.4883,4.857143 9.6923,4.857143 c 0.2040143,0 0.399671,0.083617 0.543929,0.2324557 0.144271,0.1488372 0.225314,0.3507057 0.225314,0.5611957 V 6.444443 c 0,0.2104857 -0.08104,0.4123571 -0.225314,0.5612 C 10.091971,7.1544716 9.8963143,7.2381001 9.6923,7.2381001 Z"
     fill="#ffffff"
     id="path134"
     style="fill:#000000;fill-opacity:1;stroke:none;stroke-width:1.42857;stroke-opacity:1" />
  <path
     d="m 9.6923,19.142857 c -0.204,0 -0.3996571,-0.08361 -0.5439143,-0.232457 C 9.0041143,18.761572 8.9230714,18.5597 8.9230714,18.3492 v -0.793643 c 0,-0.210485 0.081043,-0.412357 0.2253143,-0.5612 C 9.2926429,16.845514 9.4883,16.7619 9.6923,16.7619 c 0.2040143,0 0.399671,0.08361 0.543929,0.232457 0.144271,0.148843 0.225314,0.350715 0.225314,0.5612 V 18.3492 c 0,0.2105 -0.08104,0.412372 -0.225314,0.5612 -0.144258,0.148843 -0.3399147,0.232457 -0.543929,0.232457 z"
     fill="#ffffff"
     id="path136"
     style="fill:#000000;fill-opacity:1;stroke:none;stroke-width:1.42857;stroke-opacity:1" />
  <path
     d="M 9.6923714,10.412686 C 9.5144571,10.411629 9.3424143,10.346972 9.2055143,10.229743 9.0686286,10.1125 8.9753429,9.9499287 8.9415714,9.7697144 8.9078,9.5894859 8.9356143,9.4027716 9.0202857,9.2413287 c 0.084671,-0.1614286 0.2209714,-0.2876 0.3856714,-0.357 0.1647,-0.069414 0.3476143,-0.077771 0.5176286,-0.023657 0.1700003,0.054114 0.3165713,0.1673428 0.4147433,0.3204285 0.09817,0.1530715 0.141885,0.3365286 0.123685,0.5191286 -0.0182,0.1826 -0.09719,0.3530282 -0.223485,0.4823002 -0.147415,0.145028 -0.3424861,0.227228 -0.5461576,0.230157 z"
     fill="#ffffff"
     id="path138"
     style="fill:#000000;fill-opacity:1;stroke:none;stroke-width:1.42857;stroke-opacity:1" />
  <path
     d="m 9.6923714,12.793629 c -0.1779143,-0.0011 -0.3499571,-0.0657 -0.4868571,-0.182943 -0.1368857,-0.117229 -0.2301714,-0.2798 -0.2639429,-0.460029 -0.033771,-0.180214 -0.00596,-0.366943 0.078714,-0.528371 0.084671,-0.161443 0.2209714,-0.2876 0.3856714,-0.357014 0.1647,-0.0694 0.3476143,-0.07777 0.5176286,-0.02366 0.1700003,0.05411 0.3165713,0.167357 0.4147433,0.320428 0.09817,0.153086 0.141885,0.336543 0.123685,0.519129 -0.0182,0.1826 -0.09719,0.353043 -0.223485,0.4823 -0.07316,0.07226 -0.159429,0.1289 -0.2538576,0.166671 -0.092471,0.04067 -0.1917857,0.06224 -0.2923,0.06349 z"
     fill="#ffffff"
     id="path140"
     style="fill:#000000;fill-opacity:1;stroke:none;stroke-width:1.42857;stroke-opacity:1" />
  <path
     d="M 9.6923714,15.174586 C 9.5144571,15.173529 9.3424143,15.108872 9.2055143,14.991643 9.0686286,14.8744 8.9753429,14.711829 8.9415714,14.531614 8.9078,14.3514 8.9356143,14.164672 9.0202857,14.003229 c 0.084671,-0.161429 0.2209714,-0.2876 0.3856714,-0.357 0.1647,-0.06941 0.3476143,-0.07777 0.5176286,-0.02366 0.1700003,0.05411 0.3165713,0.167343 0.4147433,0.320428 0.09817,0.153072 0.141885,0.336529 0.123685,0.519129 -0.0182,0.1826 -0.09719,0.353043 -0.223485,0.4823 -0.147415,0.145028 -0.3424861,0.227243 -0.5461576,0.230157 z"
     fill="#ffffff"
     id="path142"
     style="fill:#000000;fill-opacity:1;stroke:none;stroke-width:1.42857;stroke-opacity:1" />
</svg>
