<?xml version="1.0" encoding="UTF-8" standalone="no"?>
<svg
   width="24"
   height="24"
   viewBox="0 0 24 24"
   fill="none"
   version="1.1"
   id="svg184"
   xmlns="http://www.w3.org/2000/svg"
   xmlns:svg="http://www.w3.org/2000/svg">
  <defs
     id="defs188" />
  <path
     d="M 5.1819182,10.636557 V 7.2733943 c 0,-1.5272031 0,-2.2908047 0.2972127,-2.8741135 C 5.7405669,3.8861803 6.1577263,3.4690209 6.6708268,3.207585 7.2541355,2.9103723 8.0177371,2.9103723 9.5449403,2.9103723 h 5.8173627 c 1.527239,0 2.290768,0 2.87414,0.2972127 0.51311,0.2614359 0.930233,0.6785953 1.191651,1.1916958 0.297231,0.5833088 0.297231,1.3469104 0.297231,2.8741135 v 9.4532147 c 0,1.52724 0,2.290769 -0.297231,2.874141 -0.261418,0.51311 -0.678541,0.930233 -1.191651,1.19165 -0.583372,0.297231 -1.346901,0.297231 -2.87414,0.297231 h -2.908682 m -1.817925,-9.998592 h 5.453777 m -1.817926,3.635852 h 1.817926 M 8.8177699,7.4551869 H 16.089473 M 6.9998441,20.180668 V 14.726891 M 9.7267328,17.45378 H 4.2729553"
     stroke="#f50f64"
     stroke-width="2"
     stroke-linecap="round"
     stroke-linejoin="round"
     id="path182"
     style="stroke:#000000;stroke-opacity:1" />
</svg>
