<?xml version="1.0" encoding="UTF-8" standalone="no"?>
<svg
   width="24"
   height="24"
   viewBox="0 0 24 24"
   fill="none"
   version="1.1"
   id="svg184"
   xmlns="http://www.w3.org/2000/svg">
  <defs
     id="defs188" />
  <path
     id="path974"
     style="fill:#000000;fill-opacity:1;stroke-width:1.42857"
     d="M 10.533203,2 C 10.308182,2.0039219 10.081902,2.0492086 9.8632812,2.140625 8.9901821,2.50629 8.5954039,3.4690164 8.984375,4.2910156 9.1592033,4.6610153 9.7817524,5.1628447 10.412109,5.6035156 7.2307265,4.2928455 2,5.1895034 2,11.105469 2,15.582121 7.4415801,22 9.8164062,22 c 1.0775848,0 1.4666258,-0.652344 2.0917968,-0.652344 0.635856,0 0.840123,0.650391 2.21875,0.650391 C 16.503537,21.998047 22,15.602792 22,11.105469 22,4.7741753 16.009784,4.1921112 12.951172,5.9121094 13.227372,5.0154389 13.986411,3.7539062 16.037109,3.7539062 V 2.9042969 c -2.285169,0 -3.388002,1.1584226 -3.853515,2.34375 0.1069,-0.8396563 0.172772,-1.8419191 -0.03516,-2.28125 C 11.857224,2.3502997 11.208267,1.9882343 10.533203,2 Z" />
</svg>
