<?xml version="1.0" encoding="UTF-8" standalone="no"?>
<svg
   width="24"
   height="24"
   viewBox="0 0 24 24"
   fill="none"
   version="1.1"
   id="svg190"
   xmlns="http://www.w3.org/2000/svg">
  <defs
     id="defs194" />
  <path
     id="path1059"
     style="color:#000000;clip-rule:evenodd;fill:#000000;fill-rule:evenodd;stroke-width:0.0358225;-inkscape-stroke:none"
     d="m 12.695312,2.7382812 c -0.393181,0 -0.71289,0.3177442 -0.71289,0.7109376 v 1.4765624 c 0,0.3931935 0.319709,0.7128907 0.71289,0.7128907 h 1.822266 c 0.182109,0 0.328125,0.1460533 0.328125,0.328125 v 0.78125 c 0,0.1820716 -0.146016,0.3300781 -0.328125,0.3300781 H 6.734375 c -0.9301308,0 -1.7284485,0.6633074 -1.8964844,1.578125 l -0.8613281,4.6875 c -0.2174453,1.183855 0.6928549,2.275391 1.8964844,2.275391 H 18.236328 c 1.195877,0 2.104865,-1.077568 1.900391,-2.25586 L 19.322266,8.6757812 C 19.162166,7.7522564 18.361158,7.078125 17.423828,7.078125 H 16.6875 c -0.182109,0 -0.330078,-0.1480065 -0.330078,-0.3300781 v -0.78125 c 0,-0.1820717 0.147969,-0.328125 0.330078,-0.328125 h 1.822266 c 0.393132,0 0.71289,-0.3196949 0.71289,-0.7128907 V 3.4492188 c 0,-0.3931957 -0.319758,-0.7109376 -0.71289,-0.7109376 z M 7.1386719,9.2832031 h 3.1250001 c 0.469701,0 0.849609,0.3818474 0.849609,0.8515629 v 2.429687 c 0,0.469702 -0.379908,0.84961 -0.849609,0.849609 H 7.1386719 c -0.4697026,0 -0.8496094,-0.379907 -0.8496094,-0.849609 v -2.429687 c 0,-0.4697155 0.3799068,-0.8515629 0.8496094,-0.8515629 z m 6.9453121,0 h 0.08594 c 0.373771,0 0.675781,0.3038996 0.675781,0.6777344 0,0.3738355 -0.30201,0.6757815 -0.675781,0.6757815 h -0.08594 c -0.373769,0 -0.677734,-0.301946 -0.677734,-0.6757815 0,-0.3738348 0.303965,-0.6777344 0.677734,-0.6777344 z m 2.863282,0 h 0.08789 c 0.373771,0 0.675782,0.3039035 0.675782,0.6777344 0,0.3738315 -0.302011,0.6757815 -0.675782,0.6757815 h -0.08789 c -0.373898,0 -0.675782,-0.301946 -0.675782,-0.6757815 0,-0.3738348 0.301884,-0.6777344 0.675782,-0.6777344 z m -2.863282,2.7773439 h 0.08594 c 0.373771,0 0.675781,0.303912 0.675781,0.677734 0,0.373835 -0.30201,0.675781 -0.675781,0.675781 h -0.08594 c -0.373769,0 -0.677734,-0.301946 -0.677734,-0.675781 0,-0.373822 0.303965,-0.677734 0.677734,-0.677734 z m 2.863282,0 h 0.08789 c 0.37377,0 0.675782,0.303916 0.675782,0.677734 0,0.373831 -0.302011,0.675781 -0.675782,0.675781 h -0.08789 c -0.373898,0 -0.675782,-0.301946 -0.675782,-0.675781 0,-0.373822 0.301885,-0.677734 0.675782,-0.677734 z M 3.0585938,16.972656 C 2.4736513,16.972656 2,17.448163 2,18.033203 v 2.169922 c 0,0.584919 0.4736487,1.058594 1.0585938,1.058594 H 20.941406 C 21.526328,21.261719 22,20.788045 22,20.203125 v -2.169922 c 0,-0.585041 -0.473674,-1.060547 -1.058594,-1.060547 z" />
</svg>
