<?xml version="1.0" encoding="UTF-8" standalone="no"?>
<!-- Created with Inkscape (http://www.inkscape.org/) -->

<svg
   width="24"
   height="24"
   viewBox="0 0 6.3499999 6.35"
   version="1.1"
   id="svg577"
   inkscape:version="1.2 (dc2aeda, 2022-05-15)"
   sodipodi:docname="settings.svg"
   xmlns:inkscape="http://www.inkscape.org/namespaces/inkscape"
   xmlns:sodipodi="http://sodipodi.sourceforge.net/DTD/sodipodi-0.dtd"
   xmlns="http://www.w3.org/2000/svg"
   xmlns:svg="http://www.w3.org/2000/svg">
  <sodipodi:namedview
     id="namedview579"
     pagecolor="#ffffff"
     bordercolor="#000000"
     borderopacity="0.25"
     inkscape:showpageshadow="2"
     inkscape:pageopacity="0.0"
     inkscape:pagecheckerboard="0"
     inkscape:deskcolor="#d1d1d1"
     inkscape:document-units="mm"
     showgrid="false"
     inkscape:zoom="17.309933"
     inkscape:cx="10.889701"
     inkscape:cy="14.298149"
     inkscape:window-width="1309"
     inkscape:window-height="695"
     inkscape:window-x="0"
     inkscape:window-y="38"
     inkscape:window-maximized="0"
     inkscape:current-layer="Ultralight-S" />
  <defs
     id="defs574" />
  <g
     inkscape:label="Layer 1"
     inkscape:groupmode="layer"
     id="layer1">
    <g
       id="Ultralight-S"
       transform="matrix(0.06718616,0,0,0.06718616,0.08668267,5.5405236)">
      <path
         style="opacity:1;fill:none;stroke:#000000;stroke-width:5.90709456;stroke-dasharray:none"
         d="m 46.0103,-20.5635 c 8.0078,0 14.645,-6.6338 14.645,-14.6904 0,-7.959 -6.6372,-14.5928 -14.645,-14.5928 -8.0078,0 -14.6905,6.6338 -14.6905,14.5928 0,8.0532 6.6372,14.6904 14.6905,14.6904 z"
         id="path1321" />
      <path
         style="opacity:1;fill:none;stroke:#000000;stroke-width:5.90709456;stroke-dasharray:none"
         d="m 42.1074,3.91701 h 7.7149 c 2.2622,0 3.7046,-1.22315 4.2554,-3.562511 l 1.7929,-7.757809 2.877,-1.06493 6.7358,4.25927 c 2.001,1.29346 3.8965,1.08447 5.5034,-0.52588 l 5.4165,-5.41305 c 1.6524,-1.5616 1.8648,-3.5059 0.5679,-5.5455 l -4.2627,-6.6938 1.065,-2.9121 7.7578,-1.793 c 2.3393,-0.5508 3.5659,-1.9966 3.5659,-4.2554 v -7.7011 c 0,-2.2588 -1.2231,-3.7046 -3.5659,-4.2554 l -7.751,-1.7998 -1.0683,-2.9155 4.2626,-6.6939 c 1.2969,-2.0429 1.0845,-3.9805 -0.5678,-5.5488 l -5.4165,-5.4131 c -1.6036,-1.6069 -3.4991,-1.8159 -5.5001,-0.5259 l -6.7392,4.2559 -2.8804,-1.0684 -1.7929,-7.7578 c -0.5508,-2.3394 -1.9932,-3.5625 -4.2554,-3.5625 h -7.7149 c -2.2622,0 -3.7011,1.2231 -4.2519,3.5625 l -1.793,7.7578 -2.9292,1.0684 -6.7392,-4.2559 c -1.9976,-1.29 -3.9385,-1.081 -5.5001,0.5259 l -5.413,5.4131 c -1.6524,1.5683 -1.8648,3.5059 -0.5679,5.5488 l 4.2593,6.6939 -1.0684,2.9155 -7.7056,1.7998 c -2.33931,0.5508 -3.56246,1.9966 -3.56246,4.2554 v 7.7011 c 0,2.2588 1.22657,3.7046 3.56246,4.2554 l 7.7124,1.793 1.065,2.9121 -4.2593,6.6938 c -1.2969,2.0396 -1.0845,3.9839 0.5679,5.5455 l 5.4131,5.41305 c 1.5615,1.61035 3.5058,1.81934 5.5034,0.52588 l 6.7393,-4.25927 2.9223,1.06493 1.793,7.757809 c 0.5508,2.339361 1.9897,3.562511 4.2519,3.562511 z"
         id="path250" />
    </g>
  </g>
</svg>
