<?xml version="1.0" encoding="UTF-8" standalone="no"?>
<svg
   width="24"
   height="24"
   viewBox="0 0 24 24"
   fill="none"
   version="1.1"
   id="svg134"
   xmlns="http://www.w3.org/2000/svg"
   xmlns:svg="http://www.w3.org/2000/svg">
  <defs
     id="defs138" />
  <path
     fill-rule="evenodd"
     clip-rule="evenodd"
     d="m 12.286004,2.1378692 3.13662,3.187316 c 0.21509,0.2189294 0.21509,0.5767701 0,0.7964495 -0.104198,0.1064469 -0.242233,0.1645721 -0.388662,0.1645721 -0.147233,-7.5e-4 -0.283841,-0.058125 -0.387948,-0.1645721 L 12.537327,3.9799032 V 15.397475 c 0,0.310983 -0.246796,0.563127 -0.55019,0.563127 -0.303403,0 -0.550198,-0.252144 -0.550198,-0.563127 V 4.0070729 L 9.3539127,6.1216347 c -0.2083044,0.2128937 -0.5698148,0.2121348 -0.7766013,7.59e-4 -0.215849,-0.2204473 -0.215849,-0.5782791 0,-0.7972085 l 3.1366106,-3.187316 c 0.181134,-0.1842025 0.392457,-0.183448 0.572082,0 z m 6.317793,7.9720218 V 20.678924 C 18.603797,21.408212 18.012098,22 17.283077,22 H 6.7169649 C 5.9871496,22 5.3962035,21.408212 5.3962035,20.678924 V 10.109891 c 0,-0.7300204 0.5909461,-1.3211298 1.3207614,-1.3211298 h 2.8226538 v 1.1323972 h -2.320009 c -0.3818943,0 -0.6913241,0.3095106 -0.6913241,0.6914756 v 9.56352 c 0,0.381251 0.3094298,0.69152 0.6913241,0.69152 h 9.5607873 c 0.381876,0 0.691341,-0.310269 0.691341,-0.69152 v -9.56352 c 0,-0.381965 -0.309464,-0.6914756 -0.691341,-0.6914756 H 14.452799 V 8.7887612 h 2.830278 c 0.729021,0 1.32072,0.5911094 1.32072,1.3211298 z"
     fill="white"
     id="path132"
     style="fill:#000000;fill-opacity:1;stroke-width:0.892861" />
</svg>
