<?xml version="1.0" encoding="UTF-8" standalone="no"?>
<svg
   width="24"
   height="24"
   viewBox="0 0 24 24"
   fill="none"
   version="1.1"
   id="svg6"
   xmlns="http://www.w3.org/2000/svg"
   xmlns:svg="http://www.w3.org/2000/svg">
  <defs
     id="defs10" />
  <path
     id="path2"
     style="color:#000000;fill:#000000;stroke-linecap:round;stroke-linejoin:round"
     d="m 12,1 c -4.9587096,0 -9,4.0412904 -9,9 0,2.51092 1.1362084,4.727904 2.7070312,6.767578 1.570823,2.039674 3.5982655,3.951782 5.5859378,5.939453 a 1.0001,1.0001 0 0 0 1.414062,0 C 14.694703,20.71936 16.722145,18.807252 18.292969,16.767578 19.863791,14.727904 21,12.51092 21,10 21,5.0412934 16.958727,1 12,1 Z m 0,2 c 3.877855,0 7,3.1221643 7,7 0,1.907371 -0.863797,3.691132 -2.292969,5.546875 C 15.464446,17.16034 13.733262,18.822177 12,20.542969 10.266738,18.822177 8.5355538,17.16034 7.2929688,15.546875 5.8637977,13.691132 5,11.907371 5,10 5,6.1221673 8.1221673,3 12,3 Z m 0,3 c -2.1973225,0 -4,1.8027313 -4,4 0,2.197303 1.8026976,4 4,4 2.197303,0 4,-1.802697 4,-4 0,-2.1972687 -1.802677,-4 -4,-4 z m 0,2 c 1.116471,0 2,0.8835753 2,2 0,1.116491 -0.883509,2 -2,2 -1.116491,0 -2,-0.883509 -2,-2 0,-1.1164247 0.883529,-2 2,-2 z" />
</svg>
