<?xml version="1.0" encoding="UTF-8" standalone="no"?>
<svg
   width="24"
   height="24"
   viewBox="0 0 24 24"
   fill="none"
   version="1.1"
   id="svg141"
   xmlns="http://www.w3.org/2000/svg"
   xmlns:svg="http://www.w3.org/2000/svg">
  <g
     clip-path="url(#clip0_449_10913)"
     id="g134"
     style="stroke:#000000;stroke-opacity:1"
     transform="matrix(1.4705882,0,0,1.4705882,0.97066068,0.9705885)">
    <path
       d="m 2.8125,13.75 v -3.125 m 0,-6.25 V 1.25 M 1.25,2.8125 H 4.375 M 1.25,12.1875 H 4.375 M 8.125,1.875 7.04114,4.69304 C 6.86488,5.15131 6.77675,5.38044 6.63971,5.57318 6.51824,5.744 6.369,5.89324 6.19818,6.01471 6.00544,6.15175 5.77631,6.23988 5.31804,6.41614 L 2.5,7.5 5.31804,8.58386 C 5.77631,8.76012 6.00544,8.84825 6.19818,8.98529 6.369,9.10676 6.51824,9.256 6.63971,9.42682 6.77675,9.61956 6.86488,9.84869 7.04114,10.307 L 8.125,13.125 9.20886,10.307 C 9.38512,9.84869 9.47325,9.61956 9.61029,9.42682 9.73176,9.256 9.881,9.10676 10.0518,8.98529 10.2446,8.84825 10.4737,8.76012 10.932,8.58386 L 13.75,7.5 10.932,6.41614 C 10.4737,6.23988 10.2446,6.15175 10.0518,6.01471 9.881,5.89324 9.73176,5.744 9.61029,5.57318 9.47325,5.38044 9.38512,5.15131 9.20886,4.69304 Z"
       stroke="#ffffff"
       stroke-width="1.1"
       stroke-linecap="round"
       stroke-linejoin="round"
       id="path132"
       style="stroke:#000000;stroke-opacity:1" />
  </g>
  <defs
     id="defs139">
    <clipPath
       id="clip0_449_10913">
      <rect
         width="15"
         height="15"
         fill="#ffffff"
         id="rect136"
         x="0"
         y="0" />
    </clipPath>
  </defs>
</svg>
