<?xml version="1.0" encoding="UTF-8" standalone="no"?>
<svg width="24" height="24" viewBox="0 0 24 24" fill="none" version="1.1" id="svg188" xmlns="http://www.w3.org/2000/svg">
  <defs
     id="defs192" />
  <path
     id="path986"
     style="fill:#000000;fill-opacity:1;stroke-width:1.08844"
     d="m 11.798828,2.3203125 c -4.700949,0 -9.0781249,1.9783202 -9.0781249,6.0078125 0,2.3348 0.9680924,3.954117 5.7441407,4.544922 l 7.6679682,0.953125 c 2.408821,0.315974 2.570313,0.870635 2.570313,1.896484 0,2.174801 -3.254525,3.083985 -6.142578,3.083985 -3.1548237,0 -6.1851608,-1.10621 -6.9062501,-3.042969 L 5.4921875,15.328125 H 2 l 0.1621094,0.708984 0.00391,-0.01172 C 3.0453615,19.86201 7.5851595,21.679688 12.365234,21.679688 16.941232,21.679687 22,20.039127 22,15.525391 22,13.391624 21.474431,11.532354 16.056641,10.859375 L 8.5058594,9.9121094 C 6.0553587,9.5961357 5.9765625,8.881733 5.9765625,8.2128906 c 0,-1.977903 2.5285804,-3.0078125 5.7792965,-3.0078125 3.133929,0 6.063734,0.9888939 6.542969,2.9667969 l 0.121094,0.5117188 h 3.492187 L 21.753906,8.09375 C 20.670369,4.1381626 16.383096,2.3203125 11.798828,2.3203125 Z" />
</svg>
