<?xml version="1.0" encoding="UTF-8" standalone="no"?>
<svg
   width="24"
   height="24"
   viewBox="0 0 24 24"
   fill="none"
   version="1.1"
   id="svg1002"
   xmlns="http://www.w3.org/2000/svg"
   xmlns:svg="http://www.w3.org/2000/svg">
  <defs
     id="defs1006" />
  <path
     d="M 21.160305,18.10687 V 12 C 21.160305,6.9409009 17.059084,2.8396948 12,2.8396948 6.9409009,2.8396948 2.8396949,6.9409009 2.8396949,12 v 6.10687 m 2.5445343,3.053435 c -1.405313,0 -2.5445343,-1.139236 -2.5445343,-2.54458 v -2.035572 c 0,-1.405298 1.1392213,-2.544535 2.5445343,-2.544535 1.4052977,0 2.5445191,1.139237 2.5445191,2.544535 v 2.035572 c 0,1.405344 -1.1392214,2.54458 -2.5445191,2.54458 z m 13.2314958,0 c -1.405191,0 -2.544473,-1.139236 -2.544473,-2.54458 v -2.035572 c 0,-1.405298 1.139282,-2.544535 2.544473,-2.544535 1.405344,0 2.54458,1.139237 2.54458,2.544535 v 2.035572 c 0,1.405344 -1.139236,2.54458 -2.54458,2.54458 z"
     stroke="white"
     stroke-width="1.67939"
     stroke-linecap="round"
     stroke-linejoin="round"
     id="path1000"
     style="stroke:#000000;stroke-opacity:1" />
</svg>
