<?xml version="1.0" encoding="UTF-8" standalone="no"?>
<svg
   width="24"
   height="24"
   viewBox="0 0 24 24"
   fill="none"
   version="1.1"
   id="svg136"
   xmlns="http://www.w3.org/2000/svg"
   xmlns:svg="http://www.w3.org/2000/svg">
  <defs
     id="defs140" />
  <path
     d="m 16,2 c 1.104583,0 2,0.8954333 2,2 H 4 v 11.1765 c -1.1045667,0 -2,-0.8955 -2,-2 V 4 C 2,2.895425 2.8954333,2 4,2 Z"
     fill="white"
     id="path132"
     style="fill:#000000;fill-opacity:1;stroke-width:0.833333" />
  <path
     d="M 14,22 11.333333,19.1765 H 8 c -1.1045667,0 -2,-0.8955 -2,-2 V 8 C 6,6.895425 6.8954333,6 8,6 h 12 c 1.104583,0 2,0.8954333 2,2 v 9.1765 c 0,1.104583 -0.895417,2 -2,2 h -3.333333 z m 1.804583,-4.8235 H 20 V 8 H 8 v 9.1765 h 4.195417 L 14,19.087167 Z"
     fill="white"
     id="path134"
     style="fill:#000000;fill-opacity:1;stroke-width:0.833333" />
</svg>
