<?xml version="1.0" encoding="UTF-8" standalone="no"?>
<svg
   width="24"
   height="24"
   viewBox="0 0 24 24"
   fill="none"
   version="1.1"
   id="svg186"
   xmlns="http://www.w3.org/2000/svg">
  <defs
     id="defs190" />
  <path
     id="path1221"
     style="fill:#000000;fill-opacity:1;stroke-width:1.42857"
     d="m 15.119141,2.0019531 c -0.05814,0.00277 -0.115745,0.00906 -0.173829,0.017578 -0.464669,0.068176 -0.884928,0.3166243 -1.167968,0.6914063 -0.604843,-0.223781 -1.21992,-0.3457031 -1.796875,-0.3457031 -0.576972,0 -1.192034,0.1219221 -1.796875,0.3457031 C 9.956608,2.4140739 9.6426127,2.1948942 9.2851562,2.0859375 8.9276999,1.9769806 8.5434239,1.9837343 8.1894531,2.1035156 7.8354682,2.2232966 7.5283893,2.4502756 7.3105469,2.7539062 7.0927044,3.0575385 6.9766339,3.421224 6.9765625,3.7949219 c 0,0.3824992 0.1197336,0.7383116 0.3242187,1.0292969 -0.63417,0.833641 -1.0390625,1.84185 -1.0390624,2.9628906 0,1.5843396 0.6426243,2.6438856 1.6835937,3.3066406 l -4.8320313,2.789062 c -0.4810819,0.277272 -0.8363296,0.73016 -0.9902343,1.263672 -0.1539045,0.533515 -0.093467,1.106786 0.1660156,1.597657 0.2594823,0.490998 0.699035,0.86187 1.2265625,1.035156 0.5275133,0.173285 1.101492,0.135816 1.6015625,-0.105469 -0.1673282,0.400714 -0.2268424,0.83658 -0.1738281,1.267578 0.053029,0.431 0.2170915,0.841169 0.4765625,1.189453 l 0.6386719,0.859375 c 0.233028,0.313429 0.5357947,0.568856 0.8847656,0.744141 0.3489849,0.175143 0.7345008,0.265911 1.125,0.265625 0.3904849,-2.85e-4 0.7762721,-0.09186 1.125,-0.267578 0.3487278,-0.175714 0.6521807,-0.430426 0.8847656,-0.744141 0.611413,0.215286 1.254144,0.325077 1.902344,0.324219 0.669898,0 1.313172,-0.115696 1.910156,-0.328125 0.232328,0.314143 0.53407,0.569952 0.882813,0.746094 0.348741,0.176143 0.7343,0.268959 1.125,0.269531 0.390698,5.71e-4 0.775715,-0.09048 1.125,-0.265625 0.349284,-0.175143 0.653432,-0.430569 0.886718,-0.744141 l 0.640625,-0.859375 c 0.26,-0.348998 0.423849,-0.759406 0.476563,-1.191406 0.05271,-0.431855 -0.0092,-0.870344 -0.177735,-1.271484 0.495,0.249285 1.067942,0.298051 1.597657,0.134765 0.529569,-0.163283 0.975428,-0.525052 1.24414,-1.009765 0.268715,-0.484857 0.339551,-1.056142 0.197266,-1.591797 -0.142286,-0.535671 -0.487081,-0.995705 -0.960938,-1.283203 l -4.777343,-2.914063 c 0.960955,-0.665613 1.548828,-1.7017996 1.548828,-3.2167966 0,-1.1210406 -0.404921,-2.1292496 -1.039063,-2.9628906 C 16.932441,4.441548 17.043608,3.9656094 16.96875,3.5019531 16.89404,3.0382984 16.640459,2.6233867 16.261719,2.3457031 15.930307,2.1027296 15.526117,1.982558 15.119141,2.0019531 Z M 8.7636719,2.7226562 c 0.2831136,0 0.5408078,0.1103228 0.7324219,0.2890626 C 8.8660379,3.3321594 8.2899963,3.7512931 7.7929688,4.2539062 7.7155545,4.0904209 7.6823165,3.9110113 7.6933594,3.7304688 7.7043879,3.5499262 7.7606792,3.3754888 7.8574219,3.2226562 7.9541788,3.0698237 8.0876226,2.9426815 8.2460938,2.8554688 8.4045648,2.7682574 8.5827866,2.7226164 8.7636719,2.7226562 Z m 6.4062501,0 c 0.155459,-0.00394 0.311303,0.027411 0.455078,0.089844 0.1917,0.083244 0.354121,0.2197816 0.46875,0.3945312 0.114642,0.1747498 0.175767,0.3788907 0.175781,0.5878907 0,0.1644425 -0.0358,0.3202847 -0.101562,0.4589843 -0.497028,-0.5026131 -1.07307,-0.9217468 -1.703125,-1.2421874 0.152729,-0.1426755 0.344839,-0.237899 0.550781,-0.2734376 0.05149,-0.00888 0.102477,-0.014311 0.154297,-0.015625 z M 9.8964844,4.8574219 c 0.3944856,0 0.7148436,0.3203588 0.7148436,0.7148437 0,0.3944849 -0.320358,0.7128907 -0.7148436,0.7128906 -0.3944849,0 -0.7148438,-0.3184057 -0.7148438,-0.7128906 0,-0.3944849 0.3203589,-0.7148437 0.7148438,-0.7148437 z m 4.2851566,0 c 0.179277,0 0.341375,0.068641 0.466797,0.1777343 0.02582,0.022464 0.0499,0.046353 0.07226,0.072266 0.04427,0.051285 0.08101,0.1074696 0.109375,0.1699219 0.01394,0.030681 0.02562,0.062888 0.03516,0.095703 0.0094,0.03231 0.01671,0.065585 0.02149,0.099609 0.0046,0.032729 0.0098,0.065614 0.0098,0.099609 0,0.012846 -0.0032,0.024431 -0.0039,0.037109 a 0.71177542,0.71177542 0 0 1 -0.002,0.035156 c -0.0014,0.013158 -0.0018,0.026126 -0.0039,0.039063 -0.0033,0.020677 -0.0086,0.040501 -0.01367,0.060547 a 0.71177542,0.71177542 0 0 1 0,0.00195 0.71177542,0.71177542 0 0 1 -0.0293,0.089844 0.71177542,0.71177542 0 0 1 -0.0039,0.00977 c -0.0025,0.00604 -0.0051,0.011621 -0.0078,0.017578 a 0.71177542,0.71177542 0 0 1 -0.03906,0.076172 c -0.0015,0.0025 -0.0024,0.00533 -0.0039,0.00781 -0.0092,0.014816 -0.01906,0.028903 -0.0293,0.042969 a 0.71177542,0.71177542 0 0 1 -0.0059,0.00781 0.71177542,0.71177542 0 0 1 -0.06445,0.076172 l -0.002,0.00195 a 0.71177542,0.71177542 0 0 1 -0.002,0.00195 0.71177542,0.71177542 0 0 1 -0.09961,0.082031 c -0.0015,0.00104 -0.0024,0.00288 -0.0039,0.00391 a 0.71177542,0.71177542 0 0 1 -0.0332,0.019531 0.71177542,0.71177542 0 0 1 -0.0625,0.033203 c -0.0087,0.00412 -0.01647,0.0099 -0.02539,0.013672 a 0.71177542,0.71177542 0 0 1 -0.0059,0.00195 0.71177542,0.71177542 0 0 1 -0.09961,0.03125 c -0.0052,0.00131 -0.01035,0.00272 -0.01563,0.00391 a 0.71177542,0.71177542 0 0 1 -0.02344,0.00391 0.71177542,0.71177542 0 0 1 -0.134765,0.013672 0.71177542,0.71177542 0 0 1 -0.13086,-0.011719 c -0.0094,-0.00176 -0.01808,-0.00569 -0.02734,-0.00781 a 0.71177542,0.71177542 0 0 1 -0.08399,-0.023437 c -0.0179,-0.0065 -0.03553,-0.013624 -0.05273,-0.021484 a 0.71177542,0.71177542 0 0 1 -0.0918,-0.050781 c -0.01571,-0.0102 -0.0301,-0.021835 -0.04492,-0.033203 A 0.71177542,0.71177542 0 0 1 13.697266,6.09375 c -0.01116,-0.010373 -0.02077,-0.022143 -0.03125,-0.033203 A 0.71177542,0.71177542 0 0 1 13.613281,6 c -0.01015,-0.013448 -0.0201,-0.026851 -0.0293,-0.041016 a 0.71177542,0.71177542 0 0 1 -0.04883,-0.089844 c -0.01221,-0.026453 -0.0223,-0.053951 -0.03125,-0.082031 a 0.71177542,0.71177542 0 0 1 -0.0059,-0.021484 c -0.0082,-0.028815 -0.01499,-0.057714 -0.01953,-0.087891 a 0.71177542,0.71177542 0 0 1 0,-0.00977 c -0.0044,-0.031921 -0.0098,-0.062585 -0.0098,-0.095703 0,-0.033995 0.0052,-0.06688 0.0098,-0.099609 0.0048,-0.034101 0.01206,-0.06723 0.02148,-0.099609 0.02897,-0.099526 0.07857,-0.1892009 0.144531,-0.265625 0.02237,-0.025913 0.04644,-0.049802 0.07227,-0.072266 0.125421,-0.1090931 0.285565,-0.1777343 0.464844,-0.1777343 z m -2.201172,2.1054687 c 1.381996,0 2.501953,0.8004686 2.501953,1.7871094 0,0.9866265 -1.119957,2.144531 -2.501953,2.144531 -1.382013,0 -2.5019534,-1.1579045 -2.5019534,-2.144531 0,-0.9866408 1.1199404,-1.7871094 2.5019534,-1.7871094 z m 0,5.7695314 c 0.948084,0 1.856945,0.376477 2.527343,1.046875 0.6704,0.670398 1.046875,1.579218 1.046876,2.527344 v 0.03125 c -0.405085,0.173427 -0.756904,0.45083 -1.019532,0.804687 l -0.640625,0.859375 c -0.341098,0.456857 -0.514101,1.016223 -0.492187,1.585938 -0.436128,0.188712 -0.91712,0.294921 -1.421875,0.294921 -0.5019,0 -0.978853,-0.104444 -1.41211,-0.291015 0.02267,-0.570857 -0.152313,-1.13213 -0.49414,-1.589844 L 9.4335938,17.142578 C 9.1690656,16.786292 8.814892,16.507127 8.40625,16.333984 v -0.02734 c 0,-0.948126 0.3764764,-1.856946 1.046875,-2.527344 0.670399,-0.670398 1.579246,-1.046875 2.527344,-1.046875 z m -4.6074221,4.488281 c 0.093305,-0.0048 0.1874466,-1.13e-4 0.28125,0.01367 0.3752277,0.055 0.7130392,0.256404 0.9394531,0.560547 l 0.640625,0.859375 c 0.1121426,0.150715 0.1942772,0.321763 0.2402344,0.503906 0.045971,0.182143 0.054558,0.372737 0.027344,0.558594 -0.027229,0.185857 -0.089275,0.364106 -0.1855469,0.525391 -0.096257,0.161284 -0.224343,0.301919 -0.375,0.414062 -0.1506424,0.112143 -0.3218066,0.194234 -0.5039062,0.240234 -0.1820853,0.04586 -0.3708124,0.05462 -0.5566406,0.02734 -0.1858281,-0.02714 -0.3641339,-0.09121 -0.5253906,-0.1875 C 7.1942119,20.640048 7.0535631,20.513996 6.9414062,20.363281 L 6.3007812,19.501953 C 6.0743818,19.197667 5.9781605,18.816692 6.0332031,18.441406 6.0882461,18.066265 6.2895077,17.728381 6.59375,17.501953 6.8219209,17.332132 7.093132,17.235134 7.3730469,17.220703 Z m 9.2226561,0 c 0.09333,0.0048 0.186344,0.01802 0.277344,0.04102 0.182143,0.046 0.353335,0.127949 0.503906,0.240234 0.150714,0.112143 0.276904,0.252778 0.373047,0.414063 0.09614,0.161284 0.160357,0.339533 0.1875,0.52539 0.02714,0.185715 0.0167,0.376594 -0.0293,0.558594 -0.046,0.182143 -0.127949,0.353192 -0.240234,0.503906 l -0.638672,0.859375 c -0.112142,0.150715 -0.252778,0.276762 -0.414063,0.373047 -0.161284,0.09629 -0.34153,0.160357 -0.527343,0.1875 -0.185828,0.02729 -0.374541,0.01852 -0.556641,-0.02734 -0.182085,-0.046 -0.353263,-0.128091 -0.503906,-0.240234 -0.150642,-0.112143 -0.276776,-0.252778 -0.373047,-0.414062 -0.09626,-0.161285 -0.160286,-0.339534 -0.1875,-0.525391 -0.02721,-0.185857 -0.01862,-0.376451 0.02734,-0.558594 0.04597,-0.182143 0.128091,-0.353191 0.240234,-0.503906 L 15.375,17.794922 c 0.1122,-0.150571 0.252778,-0.278857 0.414062,-0.375 0.1613,-0.09629 0.339577,-0.158404 0.525391,-0.185547 0.09291,-0.01357 0.187916,-0.01846 0.28125,-0.01367 z" />
</svg>
