<?xml version="1.0" encoding="UTF-8" standalone="no"?>
<svg
   width="24"
   height="24"
   viewBox="0 0 24 24"
   fill="none"
   version="1.1"
   id="svg4"
   xmlns="http://www.w3.org/2000/svg"
   xmlns:svg="http://www.w3.org/2000/svg">
  <defs
     id="defs8" />
  <path
     id="path2"
     style="color:#000000;fill:#000000;stroke-linecap:round;stroke-linejoin:round;-inkscape-stroke:none"
     d="M 3.4941406,0.99609375 C 3.4298327,0.99716438 3.3681455,1 3.3066406,1 H 2 A 1,1 0 0 0 1,2 1,1 0 0 0 2,3 h 1.1328125 l 0.4472656,3.1328125 a 1.0001,1.0001 0 0 0 0,0.00195 l 1.0527344,7.7324224 c 0.1334887,0.98109 0.178513,1.607018 0.5820313,2.242187 0.3099824,0.488041 0.7541225,0.875794 1.2792968,1.117187 C 7.1778472,17.540633 7.8047539,17.5 8.7949219,17.5 h 8.5566401 c 0.9425,0 1.542611,0.03691 2.203126,-0.253906 0.50933,-0.224286 0.946118,-0.58674 1.261718,-1.044922 0.409137,-0.594329 0.485709,-1.18933 0.66211,-2.115234 L 22.800781,7.1367188 C 22.8629,6.8107425 22.992835,6.5159553 22.810547,6 22.692221,5.6644541 22.457334,5.3819559 22.150391,5.203125 21.67768,4.9276004 21.365003,5 21.033203,5 H 5.4375 L 5.0878906,2.5449219 C 5.0530994,2.3013728 5.0560779,2.0446454 4.828125,1.6894531 4.6727283,1.4472683 4.451033,1.2543116 4.1894531,1.1347656 3.9015703,1.0031986 3.6870645,0.99288185 3.4941406,0.99609375 Z M 5.7167969,7 H 20.791016 l -1.277344,6.710938 c -0.176399,0.925891 -0.277641,1.256598 -0.345703,1.355468 -0.105399,0.153016 -0.250253,0.274895 -0.419922,0.34961 C 18.638163,15.464396 18.294062,15.5 17.351562,15.5 H 8.7949219 c -0.990168,0 -1.3554851,-0.04067 -1.4667969,-0.0918 -0.1753642,-0.08061 -0.3224045,-0.208336 -0.4257812,-0.371094 a 1.0001,1.0001 0 0 0 0,-0.002 C 6.836763,14.931977 6.7467721,14.576809 6.6132812,13.595703 Z M 9,19 c -1.0927042,0 -2,0.907271 -2,2 0,1.092729 0.9072958,2 2,2 1.092704,0 2,-0.907271 2,-2 0,-1.092729 -0.907296,-2 -2,-2 z m 8,0 c -1.092705,0 -2,0.907295 -2,2 0,1.092705 0.907295,2 2,2 1.092705,0 2,-0.907295 2,-2 0,-1.092705 -0.907295,-2 -2,-2 z" />
</svg>
