<?xml version="1.0" encoding="UTF-8" standalone="no"?>
<svg width="24" height="24" viewBox="0 0 24 24" fill="none" version="1.1" id="svg184" xmlns="http://www.w3.org/2000/svg">
  <defs
     id="defs188" />
  <path
     id="path967"
     style="fill:#000000;fill-opacity:1;stroke-width:1.33333"
     d="m 8.25,2.6660156 c -0.4887862,0 -0.9091591,0.1586377 -1.2617188,0.4746094 -0.352573,0.3159717 -0.6055726,0.6915484 -0.7578124,1.125 -0.1522532,0.4334396 -0.2285157,0.8928 -0.2285157,1.3789062 0,0.5914395 0.1209417,1.2020518 0.3613281,1.8339844 C 6.6036543,8.1104617 6.9719638,8.6591472 7.46875,9.125 c 0.4967995,0.4658528 1.0492304,0.6992188 1.6582031,0.6992188 0.4887862,-1e-7 0.9091449,-0.1566833 1.2617189,-0.4726563 0.35256,-0.3159731 0.60556,-0.691547 0.757812,-1.125 C 11.298724,7.7931229 11.375,7.3337625 11.375,6.8476562 11.375,6.2481101 11.254058,5.6337521 11.013672,5.0058594 10.773285,4.3779667 10.406848,3.8310899 9.9140625,3.3652344 9.4212763,2.8993775 8.8669861,2.6660156 8.25,2.6660156 Z m 7.5,0 c -0.616986,0 -1.171276,0.2333619 -1.664062,0.6992188 -0.492786,0.4658555 -0.859223,1.0127323 -1.09961,1.640625 C 12.745942,5.6337521 12.625,6.2481101 12.625,6.8476562 c 0,0.4861063 0.07628,0.9454667 0.228516,1.3789063 0.152252,0.433453 0.405252,0.8090269 0.757812,1.125 0.352574,0.315973 0.772932,0.4726563 1.261719,0.4726563 0.608999,0 1.161403,-0.233366 1.658203,-0.6992188 0.4968,-0.4658528 0.865069,-1.0145383 1.105469,-1.6464844 0.2404,-0.6319326 0.361328,-1.2425449 0.361328,-1.8339844 0,-0.4861062 -0.07625,-0.9454666 -0.228516,-1.3789062 -0.152267,-0.4334516 -0.40528,-0.8090283 -0.757812,-1.125 C 16.659186,2.8246533 16.2388,2.6660156 15.75,2.6660156 Z M 3.9355469,8.5605469 c -0.6169834,0 -1.0951023,0.2406033 -1.4316407,0.7226562 C 2.1673679,9.7652692 2,10.330356 2,10.978516 c 0,0.599532 0.1394729,1.21571 0.4199219,1.847656 0.2804477,0.631946 0.6841502,1.173393 1.2089843,1.623047 0.5248395,0.449652 1.0921859,0.673828 1.7011719,0.673828 0.6169861,0 1.0931546,-0.238796 1.4296875,-0.716797 0.3365464,-0.478014 0.5039063,-1.041308 0.5039063,-1.689453 0,-0.599533 -0.1394689,-1.217529 -0.4199219,-1.853516 C 6.5633103,10.227282 6.1615582,9.684028 5.6367188,9.234375 5.1118793,8.7847221 4.5445197,8.5605469 3.9355469,8.5605469 Z m 16.1289061,0 c -0.609065,0 -1.176238,0.2241752 -1.701172,0.6738281 -0.524799,0.449653 -0.926631,0.992907 -1.207031,1.628906 -0.2804,0.635987 -0.419922,1.253982 -0.419922,1.853516 0,0.648145 0.167374,1.211439 0.503906,1.689453 0.336533,0.478 0.812754,0.716797 1.429688,0.716797 0.608932,0 1.176372,-0.224176 1.701172,-0.673828 0.524933,-0.449654 0.928584,-0.991101 1.208984,-1.623047 C 21.860478,12.194226 22,11.578048 22,10.978516 22,10.330356 21.832626,9.7652692 21.496094,9.2832031 21.159561,8.8011502 20.681387,8.5605469 20.064453,8.5605469 Z M 12,12.388672 c -0.713146,0 -1.48698,0.238783 -2.3203125,0.716797 C 8.846355,13.583467 8.0948606,14.175993 7.4257812,14.880859 6.7567152,15.585712 6.1987196,16.364085 5.75,17.21875 c -0.4487196,0.854799 -0.6738281,1.631325 -0.6738281,2.328125 0,1.182799 0.7348266,1.773437 2.2011719,1.773437 0.5929461,0 1.3945908,-0.178528 2.4082031,-0.539062 C 10.699173,20.420716 11.471161,20.240234 12,20.240234 c 0.504812,0 1.235826,0.182342 2.193359,0.546875 0.957532,0.364666 1.709107,0.546875 2.253907,0.546875 0.344665,0 0.649662,-0.02383 0.914062,-0.06836 0.264534,-0.04467 0.522991,-0.12472 0.775391,-0.242187 0.252399,-0.117467 0.445764,-0.299676 0.582031,-0.546876 0.136137,-0.247067 0.205078,-0.557022 0.205078,-0.929687 0,-0.931733 -0.370222,-1.963485 -1.107422,-3.09375 C 17.079207,15.322913 16.162212,14.364151 15.064453,13.574219 13.966694,12.784286 12.945506,12.388672 12,12.388672 Z" />
</svg>
