<svg width="206" height="84" viewBox="0 0 206 84" fill="none" xmlns="http://www.w3.org/2000/svg">
<g clip-path="url(#clip0_8225_48460)">
<path d="M55.2103 26.633V0.0432698C46.6142 0.0432698 25.6287 -0.203789 22.4473 0.44474C8.05722 3.06356 2.21433 14.385 1.09469 19.7153C-0.208484 23.6065 -1.41989 33.8162 4.18439 43.5256C9.78867 53.235 20.9177 55.928 25.7817 56.0638H55.2103V29.505H39.6578C38.9664 29.505 38.3791 29.993 38.1221 30.6353C37.2717 32.7538 35.1242 35.6815 31.0127 36.0521C22.4167 35.7433 22.1413 29.1653 22.4473 26.633C22.7532 24.1006 25.1393 19.7462 31.0127 20.0859C34.91 20.3083 37.1126 23.2421 38.0548 25.4162C38.3546 26.1141 39.0031 26.633 39.7557 26.633H55.2103Z" fill="white"/>
<path d="M80.9682 0.043457H58.2391V56.064H93.847V37.1023H80.9682V0.043457Z" fill="white"/>
<path d="M96.9675 56.064V0.043457H119.085C119.024 11.5317 118.938 34.8726 119.085 36.3302C119.268 38.1523 120.308 40.6229 123.826 40.5302C125.509 40.487 126.61 39.4802 127.265 38.387C128.023 37.127 128.048 35.589 128.048 34.1129V0.043457H150.043V56.064H96.9675Z" fill="white"/>
<path fill-rule="evenodd" clip-rule="evenodd" d="M153.041 56.0703V0.043457C162.952 0.05581 183.466 0.0743394 186.232 0.0743394C188.948 0.247281 191.261 1.07493 192.075 1.46405C194.094 2.22375 198.303 4.99081 198.988 9.9567C199.674 14.9226 197.294 18.5914 196.021 19.8082C199.343 21.2597 205.994 26.5961 205.994 36.3303C205.896 51.3514 194.675 55.7429 189.077 56.0641H153.041V56.0703ZM182.683 19.4129V19.5982C182.683 22.5505 180.316 24.9408 177.391 24.9408C174.467 24.9408 172.099 22.5505 172.099 19.5982V19.4129C172.099 16.4605 174.467 14.0702 177.391 14.0702C180.316 14.0702 182.683 16.4605 182.683 19.4129ZM172.099 37.1826C172.099 40.1226 174.479 42.5129 177.391 42.5129C180.303 42.5129 182.683 40.1288 182.683 37.1826C182.683 34.2364 180.303 31.8523 177.391 31.8523C174.479 31.8585 172.099 34.2426 172.099 37.1826Z" fill="white"/>
<path d="M63.042 66.7122L63.1705 68.5528H63.2255C63.9903 67.1137 65.0671 66.4404 66.4315 66.4404C68.1629 66.4404 69.0929 67.1631 69.6925 68.5528H69.7414C70.8182 66.8666 72.0786 66.4404 73.186 66.4404C76.4653 66.4404 77.1016 68.7381 77.1016 71.1098V79.2566H72.8984V72.1043C72.8984 70.9554 72.9474 69.8313 71.7421 69.8313C70.4817 69.8313 70.2676 70.8443 70.2676 72.0178V79.2566H66.0583V72.1043C66.0583 70.9554 66.1133 69.8313 64.9019 69.8313C63.6416 69.8313 63.4274 70.8443 63.4274 72.0178V79.2566H59.2854V71.7275C58.2331 71.7522 57.1073 71.1407 57.1563 69.541C55.9755 69.4607 55.1862 68.6331 55.1862 67.0828V66.706H63.042V66.7122Z" fill="white"/>
<path d="M82.4921 79.4726C80.4975 79.4726 78.5519 78.5709 78.5519 75.7915C78.5519 70.8009 85.9121 73.2035 85.9121 70.5353C85.9121 69.9238 85.545 69.547 84.5967 69.547C83.6545 69.547 83.0182 70.1091 82.8102 71.2826L79.0536 70.6712C79.7022 67.7126 81.9414 66.4526 84.7497 66.4526C87.9923 66.4526 90.1215 67.5212 90.1215 71.0973V74.6982C90.1215 75.0997 90.201 78.2744 90.2805 79.2626H86.5117L86.3527 77.8729H86.2976C85.4166 78.9909 84.0644 79.4726 82.4921 79.4726ZM82.8592 75.3591C82.8592 76.1065 83.3914 76.5079 84.1195 76.5079C85.3003 76.5079 85.955 75.7359 85.955 74.5253V73.5185C84.8537 74.4018 82.8592 73.8953 82.8592 75.3591Z" fill="white"/>
<path d="M97.7565 80.8872C99.0964 80.8872 99.7817 80.3251 99.7817 78.7254V77.2863H99.7327C99.1025 78.1696 97.8667 78.8366 96.5023 78.8366C93.2719 78.8366 91.7423 76.2178 91.7423 72.6663C91.7423 69.1643 93.4799 66.4404 96.6859 66.4404C98.1053 66.4404 99.2616 67.3237 99.8673 68.0957H99.9163L99.9958 66.706H103.991V77.3913C103.991 82.0916 101.837 83.9878 97.7076 83.9878C95.4439 83.9878 93.2658 83.1848 92.2134 80.5166L95.762 79.6148C96.1291 80.4981 96.7042 80.8996 97.7565 80.8996V80.8872ZM99.904 72.6972C99.904 70.7145 99.2738 69.7325 97.989 69.7325C96.6736 69.7325 96.019 70.7207 96.019 72.6972C96.019 74.754 96.6797 75.7422 97.989 75.7422C99.2738 75.7422 99.904 74.754 99.904 72.6972Z" fill="white"/>
<path d="M114 66.4463C116.919 66.4463 117.61 68.6883 117.61 71.3133V79.2686H113.401V72.141C113.401 70.9922 113.346 69.8433 111.926 69.8433C110.586 69.8433 110.299 70.9922 110.299 72.1657V79.2686H106.09V66.718H110.085L110.189 68.4783H110.238C111.266 67.0825 112.446 66.4463 114 66.4463Z" fill="white"/>
<path d="M123.245 79.5281C120.382 79.5281 119.697 77.286 119.697 74.661V66.7119H123.9V73.8396C123.9 74.9884 123.955 76.1372 125.319 76.1372C126.61 76.1372 126.898 74.9884 126.898 73.8149V66.7119H131.101V79.2625H127.106L127.002 77.5022H126.947C125.949 78.8857 124.769 79.5281 123.245 79.5281Z" fill="white"/>
<path d="M136.992 66.7122L137.121 68.5528H137.176C137.935 67.1137 139.06 66.4404 140.431 66.4404C142.193 66.4404 143.111 67.1631 143.716 68.5528H143.765C144.842 66.8666 146.133 66.4404 147.234 66.4404C150.544 66.4404 151.174 68.7381 151.174 71.1098V79.2566H146.971V72.1043C146.971 70.9554 147.02 69.8313 145.79 69.8313C144.506 69.8313 144.291 70.8443 144.291 72.0178V79.2566H140.088V72.1043C140.088 70.9554 140.137 69.8313 138.907 69.8313C137.623 69.8313 137.408 70.8443 137.408 72.0178V79.2566H133.205V66.706H136.992V66.7122Z" fill="white"/>
</g>
<defs>
<clipPath id="clip0_8225_48460">
<rect width="206" height="84" fill="white"/>
</clipPath>
</defs>
</svg>
