<?xml version="1.0" encoding="UTF-8" standalone="no"?>
<svg
   width="177"
   height="184"
   viewBox="0 0 177 184"
   fill="none"
   version="1.1"
   id="svg216"
   xmlns="http://www.w3.org/2000/svg">
  <path
     d="M139.041 14.5015C136.357 12.1133 129.704 7.48369 124.566 8.07084C118.839 9.20326 106.071 11.1083 100.817 9.66919C94.6983 6.82821 98.2553 5.91157 85.8818 1.28664C83.1577 0.816148 81.6315 0.340656 81.1191 0.101072C76.8886 -0.452383 66.3322 0.999537 57.9512 11.2349C55.3545 15.8984 48.1937 22.7557 42.3362 24.5335C35.0143 26.7556 26.3086 35.7343 25.8567 37.9681C25.4049 40.202 19.6205 51.5226 16.1791 55.2411C13.4261 58.216 10.6206 64.2794 9.58533 67.5158C4.62478 77.9514 4.51182 84.7403 7.12768 92.134C9.74354 99.5277 11.0887 104.543 9.93576 109.16L7.3304 117.462L7.01888 124.41C7.01191 124.635 6.99745 124.821 6.97825 124.966C6.92601 126.406 8.22359 130.331 13.8319 134.512C16.5166 136.603 22.2145 140.813 23.5285 140.935C25.1711 141.087 33.9701 148.402 35.2961 158.981C37.0787 164.586 38.8759 168.014 39.5517 169.028C41.6817 170.633 44.1244 171.831 46.4755 171.663C47.4945 171.93 48.4128 172.208 49.2365 172.488C52.0513 171.375 58.9942 169.688 64.2476 171.842C70.8143 174.535 76.7841 176.929 78.5773 176.336C80.0118 175.862 88.033 178.041 91.8643 179.189C94.8996 180.039 101.898 180.517 105.61 175.637C109.323 170.757 118.811 170.744 123.091 171.347C125.562 170.378 131.523 168.854 135.607 170.505C136.797 170.114 137.801 169.861 138.477 169.734C140.17 169.638 144.334 168.016 147.451 162.301C148.154 158.428 150.518 150.209 154.345 148.309C158.171 146.408 160.427 143.055 161.077 141.616C163.418 140.875 168.461 138.083 169.903 132.842C171.346 127.6 171.613 122.813 171.566 121.075C171.318 120.628 170.194 120.179 167.682 121.962C165.17 123.746 161.557 122.995 160.064 122.396C159.068 122.593 156.42 122.509 153.795 120.598C151.169 118.687 147.029 117.905 145.287 117.753C143.595 117.055 139.677 114.585 137.533 110.291C135.987 106.355 136.002 103.584 136.202 102.691C136.103 102.492 136.054 101.946 136.653 101.351C137.251 100.756 136.508 98.3214 136.062 97.1785C136.478 97.0135 137.074 96.5032 136.707 95.6456C136.634 95.4752 136.523 95.2911 136.365 95.0934C135.596 94.1321 133.42 93.0397 131.849 92.3642C131.469 92.201 131.125 92.0622 130.844 91.9554C130.519 91.5955 129.543 90.1471 129.206 89.42C126.915 90.7092 123.244 102.555 121.408 107.88C120.107 111.552 116.61 118.777 113.027 118.294C109.443 117.811 105.854 120.367 104.508 121.706C101.567 124.035 94.491 127.916 89.7172 124.809C84.9434 121.702 81.0612 121.219 79.7168 121.366C77.3764 121.709 72.3687 121.472 71.0608 117.776C71.4251 114.32 67.6402 109.377 65.7021 107.338C64.111 106.243 60.5121 103.098 58.8459 99.2816C61.4887 90.9434 60.4679 82.4004 59.6271 79.1711C62.9151 77.7863 69.8814 73.8552 71.4426 69.2098C73.0038 64.5644 78.0786 60.5308 80.4208 59.0947C83.2588 58.8512 90.1897 58.1877 95.209 57.4811C101.483 56.598 105.656 61.6703 109.832 65.2528C113.172 68.1189 116.496 68.9389 117.741 68.9907C118.871 71.2381 121.854 76.3831 124.743 78.9841C127.632 81.585 128.839 85.5492 129.081 87.2061C129.086 86.4856 129.212 85.7258 129.512 84.9513C130.712 81.8546 129.526 76.8072 128.783 74.6706C129.63 73.9272 131.237 71.8741 130.882 69.609C131.633 67.3756 135.82 64.4032 136.573 60.3822C137.176 57.1653 139.221 55.2718 140.167 54.7272C140.666 54.1321 141.576 52.2565 141.222 49.5148C141.674 46.9829 143.467 46.3901 144.07 43.4116C144.552 41.0288 147.66 39.8423 149.154 39.5469C149.901 39.7964 151.454 39.9381 151.695 38.5083C151.936 37.0786 153.789 36.7242 154.685 36.7257C155.184 36.1307 154.243 33.1793 146.489 26.1344C144.787 23.662 141.001 17.9079 139.469 14.6713C139.327 14.6146 139.185 14.558 139.041 14.5015Z"
     fill="#F50F64"
     id="path132" />
  <path
     d="M154.685 36.7257C155.084 36.5278 156.298 36.5497 157.968 38.2211C159.907 39.5652 159.162 38.5211 161.103 39.2693C163.043 40.0174 163.279 38.1649 167.264 41.2583C167.753 40.9214 168.141 40.4365 168.42 39.7286C167.983 35.0403 161.571 23.5075 139.469 14.6713C141.001 17.9079 144.787 23.662 146.489 26.1344C154.243 33.1793 155.184 36.1307 154.685 36.7257Z"
     fill="#E3A475"
     id="path134" />
  <path
     fill-rule="evenodd"
     clip-rule="evenodd"
     d="M140.576 77.5213C140.94 74.5424 143.126 71.1196 144.174 69.7806C146.416 68.543 151.023 64.6973 151.51 59.2158C151.997 53.7343 151.424 51.6675 151.076 51.3193C151.329 48.9857 152.97 44.0227 157.512 42.8386C162.016 41.6645 165.388 42.5507 167.264 41.2583C163.279 38.1649 163.043 40.0174 161.103 39.2693C159.162 38.5211 159.907 39.5652 157.968 38.2211C156.298 36.5497 155.084 36.5278 154.685 36.7257C153.789 36.7242 151.936 37.0786 151.695 38.5083C151.454 39.9381 149.901 39.7964 149.154 39.5469C147.66 39.8423 144.552 41.0288 144.07 43.4116C143.467 46.3901 141.674 46.9829 141.222 49.5148C141.576 52.2565 140.666 54.1321 140.167 54.7272C139.221 55.2718 137.176 57.1653 136.573 60.3822C135.82 64.4032 131.633 67.3756 130.882 69.609C131.237 71.8741 129.63 73.9272 128.783 74.6706C129.526 76.8072 130.712 81.8546 129.512 84.9513C129.212 85.7258 129.086 86.4856 129.081 87.2061C129.073 88.3735 128.808 88.5651 129.206 89.42C129.543 90.1471 130.519 91.5955 130.844 91.9554C131.125 92.0622 131.469 92.201 131.849 92.3642C133.372 91.5007 132.416 88.952 131.747 87.7856C131.995 87.5395 132.046 87.1297 132.016 86.6267C131.953 85.6105 131.554 84.2139 131.756 83.0184C132.057 81.2312 131.463 79.4425 131.911 79.2942C132.27 79.1757 132.558 79.7423 132.657 80.0404C132.656 80.4377 132.684 81.56 133.4 82.2763C134.115 82.9926 134.143 84.115 133.993 84.6609C135.189 84.1664 137.879 82.8203 139.076 81.3921C140.274 79.964 140.646 78.5427 140.683 78.0106C140.649 77.8563 140.614 77.6935 140.576 77.5213ZM144.66 47.8819C145.012 45.6478 146.313 41.4191 148.701 42.3766C149.393 42.6541 150.077 42.7298 150.721 42.6767C151.541 44.4653 148.447 47.0751 146.75 48.1834C147.225 49.6144 146.446 51.4604 145.996 52.2045C146.736 56.5261 145.84 56.5245 144.34 59.7995C144.692 63.9714 140.891 68.2853 138.947 69.9207C139.415 75.6422 135.35 77.0654 133.259 77.0619C132.963 75.7702 132.55 72.5914 133.271 70.209C133.992 67.8266 136.765 65.0504 138.061 63.9601C137.167 62.7668 139.562 59.1954 141.207 57.8574C142.853 56.5195 143.007 53.3912 142.711 52.1989C142.473 51.245 143.911 48.9235 144.66 47.8819Z"
     fill="url(#paint0_linear_309_5585)"
     id="path136" />
  <path
     d="M145.93 90.9383C144.489 89.5951 141.577 86.2828 141.462 83.7798C141.325 80.8083 141.318 80.9277 140.683 78.0106C140.646 78.5427 140.274 79.964 139.076 81.3921C137.879 82.8203 135.189 84.1664 133.993 84.6609C134.143 84.115 134.115 82.9926 133.4 82.2763C132.684 81.56 132.656 80.4377 132.657 80.0404C132.558 79.7423 132.27 79.1757 131.911 79.2942C131.463 79.4425 132.057 81.2312 131.756 83.0184C131.554 84.2139 131.953 85.6105 132.016 86.6267C133.617 88.1084 137.058 91.1318 138.014 91.3717C137.418 90.5762 136.674 88.8965 138.467 88.542C140.259 88.1875 141.898 90.6831 142.493 91.9753C143.782 93.066 146.808 94.9216 148.608 93.6185C147.735 92.4734 146.678 91.5054 145.93 90.9383Z"
     fill="#B37D55"
     id="path138" />
  <path
     d="M148.701 42.3766C146.313 41.4191 145.012 45.6478 144.66 47.8819C143.911 48.9235 142.473 51.245 142.711 52.1989C143.007 53.3912 142.853 56.5195 141.207 57.8574C139.562 59.1954 137.167 62.7668 138.061 63.9601C136.765 65.0504 133.992 67.8266 133.271 70.209C132.55 72.5914 132.963 75.7702 133.259 77.0619C135.35 77.0654 139.415 75.6422 138.947 69.9207C140.891 68.2853 144.692 63.9714 144.34 59.7995C145.84 56.5245 146.736 56.5261 145.996 52.2045C146.446 51.4604 147.225 49.6144 146.75 48.1834C148.447 47.0751 151.541 44.4653 150.721 42.6767C150.077 42.7298 149.393 42.6541 148.701 42.3766Z"
     fill="url(#paint1_linear_309_5585)"
     id="path140" />
  <path
     d="M140.833 101.954C141.131 102.252 141.638 103.236 141.276 104.785C142.768 106.178 145.57 109.5 144.849 111.644C145.346 112.34 146.518 113.792 147.235 114.032C148.13 114.331 150.22 114.931 150.965 115.677C151.711 116.423 154.999 114.939 159.175 118.224C161.532 120.077 164.922 119.669 167.52 118.816C167.526 118.184 166.789 116.719 164.098 115.114C163.432 114.717 162.646 114.311 161.722 113.908C155.901 111.365 155.45 113.301 150.532 107.185C146.598 102.291 145.616 99.6777 145.618 98.9825C145.443 98.3104 144.594 96.9435 142.595 96.8524C142.75 98.2076 142.441 100.051 140.833 101.954Z"
     fill="url(#paint2_linear_309_5585)"
     id="path142" />
  <path
     d="M124.566 8.07084C122.776 6.27954 117.664 3.71638 109.94 5.37005C106.107 4.02083 96.8282 1.43883 90.3756 1.90456C88.6167 1.71488 87.1246 1.50128 85.8818 1.28664C98.2553 5.91157 94.6983 6.82821 100.817 9.66919C106.071 11.1083 118.839 9.20326 124.566 8.07084Z"
     fill="#E3A475"
     id="path144" />
  <path
     d="M57.9512 11.2349C51.025 14.9474 34.1203 25.6449 21.9111 38.734C9.70195 51.8231 2.33396 75.2497 0.176122 85.3268C-0.332756 91.7816 -0.0396215 106.66 5.20394 114.535C6.76032 119.428 7.06686 122.858 7.01888 124.41L7.3304 117.462L9.93576 109.16C11.0887 104.543 9.74354 99.5277 7.12768 92.134C4.51182 84.7403 4.62478 77.9514 9.58533 67.5158C10.6206 64.2794 13.4261 58.216 16.1791 55.2411C19.6205 51.5226 25.4049 40.202 25.8567 37.9681C26.3086 35.7343 35.0143 26.7556 42.3362 24.5335C48.1937 22.7557 55.3545 15.8984 57.9512 11.2349Z"
     fill="#E3A475"
     id="path146" />
  <path
     d="M55.131 175.551C56.8719 176.398 61.3098 178.035 65.1335 177.803C68.7644 179.647 77.7591 183.158 84.6901 182.455C93.052 183.363 106.493 183.684 110.08 181.902C112.95 180.477 116.356 180.026 117.7 179.978C119.045 179.633 122.781 178.14 126.968 174.929C129.802 172.756 133.114 171.325 135.607 170.505C131.523 168.854 125.562 170.378 123.091 171.347C118.811 170.744 109.323 170.757 105.61 175.637C101.898 180.517 94.8996 180.039 91.8643 179.189C88.033 178.041 80.0118 175.862 78.5773 176.336C76.7841 176.929 70.8143 174.535 64.2476 171.842C58.9942 169.688 52.0513 171.375 49.2365 172.488C52.8531 173.716 54.6454 174.984 55.131 175.551Z"
     fill="#E3A475"
     id="path148" />
  <path
     d="M13.8319 134.512C17.288 139.643 19.8353 146.391 20.6769 149.124C21.8666 152.105 26.2453 159.174 34.2428 163.598C35.3018 165.072 37.2431 167.289 39.5517 169.028C38.8759 168.014 37.0787 164.586 35.2961 158.981C33.9701 148.402 25.1711 141.087 23.5285 140.935C22.2145 140.813 16.5166 136.603 13.8319 134.512Z"
     fill="#E3A475"
     id="path150" />
  <path
     d="M147.451 162.301C147.75 162.003 158.21 158.446 164.653 146.389C168.393 142.87 175.876 133.746 175.89 125.403C176.345 124.654 177.194 122.213 176.96 118.427C176.941 118.952 174.681 120.041 173.659 120.185C172.822 120.303 171.915 120.828 171.566 121.075C171.613 122.813 171.346 127.6 169.903 132.842C168.461 138.083 163.418 140.875 161.077 141.616C160.427 143.055 158.171 146.408 154.345 148.309C150.518 150.209 148.154 158.428 147.451 162.301Z"
     fill="#E3A475"
     id="path152" />
  <path
     fill-rule="evenodd"
     clip-rule="evenodd"
     d="M129.081 87.2061C128.839 85.5492 127.632 81.585 124.743 78.9841C121.854 76.3831 118.871 71.2381 117.741 68.9907C116.496 68.9389 113.172 68.1189 109.832 65.2528C105.656 61.6703 101.483 56.598 95.209 57.4811C90.1897 58.1877 83.2588 58.8512 80.4208 59.0947C78.0786 60.5308 73.0038 64.5644 71.4426 69.2098C69.8814 73.8552 62.9151 77.7863 59.6271 79.1711C60.4679 82.4004 61.4887 90.9434 58.8459 99.2816C60.5121 103.098 64.111 106.243 65.7021 107.338C67.6402 109.377 71.4251 114.32 71.0608 117.776C72.3687 121.472 77.3764 121.709 79.7168 121.366C81.0612 121.219 84.9434 121.702 89.7172 124.809C94.491 127.916 101.567 124.035 104.508 121.706C105.854 120.367 109.443 117.811 113.027 118.294C116.61 118.777 120.107 111.552 121.408 107.88C123.244 102.555 126.915 90.7092 129.206 89.42C128.808 88.5651 129.073 88.3735 129.081 87.2061ZM107.136 69.4196C113.58 73.9594 116.774 81.0562 117.566 84.037C117.565 84.633 117.83 86.9277 118.897 91.3392C120.232 96.8536 117.534 102.808 115.287 106.529C113.49 109.505 109.354 111.931 107.51 112.772C106.016 113.465 102.159 115.236 98.6918 116.78C94.3574 118.709 87.7867 118.4 84.2049 116.904C80.6231 115.408 74.5098 109.588 69.892 102.578C66.1978 96.9701 66.2777 91.0012 66.7794 88.7178C67.13 87.4769 68.1313 84.221 69.3314 81.1243C70.8315 77.2535 73.8204 76.0668 77.8597 72.0513C81.0911 68.8389 87.3769 66.9526 90.1159 66.411C93.1044 65.5223 100.692 64.8797 107.136 69.4196Z"
     fill="#D89563"
     id="path154" />
  <path
     fill-rule="evenodd"
     clip-rule="evenodd"
     d="M175.906 115.868C173.998 113.958 171.23 113.775 170.085 113.922C169.34 112.878 166.626 110.4 161.73 108.842C156.834 107.285 153.921 105.204 153.076 104.358C151.833 103.413 149.497 100.836 150.099 98.0963C150.427 96.6051 149.649 94.9856 148.608 93.6185C146.808 94.9216 143.782 93.066 142.493 91.9753C141.898 90.6831 140.259 88.1875 138.467 88.542C136.674 88.8965 137.418 90.5762 138.014 91.3717C137.058 91.1318 133.617 88.1084 132.016 86.6267C132.046 87.1297 131.995 87.5395 131.747 87.7856C132.416 88.952 133.372 91.5007 131.849 92.3642C133.42 93.0397 135.596 94.1321 136.365 95.0934C136.523 95.2911 136.634 95.4752 136.707 95.6456C137.074 96.5032 136.478 97.0135 136.062 97.1785C136.508 98.3214 137.251 100.756 136.653 101.351C136.054 101.946 136.103 102.492 136.202 102.691C136.002 103.584 135.987 106.355 137.533 110.291C139.677 114.585 143.595 117.055 145.287 117.753C147.029 117.905 151.169 118.687 153.795 120.598C156.42 122.509 159.068 122.593 160.064 122.396C161.557 122.995 165.17 123.746 167.682 121.962C170.194 120.179 171.318 120.628 171.566 121.075C171.915 120.828 172.822 120.303 173.659 120.185C174.681 120.041 176.941 118.952 176.96 118.427L176.958 118.392C176.901 117.961 176.811 117.552 176.682 117.179C176.504 116.663 176.252 116.214 175.906 115.868ZM141.276 104.785C141.638 103.236 141.131 102.252 140.833 101.954C142.441 100.051 142.75 98.2076 142.595 96.8524C144.594 96.9435 145.443 98.3104 145.618 98.9825C145.616 99.6777 146.598 102.291 150.532 107.185C155.45 113.301 155.901 111.365 161.722 113.908C162.646 114.311 163.432 114.717 164.098 115.114C166.789 116.719 167.526 118.184 167.52 118.816C164.922 119.669 161.532 120.077 159.175 118.224C154.999 114.939 151.711 116.423 150.965 115.677C150.22 114.931 148.13 114.331 147.235 114.032C146.518 113.792 145.346 112.34 144.849 111.644C145.57 109.5 142.768 106.178 141.276 104.785Z"
     fill="url(#paint3_linear_309_5585)"
     id="path156" />
  <path
     d="M58.9394 40.8398C58.9394 43.3997 56.8591 45.4749 54.2928 45.4749C51.7266 45.4749 49.6462 43.3997 49.6462 40.8398C49.6462 38.2799 51.7266 36.2048 54.2928 36.2048C56.8591 36.2048 58.9394 38.2799 58.9394 40.8398Z"
     fill="#2D2F32"
     id="path158" />
  <path
     d="M89.776 30.3056C89.776 32.8655 87.6956 34.9406 85.1294 34.9406C82.5631 34.9406 80.4828 32.8655 80.4828 30.3056C80.4828 27.7457 82.5631 25.6705 85.1294 25.6705C87.6956 25.6705 89.776 27.7457 89.776 30.3056Z"
     fill="#2D2F32"
     id="path160" />
  <path
     d="M69.5985 48.4849C69.3108 47.7227 69.6969 46.8721 70.4611 46.585L79.8839 43.0451C80.648 42.758 81.5008 43.1432 81.7886 43.9055C82.0763 44.6677 81.6902 45.5184 80.926 45.8054L71.5032 49.3453C70.7391 49.6324 69.8863 49.2472 69.5985 48.4849Z"
     fill="#2D2F32"
     id="path162" />
  <path
     d="M22.6919 77.1066C23.5879 77.3372 24.1268 78.2487 23.8957 79.1425L22.2497 85.5064C22.0186 86.4002 21.1048 86.9378 20.2088 86.7072C19.3128 86.4766 18.7738 85.5652 19.005 84.6714L20.6509 78.3074C20.8821 77.4137 21.7959 76.876 22.6919 77.1066Z"
     fill="white"
     id="path164" />
  <path
     d="M53.6207 71.8339C54.5394 71.7228 55.3744 72.3755 55.4857 73.2919L56.2789 79.8164C56.3902 80.7327 55.7359 81.5657 54.8172 81.6768C53.8986 81.7879 53.0636 81.1351 52.9522 80.2188L52.1591 73.6943C52.0477 72.7779 52.7021 71.945 53.6207 71.8339Z"
     fill="#FFCC01"
     id="path166" />
  <path
     d="M132.691 58.9679C133.311 59.653 133.257 60.7099 132.57 61.3285L127.681 65.7335C126.994 66.3522 125.934 66.2984 125.314 65.6133C124.694 64.9283 124.748 63.8714 125.435 63.2528L130.325 58.8478C131.011 58.2291 132.071 58.2829 132.691 58.9679Z"
     fill="#FF8200"
     id="path168" />
  <path
     d="M138.422 39.5886C137.587 39.9851 136.587 39.6309 136.19 38.7973L133.359 32.8624C132.962 32.0289 133.317 31.0317 134.152 30.6352C134.988 30.2386 135.988 30.5929 136.385 31.4264L139.216 37.3613C139.613 38.1948 139.258 39.192 138.422 39.5886Z"
     fill="#FFCC01"
     id="path170" />
  <path
     d="M126.394 17.6226C126.034 18.4727 125.051 18.8702 124.198 18.5105L118.13 15.9494C117.278 15.5897 116.88 14.609 117.24 13.7589C117.601 12.9089 118.584 12.5113 119.436 12.871L125.504 15.4321C126.356 15.7918 126.755 16.7725 126.394 17.6226Z"
     fill="#6E2DC3"
     id="path172" />
  <path
     d="M10.4695 114.841C10.8856 114.017 11.893 113.685 12.7195 114.1L18.6043 117.056C19.4308 117.471 19.7634 118.476 19.3473 119.3C18.9311 120.124 17.9238 120.456 17.0973 120.041L11.2125 117.085C10.386 116.67 10.0533 115.665 10.4695 114.841Z"
     fill="#6E2DC3"
     id="path174" />
  <path
     d="M56.1764 111.757C55.7127 110.958 55.986 109.935 56.7868 109.473L62.4887 106.18C63.2895 105.717 64.3145 105.99 64.7782 106.789C65.2419 107.587 64.9686 108.61 64.1678 109.072L58.466 112.366C57.6652 112.828 56.6401 112.556 56.1764 111.757Z"
     fill="#6E2DC3"
     id="path176" />
  <path
     d="M38.1916 106.193C39.0811 106.447 39.5955 107.373 39.3405 108.26L37.5247 114.578C37.2697 115.465 36.3419 115.978 35.4524 115.724C34.5629 115.469 34.0485 114.544 34.3035 113.656L36.1193 107.339C36.3743 106.451 37.3021 105.938 38.1916 106.193Z"
     fill="#FF8200"
     id="path178" />
  <path
     d="M36.3569 143.709C37.2491 143.954 37.7732 144.874 37.5277 145.764L35.7792 152.101C35.5337 152.991 34.6113 153.513 33.7192 153.268C32.827 153.023 32.3028 152.103 32.5484 151.214L34.2968 144.877C34.5424 143.987 35.4647 143.464 36.3569 143.709Z"
     fill="#56A0CB"
     id="path180" />
  <path
     d="M70.4825 147.727C70.6155 148.562 70.0448 149.346 69.2078 149.479L63.2481 150.424C62.4111 150.557 61.6247 149.987 61.4916 149.152C61.3586 148.318 61.9293 147.533 62.7663 147.4L68.726 146.455C69.563 146.323 70.3494 146.892 70.4825 147.727Z"
     fill="#FF8200"
     id="path182" />
  <path
     d="M97.8992 138.662C97.6803 139.479 96.8391 139.964 96.0203 139.746L90.1905 138.191C89.3718 137.973 88.8855 137.134 89.1044 136.317C89.3233 135.5 90.1645 135.015 90.9833 135.233L96.813 136.788C97.6318 137.007 98.1181 137.846 97.8992 138.662Z"
     fill="#56A0CB"
     id="path184" />
  <path
     d="M106.918 161.65C107.502 162.262 107.479 163.231 106.865 163.814L102.497 167.967C101.883 168.55 100.912 168.526 100.327 167.914C99.7423 167.302 99.7657 166.333 100.379 165.75L104.748 161.598C105.362 161.014 106.333 161.038 106.918 161.65Z"
     fill="#FFCC01"
     id="path186" />
  <path
     d="M134.591 132.534C135.199 133.122 135.214 134.092 134.623 134.698L130.419 139.017C129.829 139.623 128.857 139.637 128.249 139.048C127.641 138.459 127.627 137.49 128.217 136.884L132.421 132.565C133.012 131.959 133.983 131.945 134.591 132.534Z"
     fill="#FF8200"
     id="path188" />
  <path
     d="M148.857 155.225C149.166 156.012 148.777 156.9 147.988 157.209L142.369 159.404C141.58 159.713 140.689 159.324 140.38 158.537C140.071 157.75 140.46 156.862 141.249 156.554L146.868 154.358C147.657 154.05 148.548 154.438 148.857 155.225Z"
     fill="#56A0CB"
     id="path190" />
  <defs
     id="defs214">
    <linearGradient
       id="paint0_linear_309_5585"
       x1="93.2881"
       y1="12.2948"
       x2="113.16"
       y2="68.4431"
       gradientUnits="userSpaceOnUse">
      <stop
         stop-color="#C68B60"
         id="stop192" />
      <stop
         offset="0.87387"
         stop-color="#AF7A53"
         id="stop194" />
      <stop
         offset="1"
         stop-color="#AC7851"
         id="stop196" />
    </linearGradient>
    <linearGradient
       id="paint1_linear_309_5585"
       x1="92.87"
       y1="17.6681"
       x2="105.984"
       y2="53.1048"
       gradientUnits="userSpaceOnUse">
      <stop
         stop-color="#B343DF"
         id="stop199" />
      <stop
         offset="1"
         stop-color="#700C99"
         id="stop201" />
    </linearGradient>
    <linearGradient
       id="paint2_linear_309_5585"
       x1="157.245"
       y1="59.2077"
       x2="127.593"
       y2="65.3321"
       gradientUnits="userSpaceOnUse">
      <stop
         stop-color="#A533D2"
         id="stop204" />
      <stop
         offset="1"
         stop-color="#7711A0"
         id="stop206" />
    </linearGradient>
    <linearGradient
       id="paint3_linear_309_5585"
       x1="161.007"
       y1="59.001"
       x2="120.668"
       y2="58.3669"
       gradientUnits="userSpaceOnUse">
      <stop
         offset="0.0688324"
         stop-color="#C68B60"
         id="stop209" />
      <stop
         offset="1"
         stop-color="#B47E56"
         id="stop211" />
    </linearGradient>
  </defs>
</svg>
