<svg width="272" height="204" viewBox="0 0 272 204" fill="none" xmlns="http://www.w3.org/2000/svg">
<g clip-path="url(#clip0_6925_62203)">
<g filter="url(#filter0_f_6925_62203)">
<path d="M157.194 9.60791L110.195 45.1327L63.1961 80.6566L16.1968 116.181L131.002 204L178.001 168.475L225 132.95L272 97.4264L157.194 9.60791Z" fill="#DE1964"/>
</g>
<path d="M210.614 131.452L125.425 66.166L95.3359 43.1062L131.971 0L156.946 19.1403L247.249 88.3463L210.614 131.452Z" fill="#EAD0C5"/>
<path d="M138.109 58.8494L125.425 66.166L95.3359 43.1062L131.971 0L156.946 19.1403L150.164 24.681L127.394 46.0335L138.109 58.8494Z" fill="#34ACE2"/>
<path d="M210.614 131.452L145.111 81.254L146.005 74.2321L167.264 49.2723L180.57 59.2743L194.209 47.6978L247.249 88.3463L210.614 131.452Z" fill="#E7BF8E"/>
<path d="M214.266 63.0682L209.369 59.3149L176.38 98.0459L129.489 68.7452L119.695 61.7743L125.426 66.1662L145.112 81.2533L165.273 96.7045L172.957 101.418L172.367 102.141L177.614 106.162L181.122 102.044L214.266 63.0682Z" fill="white"/>
<path d="M208.497 101.148L227.387 73.1246L224.411 70.8438L192.462 117.542L196.016 120.269L208.497 101.148Z" fill="white"/>
<path d="M210.896 131.664L95.3325 43.1113L34.7036 67.4554L150.081 156.07L210.896 131.664Z" fill="#E0B9AD"/>
<path d="M137.751 118.495L113.642 128.148L112.604 127.352L61.2235 87.9819L55.6618 83.7194L34.707 67.4554L58.4173 57.9248L128.396 105.081L122.856 107.298L137.751 118.495Z" fill="#A6AF37"/>
<path d="M73.4455 91.63L70.5992 95.1651L62.7468 89.1495L70.2876 83.3467L84.0693 87.3762L83.0321 98.8366L73.4455 91.63Z" fill="#1D98C5"/>
<path d="M165.442 96.8353L128.024 73.5784L102.602 87.6917L100.885 88.6303L70.2867 83.3544L61.2235 87.982L55.6619 83.7194L66.1548 78.1216L97.5421 84.2938L122.403 69.3527L88.7015 45.7722L94.1616 43.5811L119.749 61.8206L165.442 96.8353Z" fill="#DCD5DB"/>
<path d="M177.613 106.162L116.95 130.683L112.604 127.352L136.335 117.43L172.366 102.14L177.613 106.162Z" fill="#DCD5DB"/>
<path d="M204.341 134.295L190.978 123.208L196.016 120.267L192.462 117.542L187.445 120.344L172.127 108.195L168.932 109.574L200.556 135.815L204.341 134.295Z" fill="#DCD5DB"/>
<path d="M141.038 168.675L142.545 166.652L150.726 155.691L117.464 130.393L114.143 127.868L113.102 127.076L61.519 87.8476L55.9351 83.5999L34.707 67.4556L9.25892 101.555L6.56134 105.17L0.275879 113.592L39.5021 143.424L49.9452 151.367L79.5537 173.885L79.6632 173.973L82.9839 176.498L116.296 201.831L141.038 168.675Z" fill="#EAD0C5"/>
<path d="M114.143 127.87L79.6658 173.969L79.5563 173.886L49.9479 151.367L39.5039 143.424L0.278564 113.592L6.56313 105.17L9.26071 101.555L34.707 67.4556L55.9351 83.5999L61.519 87.8476L113.102 127.078L114.143 127.87Z" fill="#BBCF50"/>
<path d="M99.2417 123.701L89.1672 131.665L68.6407 126.383L70.3883 109.966L58.3213 102.697L63.0487 89.0103L70.9314 95.0048L69.9983 101.895L90.2872 112.271L99.2417 123.701Z" fill="#34ACE2"/>
<path d="M45.6542 104.489L60.1971 115.333L52.7338 121.869L42.8186 114.476L45.6542 104.489Z" fill="#34ACE2"/>
<path d="M117.464 130.395L82.9867 176.495L79.6659 173.969L79.5564 173.886L100.164 145.144L95.2255 141.462L72.3753 145.169L62.6302 139.613L52.6607 147.739L49.948 151.367L39.504 143.424L37.5409 139.498L20.7625 115.758L6.56323 105.17L9.26081 101.555L22.1353 111.155L25.0136 102.929L47.9511 97.9896L55.9352 83.6001L61.5191 87.8477L53.6374 101.373L29.6796 107.263L27.5038 114.302L49.2527 143.045L61.7764 132.494L71.891 139.621L93.8002 135.109L102.624 141.69L113.102 127.078L114.143 127.87L117.464 130.395Z" fill="white"/>
<path d="M247.996 88.7678L132.051 0.0688477L128.05 4.67449L243.995 93.3735L247.996 88.7678Z" fill="#DCD5DB"/>
<path d="M100.19 46.8377L95.3359 43.117L132.051 0.0688477L247.996 88.7678L211.361 131.694L206.507 127.991L239.189 89.6976L132.877 8.36709L100.19 46.8377Z" fill="white"/>
<path d="M146.05 152.136L114.798 193.659L8.47023 112.817L39.561 71.1603L34.7071 67.4404L0 113.95L116.054 202.188L150.826 155.771L146.05 152.136Z" fill="white"/>
<path d="M95.3359 43.1167L100.19 46.8374L39.5609 71.1604L34.707 67.4406L95.3359 43.1167Z" fill="#DCD5DB"/>
<path d="M211.361 131.693L150.826 155.771L146.05 152.136L206.507 127.99L211.361 131.693Z" fill="#DCD5DB"/>
<g style="mix-blend-mode:multiply">
<path d="M126.141 120.357C142.894 120.357 156.475 116.806 156.475 112.426C156.475 108.045 142.894 104.494 126.141 104.494C109.388 104.494 95.8069 108.045 95.8069 112.426C95.8069 116.806 109.388 120.357 126.141 120.357Z" fill="#D6D7D8"/>
</g>
<path d="M122.677 105.76L122.802 110.851H126.139C126.139 110.851 149.02 80.751 148.649 63.9311C148.649 63.9144 148.649 63.8985 148.649 63.881C148.649 63.8062 148.649 63.7323 148.649 63.6575C148.649 51.3738 138.571 41.4175 126.14 41.4175H121.088L121.103 41.9769C111.097 44.2375 103.63 53.0855 103.63 63.6575C103.352 76.3415 116.294 96.5813 122.677 105.76ZM114.616 64.0164C114.615 62.5208 114.912 61.0397 115.491 59.6577C116.07 58.2758 116.919 57.0201 117.989 55.9626C119.059 54.9051 120.33 54.0665 121.729 53.4948C123.128 52.9231 124.627 52.6295 126.141 52.6307C128.421 52.6304 130.65 53.2981 132.546 54.5493C134.441 55.8006 135.919 57.5793 136.792 59.6603C137.664 61.7414 137.893 64.0314 137.448 66.2407C137.003 68.45 135.905 70.4794 134.293 72.0721C132.681 73.6649 130.627 74.7495 128.39 75.1887C126.154 75.628 123.836 75.4022 121.73 74.5399C119.624 73.6776 117.824 72.2175 116.557 70.3443C115.291 68.4711 114.616 66.269 114.616 64.0164Z" fill="url(#paint0_linear_6925_62203)"/>
<path d="M122.802 110.575V110.851C122.802 110.851 145.683 80.751 145.313 63.9311C145.313 63.9144 145.313 63.8985 145.313 63.881C145.313 63.8062 145.313 63.7323 145.313 63.6575C145.313 51.3738 135.235 41.4175 122.803 41.4175C110.371 41.4175 100.295 51.3738 100.295 63.6575C99.9264 80.4071 122.613 110.324 122.802 110.575ZM111.279 64.0164C111.279 61.7644 111.955 59.5629 113.222 57.6904C114.488 55.8179 116.288 54.3584 118.394 53.4966C120.5 52.6348 122.817 52.4093 125.053 52.8487C127.288 53.288 129.342 54.3725 130.953 55.9649C132.565 57.5574 133.663 59.5862 134.108 61.795C134.552 64.0038 134.324 66.2932 133.452 68.3739C132.579 70.4545 131.102 72.2328 129.207 73.484C127.312 74.7352 125.084 75.403 122.804 75.403C121.291 75.4031 119.792 75.1086 118.394 74.5364C116.995 73.9643 115.725 73.1255 114.655 72.0682C113.584 71.0108 112.736 69.7555 112.156 68.374C111.577 66.9925 111.279 65.5118 111.279 64.0164Z" fill="url(#paint1_linear_6925_62203)"/>
</g>
<defs>
<filter id="filter0_f_6925_62203" x="9.19678" y="2.60791" width="269.803" height="208.392" filterUnits="userSpaceOnUse" color-interpolation-filters="sRGB">
<feFlood flood-opacity="0" result="BackgroundImageFix"/>
<feBlend mode="normal" in="SourceGraphic" in2="BackgroundImageFix" result="shape"/>
<feGaussianBlur stdDeviation="3.5" result="effect1_foregroundBlur_6925_62203"/>
</filter>
<linearGradient id="paint0_linear_6925_62203" x1="148.655" y1="76.1339" x2="103.628" y2="76.1339" gradientUnits="userSpaceOnUse">
<stop stop-color="#931A1D"/>
<stop offset="1" stop-color="#F3744D"/>
</linearGradient>
<linearGradient id="paint1_linear_6925_62203" x1="145.318" y1="76.1339" x2="100.291" y2="76.1339" gradientUnits="userSpaceOnUse">
<stop stop-color="#EF3E3E"/>
<stop offset="0.25" stop-color="#EF4440"/>
<stop offset="0.58" stop-color="#F15444"/>
<stop offset="0.95" stop-color="#F3704C"/>
<stop offset="1" stop-color="#F3744D"/>
</linearGradient>
<clipPath id="clip0_6925_62203">
<rect width="272" height="204" fill="white"/>
</clipPath>
</defs>
</svg>
