<?xml version="1.0" encoding="UTF-8" standalone="no"?>
<svg
   width="96"
   height="128"
   viewBox="0 0 96 128"
   fill="none"
   version="1.1"
   id="svg41"
   xmlns="http://www.w3.org/2000/svg">
  <g
     id="g342"
     transform="matrix(0.25,0,0,0.25,0.91415129,-5.9282371e-8)">
    <path
       fill-rule="evenodd"
       clip-rule="evenodd"
       d="m 353.96197,409.13627 c 7.65259,-13.61556 11.06215,-17.71888 15.17608,-34.61126 -9.81982,-3.55109 -9.81982,-15.97479 4.3008,-15.84935 12.28071,-57.20696 -6.55361,-126.47556 -121.24035,-171.41352 -32.84998,-13.49013 -29.16028,-36.38754 -23.20937,-46.1503 -2.70812,-0.15835 -7.22506,0.61623 -11.6045,3.54963 -3.80014,2.54538 -7.49679,6.71599 -9.81945,13.31312 -6.2486,17.74998 -3.57047,-19.52442 0,-24.85033 2.15663,-3.21683 -6.03722,-4.78611 -14.28263,-0.39351 -6.17144,3.28778 -12.37177,9.91563 -14.28263,21.69348 -1.85564,-2.93047 -4.68078,-6.64906 -7.93747,-9.76276 -3.34227,-3.19562 -7.13876,-5.75343 -10.80834,-6.16742 -2.50113,-0.28233 -4.94301,0.43155 -7.14169,2.61779 15.73233,7.94918 27.79873,30.65532 -29.25061,63.84213 -20.21672,11.76066 -41.235454,23.15963 -56.65875,40.68615 -80.09885,91.02096 -19.282686,178.90738 25.208731,213.83682 25.616139,12.42333 50.211929,19.47797 71.412789,23.12049 10.07618,1.72984 19.38545,2.69167 27.67292,3.09395 11.86562,0.57052 21.63643,-0.007 28.5649,-1.11543 1.95145,-0.29623 4.04005,-0.64731 6.24897,-1.06057 35.51787,-6.65236 102.10249,-28.9244 127.6506,-74.37911 z M 128.14141,331.44964 c -2.92938,-6.88458 1.39484,-15.2035 7.84641,-19.04241 5.02968,-2.99301 10.87125,-2.68435 14.44684,7.98063 5.80097,17.30198 -17.25919,22.89193 -22.29325,11.06178 z m 149.02811,1.77482 c 2.92937,-6.88422 -1.39448,-15.2035 -7.84605,-19.04241 -5.02968,-2.99265 -10.87125,-2.68398 -14.44721,7.98063 -5.8006,17.30197 17.25955,22.89193 22.29326,11.06178 z m -152.32723,20.2873 c 4.93204,-6.97711 -25.824956,-7.90749 -22.30458,-0.13056 0.23552,0.51968 0.97207,1.06277 2.37129,1.61902 5.68029,2.25902 18.2276,0.92453 19.93329,-1.48846 z m 190.1374,2.66277 c 4.93203,-6.97747 -25.82496,-7.90785 -22.30459,-0.13092 0.23552,0.52004 0.97207,1.06277 2.37129,1.61902 5.68029,2.25902 18.2276,0.92453 19.9333,-1.4881 z m -152.94016,-3.83671 c -8.92674,10.64998 -21.51209,35.50287 0,34.61419 21.42394,-0.88869 8.92637,-22.18939 0,-34.61419 z"
       fill="#e9e9e9"
       id="path2"
       style="stroke-width:3.65715" />
    <path
       d="m 153.11242,141.11184 c 12.49722,10.35449 24.10172,34.08024 -29.45797,46.1503 -53.560048,12.06969 -91.944464,55.91233 -104.441748,76.32507 -19.63861062,34.90823 -41.241089,117.68159 29.457753,169.51071 14.621649,10.72276 29.342773,19.39752 43.741336,26.37902 C 47.920374,424.5475 -12.89579,336.66108 67.20306,245.64012 c 15.423296,-17.52652 36.44203,-28.92549 56.65875,-40.68615 57.04934,-33.18681 44.98294,-55.89295 29.25061,-63.84213 z"
       fill="#c8c8c8"
       id="path4"
       style="stroke-width:3.65715" />
    <path
       d="m 128.14141,331.44964 c -2.92938,-6.88458 1.39484,-15.2035 7.84641,-19.04241 5.02968,-2.99301 10.87125,-2.68435 14.44684,7.98063 5.80097,17.30198 -17.25919,22.89193 -22.29325,11.06178 z"
       fill="#c8c8c8"
       id="path6"
       style="stroke-width:3.65715" />
    <path
       d="m 277.16952,333.22446 c 2.92937,-6.88422 -1.39448,-15.2035 -7.84605,-19.04241 -5.02968,-2.99265 -10.87125,-2.68398 -14.44721,7.98063 -5.8006,17.30197 17.25955,22.89193 22.29326,11.06178 z"
       fill="#c8c8c8"
       id="path8"
       style="stroke-width:3.65715" />
    <path
       d="m 162.03953,352.33782 c -8.92674,10.64998 -21.51209,35.50287 0,34.61419 21.42394,-0.88869 8.92637,-22.18939 0,-34.61419 z"
       fill="url(#paint0_linear_6098_27525)"
       id="path10"
       style="fill:url(#paint0_linear_6098_27525);stroke-width:3.65715" />
    <path
       d="m 124.84229,353.51176 c 4.93204,-6.97711 -25.824956,-7.90749 -22.30458,-0.13056 0.23552,0.51968 0.97207,1.06277 2.37129,1.61902 5.68029,2.25902 18.2276,0.92453 19.93329,-1.48846 z"
       fill="#c8c8c8"
       id="path12"
       style="stroke-width:3.65715" />
    <path
       d="m 314.97969,356.17453 c 4.93203,-6.97747 -25.82496,-7.90785 -22.30459,-0.13092 0.23552,0.52004 0.97207,1.06277 2.37129,1.61902 5.68029,2.25902 18.2276,0.92453 19.9333,-1.4881 z"
       fill="#c8c8c8"
       id="path14"
       style="stroke-width:3.65715" />
    <path
       d="m 191.4975,485.69138 c -8.28747,-0.40228 -17.59674,-1.36411 -27.67292,-3.09395 -5.44988,6.45853 -10.48761,17.68232 4.46355,19.21101 -7.85556,-11.06288 12.19952,-15.35637 23.20937,-16.11706 z"
       fill="#c8c8c8"
       id="path16"
       style="stroke-width:3.65715" />
    <path
       d="m 179.89263,501.43907 c 5.3559,8.87224 18.56735,20.41055 28.56527,-4.43978 8.62904,6.68892 24.28054,13.35591 17.85347,-13.48391 -2.20892,0.41326 -4.29752,0.76434 -6.24897,1.06057 -6.92847,1.10812 -16.69928,1.68595 -28.5649,1.11543 -11.00985,0.76069 -31.06493,5.05418 -23.20937,16.11706 3.00654,0.3072 6.82168,0.22309 11.6045,-0.36937 z"
       fill="#eaeaea"
       id="path18"
       style="stroke-width:3.65715" />
    <path
       d="m 207.56518,133.12426 c -3.57047,5.32591 -6.2486,42.60031 0,24.85033 2.32266,-6.59713 6.01931,-10.76774 9.81945,-13.31312 3.57048,-25.73865 46.41837,-62.123997 23.209,-68.336396 -1.47639,-0.395338 -2.96668,-0.587339 -4.46318,-0.599042 -11.00949,7.036722 -34.99234,28.289148 -42.8479,57.004718 8.24541,-4.3926 16.43926,-2.82332 14.28263,0.39351 z"
       fill="#d9d9d9"
       id="path20"
       style="stroke-width:3.65715" />
    <path
       d="m 193.28255,112.71261 c 4.23023,-7.47667 11.97388,-18.545036 21.06921,-26.625142 C 200.40595,55.003161 223.88887,5.0078078 202.20929,0.35054289 192.09252,7.5518672 173.64403,33.870287 180.78534,81.53322 c 6.06795,9.663286 11.1704,20.62559 12.49721,31.17939 z"
       fill="#e8e8e8"
       id="path22"
       style="stroke-width:3.65715" />
    <path
       d="m 178.99992,154.42423 c -2.14236,-15.62078 8.62905,-34.3165 14.28263,-41.71162 -1.32681,-10.5538 -6.42926,-21.516104 -12.49721,-31.17939 -3.00581,-4.786477 -6.2486,-9.254417 -9.38717,-13.195726 -1.25586,-1.577695 -2.49527,-3.070909 -3.69628,-4.466477 -4.71406,-5.478775 -10.63572,-9.909412 -17.52506,-12.160753 -6.64541,-2.171615 -13.59947,-3.1766 -17.59528,-0.567224 16.42975,14.605558 47.12786,53.75754 38.4809,93.51843 3.25669,3.1137 6.08183,6.83229 7.93747,9.76276 z"
       fill="#dedede"
       id="path24"
       style="stroke-width:3.65715" />
    <path
       d="m 198.63881,0 c -22.13818,0 -27.38473,45.558207 -27.24064,68.337494 3.13857,3.941309 6.38136,8.409249 9.38717,13.195726 C 173.64403,33.870287 192.09252,7.5518672 202.20929,0.35054289 201.13372,0.11946371 199.94661,0 198.63881,0 Z"
       fill="#d1d1d1"
       id="path26"
       style="stroke-width:3.65715" />
    <path
       d="m 193.28255,112.71261 c -5.65358,7.39512 -16.42499,26.09084 -14.28263,41.71162 1.91086,-11.77785 8.11119,-18.4057 14.28263,-21.69348 7.85556,-28.71557 31.83841,-49.967996 42.8479,-57.004718 -7.41195,-0.05705 -14.97347,4.315802 -21.77869,10.361436 -9.09533,8.080106 -16.83898,19.148472 -21.06921,26.625142 z"
       fill="#cbcbcb"
       id="path28"
       style="stroke-width:3.65715" />
    <path
       d="m 132.58155,51.14304 c -7.6204,4.975917 1.17834,15.86252 6.45816,23.252156 15.08794,21.116015 20.4581,50.300434 21.2144,64.098854 3.66958,0.41399 7.46607,2.9718 10.80834,6.16742 8.64696,-39.76089 -22.05115,-78.912872 -38.4809,-93.51843 z"
       fill="#cccccc"
       id="path30"
       style="stroke-width:3.65715" />
    <path
       d="m 219.40667,356.77504 c 1.34839,0 2.46053,1.09934 2.2539,2.43164 -0.19529,1.26135 -0.54236,2.49746 -1.0357,3.68201 -0.8075,1.93793 -1.99096,3.70031 -3.48307,5.18145 -1.49212,1.48481 -3.26364,2.66241 -5.2129,3.46332 -1.94963,0.80458 -4.03896,1.21783 -6.14914,1.21783 -2.1098,0 -4.19913,-0.41325 -6.14876,-1.21783 -1.94963,-0.80091 -3.72078,-1.97851 -5.2129,-3.46332 -1.49212,-1.48114 -2.67557,-3.24352 -3.48307,-5.18145 -0.47104,-1.13042 -0.8086,-2.30839 -1.00828,-3.50976 -0.23661,-1.42483 0.95635,-2.60389 2.40092,-2.60389 1.25184,0 2.2433,1.02546 2.4982,2.25134 0.14226,0.68425 0.34962,1.3557 0.61989,2.00448 0.5621,1.34949 1.38606,2.57537 2.42469,3.60815 1.03863,1.03241 2.27182,1.85125 3.62899,2.41079 1.35717,0.55954 2.81161,0.8448 4.28032,0.8448 1.46908,0 2.92353,-0.28526 4.2807,-0.8448 1.35717,-0.55954 2.59036,-1.37838 3.62899,-2.41079 1.03863,-1.03278 1.86258,-2.25866 2.42469,-3.60815 0.24795,-0.59502 0.44251,-1.20869 0.58295,-1.83406 0.29513,-1.31584 1.36155,-2.42176 2.70958,-2.42176 z"
       fill="#c8c8c8"
       id="path32"
       style="stroke-width:3.65715" />
  </g>
  <defs
     id="defs39">
    <linearGradient
       id="paint0_linear_6098_27525"
       x1="44.455799"
       y1="97.555496"
       x2="45.433399"
       y2="105.805"
       gradientUnits="userSpaceOnUse"
       gradientTransform="matrix(3.6571494,0,0,3.6571494,1.3968384e-5,0)">
      <stop
         stop-color="#D9D9D9"
         id="stop34" />
      <stop
         offset="1"
         stop-color="#C6C6C6"
         id="stop36" />
    </linearGradient>
  </defs>
</svg>
